InterAlia-ThinItalic.ufo
<glyph name="numbersign" format="2">
  <advance height="2479" width="1297"/>
  <unicode hex="0023"/>
  <outline>
    <contour>
      <point x="783" y="0" type="line"/>
      <point x="829" y="0" type="line"/>
      <point x="1100" y="1489" type="line"/>
      <point x="1053" y="1489" type="line"/>
    </contour>
    <contour>
      <point x="73" y="463" type="line"/>
      <point x="1184" y="463" type="line"/>
      <point x="1193" y="509" type="line"/>
      <point x="81" y="509" type="line"/>
    </contour>
    <contour>
      <point x="259" y="0" type="line"/>
      <point x="305" y="0" type="line"/>
      <point x="576" y="1489" type="line"/>
      <point x="529" y="1489" type="line"/>
    </contour>
    <contour>
      <point x="166" y="980" type="line"/>
      <point x="1277" y="980" type="line"/>
      <point x="1287" y="1027" type="line"/>
      <point x="176" y="1027" type="line"/>
    </contour>
  </outline>
</glyph>
<glyph name="parenleft" format="2">
  <advance height="2479" width="646"/>
  <unicode hex="0028"/>
  <outline>
    <contour>
      <point x="250" y="628" type="curve" smooth="yes"/>
      <point x="198" y="317"/>
      <point x="221" y="-3"/>
      <point x="311" y="-303" type="curve"/>
      <point x="361" y="-303" type="line"/>
      <point x="268" y="-3"/>
      <point x="244" y="314"/>
      <point x="297" y="628" type="curve" smooth="yes"/>
      <point x="349" y="940"/>
      <point x="474" y="1260"/>
      <point x="669" y="1559" type="curve"/>
      <point x="620" y="1559" type="line"/>
      <point x="431" y="1263"/>
      <point x="303" y="943"/>
    </contour>
  </outline>
</glyph>
<glyph name="asterisk" format="2">
  <advance height="2479" width="1024"/>
  <unicode hex="002A"/>
  <outline>
    <contour>
      <point x="503" y="652" type="line"/>
      <point x="550" y="652" type="line"/>
      <point x="614" y="1033" type="line"/>
      <point x="913" y="841" type="line"/>
      <point x="937" y="881" type="line"/>
      <point x="643" y="1068" type="line"/>
      <point x="1007" y="1260" type="line"/>
      <point x="983" y="1300" type="line"/>
      <point x="625" y="1111" type="line"/>
      <point x="689" y="1489" type="line"/>
      <point x="643" y="1489" type="line"/>
      <point x="579" y="1108" type="line"/>
      <point x="279" y="1300" type="line"/>
      <point x="256" y="1260" type="line"/>
      <point x="550" y="1073" type="line"/>
      <point x="186" y="881" type="line"/>
      <point x="209" y="841" type="line"/>
      <point x="567" y="1030" type="line"/>
    </contour>
  </outline>
</glyph>
<glyph name="period" format="2">
  <advance height="2479" width="518"/>
  <unicode hex="002E"/>
  <outline>
    <contour>
      <point x="169" y="-9" type="curve" smooth="yes"/>
      <point x="198" y="-9"/>
      <point x="224" y="15"/>
      <point x="227" y="44" type="curve" smooth="yes"/>
      <point x="230" y="73"/>
      <point x="209" y="96"/>
      <point x="180" y="96" type="curve" smooth="yes"/>
      <point x="151" y="96"/>
      <point x="125" y="73"/>
      <point x="122" y="44" type="curve" smooth="yes"/>
      <point x="119" y="15"/>
      <point x="140" y="-9"/>
    </contour>
  </outline>
</glyph>
<glyph name="one" format="2">
  <advance height="2479" width="835"/>
  <unicode hex="0031"/>
  <outline>
    <contour>
      <point x="675" y="1489" type="line"/>
      <point x="611" y="1489" type="line"/>
      <point x="265" y="1283" type="line"/>
      <point x="256" y="1228" type="line"/>
      <point x="611" y="1440" type="line"/>
      <point x="620" y="1440" type="line"/>
      <point x="381" y="0" type="line"/>
      <point x="428" y="0" type="line"/>
    </contour>
  </outline>
</glyph>
<glyph name="two" format="2">
  <advance height="2479" width="1271"/>
  <unicode hex="0032"/>
  <anchor x="847" y="745" name="cross"/>
  <outline>
    <contour>
      <point x="96" y="0" type="line"/>
      <point x="995" y="0" type="line"/>
      <point x="1004" y="47" type="line"/>
      <point x="177" y="47" type="line"/>
      <point x="177" y="52" type="line"/>
      <point x="704" y="573" type="line" smooth="yes"/>
      <point x="977" y="844"/>
      <point x="1068" y="960"/>
      <point x="1094" y="1126" type="curve" smooth="yes"/>
      <point x="1132" y="1347"/>
      <point x="992" y="1510"/>
      <point x="768" y="1510" type="curve" smooth="yes"/>
      <point x="535" y="1510"/>
      <point x="343" y="1332"/>
      <point x="308" y="1117" type="curve"/>
      <point x="355" y="1117" type="line"/>
      <point x="387" y="1306"/>
      <point x="561" y="1463"/>
      <point x="768" y="1463" type="curve" smooth="yes"/>
      <point x="966" y="1463"/>
      <point x="1079" y="1321"/>
      <point x="1047" y="1126" type="curve" smooth="yes"/>
      <point x="1024" y="977"/>
      <point x="943" y="867"/>
      <point x="672" y="602" type="curve" smooth="yes"/>
      <point x="102" y="38" type="line"/>
    </contour>
  </outline>
</glyph>
<glyph name="three" format="2">
  <advance height="2479" width="1257"/>
  <unicode hex="0033"/>
  <outline>
    <contour>
      <point x="538" y="-20" type="curve" smooth="yes"/>
      <point x="800" y="-20"/>
      <point x="1009" y="157"/>
      <point x="1047" y="387" type="curve" smooth="yes"/>
      <point x="1079" y="576"/>
      <point x="977" y="719"/>
      <point x="791" y="768" type="curve"/>
      <point x="791" y="774" type="line"/>
      <point x="969" y="823"/>
      <point x="1100" y="954"/>
      <point x="1126" y="1129" type="curve" smooth="yes"/>
      <point x="1164" y="1347"/>
      <point x="1024" y="1510"/>
      <point x="788" y="1510" type="curve" smooth="yes"/>
      <point x="556" y="1510"/>
      <point x="358" y="1347"/>
      <point x="320" y="1117" type="curve"/>
      <point x="367" y="1117" type="line"/>
      <point x="399" y="1321"/>
      <point x="585" y="1463"/>
      <point x="791" y="1463" type="curve" smooth="yes"/>
      <point x="1004" y="1463"/>
      <point x="1111" y="1321"/>
      <point x="1079" y="1129" type="curve" smooth="yes"/>
      <point x="1047" y="922"/>
      <point x="852" y="791"/>
      <point x="628" y="791" type="curve" smooth="yes"/>
      <point x="605" y="791" type="line"/>
      <point x="599" y="745" type="line"/>
      <point x="623" y="745" type="line" smooth="yes"/>
      <point x="876" y="745"/>
      <point x="1036" y="602"/>
      <point x="1001" y="387" type="curve" smooth="yes"/>
      <point x="969" y="189"/>
      <point x="774" y="26"/>
      <point x="538" y="26" type="curve" smooth="yes"/>
      <point x="314" y="26"/>
      <point x="175" y="172"/>
      <point x="207" y="372" type="curve"/>
      <point x="160" y="372" type="line"/>
      <point x="122" y="145"/>
      <point x="288" y="-20"/>
    </contour>
  </outline>
</glyph>
<glyph name="four" format="2">
  <advance height="2479" width="1219"/>
  <unicode hex="0034"/>
  <outline>
    <contour>
      <point x="116" y="349" type="line"/>
      <point x="1033" y="349" type="line"/>
      <point x="1041" y="396" type="line"/>
      <point x="192" y="396" type="line"/>
      <point x="192" y="401" type="line"/>
      <point x="969" y="1393" type="line"/>
      <point x="1004" y="1393" type="line"/>
      <point x="1018" y="1489" type="line"/>
      <point x="989" y="1489" type="line"/>
      <point x="122" y="384" type="line"/>
    </contour>
    <contour>
      <point x="742" y="0" type="line"/>
      <point x="788" y="0" type="line"/>
      <point x="1036" y="1489" type="line"/>
      <point x="989" y="1489" type="line"/>
      <point x="806" y="378" type="line"/>
      <point x="803" y="364" type="line"/>
    </contour>
  </outline>
</glyph>
<glyph name="five" format="2">
  <advance height="2479" width="1169"/>
  <unicode hex="0035"/>
  <outline>
    <contour>
      <point x="468" y="-20" type="curve" smooth="yes"/>
      <point x="726" y="-20"/>
      <point x="943" y="186"/>
      <point x="992" y="463" type="curve" smooth="yes"/>
      <point x="1043" y="750"/>
      <point x="865" y="940"/>
      <point x="625" y="940" type="curve" smooth="yes"/>
      <point x="505" y="940"/>
      <point x="397" y="896"/>
      <point x="311" y="826" type="curve"/>
      <point x="305" y="826" type="line"/>
      <point x="483" y="1443" type="line"/>
      <point x="1103" y="1443" type="line"/>
      <point x="1111" y="1489" type="line"/>
      <point x="451" y="1489" type="line"/>
      <point x="247" y="785" type="line"/>
      <point x="314" y="774" type="line"/>
      <point x="394" y="844"/>
      <point x="508" y="893"/>
      <point x="625" y="893" type="curve" smooth="yes"/>
      <point x="839" y="893"/>
      <point x="988" y="727"/>
      <point x="945" y="463" type="curve" smooth="yes"/>
      <point x="906" y="217"/>
      <point x="700" y="26"/>
      <point x="468" y="26" type="curve" smooth="yes"/>
      <point x="260" y="26"/>
      <point x="153" y="169"/>
      <point x="186" y="372" type="curve"/>
      <point x="140" y="372" type="line"/>
      <point x="100" y="143"/>
      <point x="237" y="-20"/>
    </contour>
  </outline>
</glyph>
<glyph name="six" format="2">
  <advance height="2479" width="1193"/>
  <unicode hex="0036"/>
  <outline>
    <contour>
      <point x="512" y="-20" type="curve" smooth="yes"/>
      <point x="762" y="-20"/>
      <point x="966" y="198"/>
      <point x="1009" y="445" type="curve" smooth="yes"/>
      <point x="1053" y="710"/>
      <point x="893" y="911"/>
      <point x="657" y="911" type="curve" smooth="yes"/>
      <point x="486" y="911"/>
      <point x="305" y="803"/>
      <point x="233" y="655" type="curve"/>
      <point x="227" y="655" type="line"/>
      <point x="314" y="1178"/>
      <point x="509" y="1463"/>
      <point x="783" y="1463" type="curve" smooth="yes"/>
      <point x="977" y="1463"/>
      <point x="1065" y="1321"/>
      <point x="1047" y="1117" type="curve"/>
      <point x="1094" y="1117" type="line"/>
      <point x="1117" y="1350"/>
      <point x="1001" y="1510"/>
      <point x="780" y="1510" type="curve" smooth="yes"/>
      <point x="419" y="1510"/>
      <point x="250" y="1076"/>
      <point x="186" y="675" type="curve" smooth="yes"/>
      <point x="108" y="207"/>
      <point x="259" y="-20"/>
    </contour>
    <contour>
      <point x="512" y="26" type="curve" smooth="yes"/>
      <point x="326" y="26"/>
      <point x="218" y="163"/>
      <point x="212" y="425" type="curve" smooth="yes"/>
      <point x="209" y="657"/>
      <point x="428" y="864"/>
      <point x="655" y="864" type="curve" smooth="yes"/>
      <point x="870" y="864"/>
      <point x="1001" y="681"/>
      <point x="963" y="445" type="curve" smooth="yes"/>
      <point x="922" y="215"/>
      <point x="727" y="26"/>
    </contour>
  </outline>
</glyph>
<glyph name="seven" format="2">
  <advance height="2479" width="1120"/>
  <unicode hex="0037"/>
  <outline>
    <contour>
      <point x="131" y="0" type="line"/>
      <point x="183" y="0" type="line"/>
      <point x="1129" y="1443" type="line"/>
      <point x="1137" y="1489" type="line"/>
      <point x="273" y="1489" type="line"/>
      <point x="265" y="1443" type="line"/>
      <point x="1073" y="1443" type="line"/>
      <point x="1073" y="1437" type="line"/>
    </contour>
  </outline>
</glyph>
<glyph name="nine" format="2">
  <advance height="2479" width="1193"/>
  <unicode hex="0039"/>
  <outline>
    <contour>
      <point x="745" y="1510" type="curve" smooth="yes"/>
      <point x="495" y="1510"/>
      <point x="291" y="1295"/>
      <point x="247" y="1047" type="curve" smooth="yes"/>
      <point x="201" y="783"/>
      <point x="364" y="582"/>
      <point x="599" y="582" type="curve" smooth="yes"/>
      <point x="771" y="582"/>
      <point x="951" y="689"/>
      <point x="1024" y="838" type="curve"/>
      <point x="1030" y="838" type="line"/>
      <point x="943" y="314"/>
      <point x="748" y="26"/>
      <point x="474" y="26" type="curve" smooth="yes"/>
      <point x="279" y="26"/>
      <point x="192" y="172"/>
      <point x="209" y="375" type="curve"/>
      <point x="163" y="375" type="line"/>
      <point x="140" y="143"/>
      <point x="256" y="-20"/>
      <point x="477" y="-20" type="curve" smooth="yes"/>
      <point x="838" y="-20"/>
      <point x="1007" y="416"/>
      <point x="1071" y="817" type="curve" smooth="yes"/>
      <point x="1145" y="1287"/>
      <point x="998" y="1510"/>
    </contour>
    <contour>
      <point x="745" y="1463" type="curve" smooth="yes"/>
      <point x="931" y="1463"/>
      <point x="1039" y="1329"/>
      <point x="1044" y="1068" type="curve" smooth="yes"/>
      <point x="1049" y="835"/>
      <point x="829" y="628"/>
      <point x="602" y="628" type="curve" smooth="yes"/>
      <point x="387" y="628"/>
      <point x="256" y="812"/>
      <point x="294" y="1047" type="curve" smooth="yes"/>
      <point x="331" y="1278"/>
      <point x="529" y="1463"/>
    </contour>
  </outline>
</glyph>
<glyph name="less" format="2">
  <advance height="2479" width="1303"/>
  <unicode hex="003C"/>
  <outline>
    <contour>
      <point x="253" y="559" type="line"/>
      <point x="966" y="41" type="line"/>
      <point x="975" y="96" type="line"/>
      <point x="300" y="585" type="line"/>
      <point x="308" y="570" type="line"/>
      <point x="311" y="593" type="line"/>
      <point x="300" y="579" type="line"/>
      <point x="1135" y="1068" type="line"/>
      <point x="1143" y="1123" type="line"/>
      <point x="262" y="605" type="line"/>
    </contour>
  </outline>
</glyph>
<glyph name="greater" format="2">
  <advance height="2479" width="1303"/>
  <unicode hex="003E"/>
  <outline>
    <contour>
      <point x="1050" y="559" type="line"/>
      <point x="1059" y="605" type="line"/>
      <point x="346" y="1123" type="line"/>
      <point x="337" y="1068" type="line"/>
      <point x="1009" y="579" type="line"/>
      <point x="1004" y="593" type="line"/>
      <point x="1001" y="570" type="line"/>
      <point x="1009" y="585" type="line"/>
      <point x="177" y="96" type="line"/>
      <point x="169" y="41" type="line"/>
    </contour>
  </outline>
</glyph>
<glyph name="question" format="2">
  <advance height="2479" width="980"/>
  <unicode hex="003F"/>
  <outline>
    <contour>
      <point x="407" y="442" type="line"/>
      <point x="454" y="442" type="line"/>
      <point x="471" y="544" type="line" smooth="yes"/>
      <point x="491" y="665"/>
      <point x="540" y="726"/>
      <point x="692" y="823" type="curve" smooth="yes"/>
      <point x="870" y="937"/>
      <point x="940" y="992"/>
      <point x="963" y="1146" type="curve" smooth="yes"/>
      <point x="992" y="1347"/>
      <point x="863" y="1510"/>
      <point x="646" y="1510" type="curve" smooth="yes"/>
      <point x="422" y="1510"/>
      <point x="226" y="1342"/>
      <point x="189" y="1117" type="curve"/>
      <point x="236" y="1117" type="line"/>
      <point x="268" y="1303"/>
      <point x="441" y="1463"/>
      <point x="646" y="1463" type="curve" smooth="yes"/>
      <point x="831" y="1463"/>
      <point x="943" y="1334"/>
      <point x="916" y="1146" type="curve" smooth="yes"/>
      <point x="898" y="1016"/>
      <point x="828" y="965"/>
      <point x="669" y="864" type="curve" smooth="yes"/>
      <point x="508" y="762"/>
      <point x="447" y="682"/>
      <point x="425" y="544" type="curve" smooth="yes"/>
    </contour>
    <component base="period" xOffset="192"/>
  </outline>
</glyph>
<glyph name="A" format="2">
  <advance height="2479" width="1263"/>
  <unicode hex="0041"/>
  <anchor x="538" y="0" name="bottom"/>
  <anchor x="1103" y="0" name="ogonek"/>
  <anchor x="681" y="1489" name="tonos"/>
  <anchor x="817" y="1676" name="top"/>
  <outline>
    <contour>
      <point x="23" y="0" type="line"/>
      <point x="774" y="1431" type="line"/>
      <point x="780" y="1431" type="line"/>
      <point x="1053" y="0" type="line"/>
      <point x="1103" y="0" type="line"/>
      <point x="817" y="1489" type="line"/>
      <point x="753" y="1489" type="line"/>
      <point x="-26" y="0" type="line"/>
    </contour>
    <contour>
      <point x="285" y="550" type="line"/>
      <point x="276" y="503" type="line"/>
      <point x="969" y="503" type="line"/>
      <point x="977" y="550" type="line"/>
    </contour>
  </outline>
</glyph>
<glyph name="D" format="2">
  <advance height="2479" width="1465"/>
  <unicode hex="0044"/>
  <anchor x="497" y="0" name="bottom"/>
  <anchor x="288" y="756" name="cross"/>
  <anchor x="817" y="1676" name="top"/>
  <outline>
    <contour>
      <point x="529" y="0" type="line" smooth="yes"/>
      <point x="966" y="0"/>
      <point x="1265" y="276"/>
      <point x="1347" y="751" type="curve" smooth="yes"/>
      <point x="1425" y="1213"/>
      <point x="1225" y="1489"/>
      <point x="815" y="1489" type="curve" smooth="yes"/>
      <point x="410" y="1489" type="line"/>
      <point x="401" y="1443" type="line"/>
      <point x="806" y="1443" type="line" smooth="yes"/>
      <point x="1201" y="1443"/>
      <point x="1372" y="1193"/>
      <point x="1300" y="751" type="curve" smooth="yes"/>
      <point x="1231" y="317"/>
      <point x="943" y="47"/>
      <point x="538" y="47" type="curve" smooth="yes"/>
      <point x="172" y="47" type="line"/>
      <point x="163" y="0" type="line"/>
    </contour>
    <contour>
      <point x="433" y="1489" type="line"/>
      <point x="387" y="1489" type="line"/>
      <point x="140" y="0" type="line"/>
      <point x="186" y="0" type="line"/>
    </contour>
  </outline>
</glyph>
<glyph name="E" format="2">
  <advance height="2479" width="1196"/>
  <unicode hex="0045"/>
  <anchor x="506" y="0" name="bottom"/>
  <anchor x="509" y="0" name="cedilla"/>
  <anchor x="954" y="0" name="ogonek"/>
  <anchor x="335" y="1489" name="tonos"/>
  <anchor x="817" y="1676" name="top"/>
  <outline>
    <contour>
      <point x="140" y="0" type="line"/>
      <point x="954" y="0" type="line"/>
      <point x="963" y="47" type="line"/>
      <point x="195" y="47" type="line"/>
      <point x="305" y="721" type="line"/>
      <point x="1009" y="721" type="line"/>
      <point x="1018" y="768" type="line"/>
      <point x="314" y="768" type="line"/>
      <point x="425" y="1443" type="line"/>
      <point x="1172" y="1443" type="line"/>
      <point x="1181" y="1489" type="line"/>
      <point x="387" y="1489" type="line"/>
    </contour>
  </outline>
</glyph>
<glyph name="H" format="2">
  <advance height="2479" width="1507"/>
  <unicode hex="0048"/>
  <anchor x="660" y="0" name="bottom"/>
  <anchor x="161" y="-6" name="cedilla"/>
  <anchor x="1203" y="6" name="cyrtic"/>
  <anchor x="1181" y="0" name="right"/>
  <anchor x="352" y="1489" name="tonos"/>
  <anchor x="940" y="1676" name="top"/>
  <outline>
    <contour>
      <point x="140" y="0" type="line"/>
      <point x="186" y="0" type="line"/>
      <point x="305" y="721" type="line"/>
      <point x="1254" y="721" type="line"/>
      <point x="1135" y="0" type="line"/>
      <point x="1181" y="0" type="line"/>
      <point x="1428" y="1489" type="line"/>
      <point x="1382" y="1489" type="line"/>
      <point x="1263" y="768" type="line"/>
      <point x="314" y="768" type="line"/>
      <point x="433" y="1489" type="line"/>
      <point x="387" y="1489" type="line"/>
    </contour>
  </outline>
</glyph>
<glyph name="I" format="2">
  <advance height="2479" width="512"/>
  <unicode hex="0049"/>
  <anchor x="163" y="0" name="bottom"/>
  <anchor x="291" y="768" name="cross"/>
  <anchor x="186" y="0" name="ogonek"/>
  <anchor x="195" y="0" name="right"/>
  <anchor x="387" y="1489" name="tonos"/>
  <anchor x="442" y="1676" name="top"/>
  <outline>
    <contour>
      <point x="433" y="1489" type="line"/>
      <point x="387" y="1489" type="line"/>
      <point x="140" y="0" type="line"/>
      <point x="186" y="0" type="line"/>
    </contour>
  </outline>
</glyph>
<glyph name="L" format="2">
  <advance height="2479" width="1152"/>
  <unicode hex="004C"/>
  <anchor x="535" y="0" name="bottom"/>
  <anchor x="291" y="768" name="cross"/>
  <anchor x="637" y="748" name="dot"/>
  <anchor x="780" y="1489" name="raccent"/>
  <anchor x="442" y="1676" name="top"/>
  <outline>
    <contour>
      <point x="140" y="0" type="line"/>
      <point x="931" y="0" type="line"/>
      <point x="940" y="47" type="line"/>
      <point x="195" y="47" type="line"/>
      <point x="433" y="1489" type="line"/>
      <point x="387" y="1489" type="line"/>
    </contour>
  </outline>
</glyph>
<glyph name="M" format="2">
  <advance height="2479" width="1769"/>
  <unicode hex="004D"/>
  <anchor x="791" y="0" name="bottom"/>
  <anchor x="1443" y="0" name="right"/>
  <anchor x="1071" y="1676" name="top"/>
  <outline>
    <contour>
      <point x="387" y="1489" type="line"/>
      <point x="140" y="0" type="line"/>
      <point x="186" y="0" type="line"/>
      <point x="410" y="1344" type="line"/>
      <point x="416" y="1344" type="line"/>
      <point x="768" y="0" type="line"/>
      <point x="815" y="0" type="line"/>
      <point x="1615" y="1344" type="line"/>
      <point x="1620" y="1344" type="line"/>
      <point x="1396" y="0" type="line"/>
      <point x="1443" y="0" type="line"/>
      <point x="1690" y="1489" type="line"/>
      <point x="1649" y="1489" type="line"/>
      <point x="806" y="70" type="line"/>
      <point x="800" y="70" type="line"/>
      <point x="428" y="1489" type="line"/>
    </contour>
  </outline>
</glyph>
<glyph name="N" format="2">
  <advance height="2479" width="1583"/>
  <unicode hex="004E"/>
  <anchor x="698" y="0" name="bottom"/>
  <anchor x="1207" y="0" name="right"/>
  <anchor x="977" y="1676" name="top"/>
  <outline>
    <contour>
      <point x="1504" y="1489" type="line"/>
      <point x="1457" y="1489" type="line"/>
      <point x="1225" y="87" type="line"/>
      <point x="1219" y="87" type="line"/>
      <point x="433" y="1489" type="line"/>
      <point x="387" y="1489" type="line"/>
      <point x="140" y="0" type="line"/>
      <point x="186" y="0" type="line"/>
      <point x="419" y="1402" type="line"/>
      <point x="425" y="1402" type="line"/>
      <point x="1210" y="0" type="line"/>
      <point x="1257" y="0" type="line"/>
    </contour>
  </outline>
</glyph>
<glyph name="P" format="2">
  <advance height="2479" width="1242"/>
  <unicode hex="0050"/>
  <anchor x="343" y="1489" name="tonos"/>
  <anchor x="823" y="1676" name="top"/>
  <outline>
    <contour>
      <point x="140" y="0" type="line"/>
      <point x="186" y="0" type="line"/>
      <point x="425" y="1443" type="line"/>
      <point x="815" y="1443" type="line" smooth="yes"/>
      <point x="1039" y="1443"/>
      <point x="1169" y="1283"/>
      <point x="1132" y="1053" type="curve" smooth="yes"/>
      <point x="1094" y="826"/>
      <point x="911" y="666"/>
      <point x="687" y="666" type="curve" smooth="yes"/>
      <point x="273" y="666" type="line"/>
      <point x="265" y="620" type="line"/>
      <point x="678" y="620" type="line" smooth="yes"/>
      <point x="928" y="620"/>
      <point x="1137" y="800"/>
      <point x="1178" y="1053" type="curve" smooth="yes"/>
      <point x="1222" y="1309"/>
      <point x="1073" y="1489"/>
      <point x="823" y="1489" type="curve" smooth="yes"/>
      <point x="387" y="1489" type="line"/>
    </contour>
  </outline>
</glyph>
<glyph name="Q" format="2">
  <advance height="2479" width="1540"/>
  <unicode hex="0051"/>
  <anchor x="672" y="0" name="bottom"/>
  <anchor x="710" y="0" name="ogonek"/>
  <anchor x="372" y="1489" name="tonos"/>
  <anchor x="945" y="1676" name="top"/>
  <outline>
    <contour>
      <point x="759" y="465" type="line"/>
      <point x="1018" y="122" type="line"/>
      <point x="1027" y="111" type="line"/>
      <point x="1216" y="-140" type="line"/>
      <point x="1274" y="-140" type="line"/>
      <point x="1068" y="134" type="line"/>
      <point x="1059" y="145" type="line"/>
      <point x="817" y="465" type="line"/>
    </contour>
    <component base="O"/>
  </outline>
</glyph>
<glyph name="T" format="2">
  <advance height="2479" width="1257"/>
  <unicode hex="0054"/>
  <anchor x="535" y="0" name="bottom"/>
  <anchor x="534" y="-6" name="cedilla"/>
  <anchor x="663" y="768" name="cross"/>
  <anchor x="580" y="6" name="cyrtic"/>
  <anchor x="547" y="0" name="right"/>
  <anchor x="815" y="1676" name="top"/>
  <outline>
    <contour>
      <point x="271" y="1443" type="line"/>
      <point x="751" y="1443" type="line"/>
      <point x="512" y="0" type="line"/>
      <point x="559" y="0" type="line"/>
      <point x="797" y="1443" type="line"/>
      <point x="1277" y="1443" type="line"/>
      <point x="1286" y="1489" type="line"/>
      <point x="279" y="1489" type="line"/>
    </contour>
  </outline>
</glyph>
<glyph name="U" format="2">
  <advance height="2479" width="1536"/>
  <unicode hex="0055"/>
  <anchor x="671" y="-23" name="bottom"/>
  <anchor x="738" y="0" name="ogonek"/>
  <anchor x="738" y="0" name="right"/>
  <anchor x="953" y="1676" name="top"/>
  <outline>
    <contour>
      <point x="1410" y="1489" type="line"/>
      <point x="1247" y="503" type="line" smooth="yes"/>
      <point x="1201" y="228"/>
      <point x="952" y="23"/>
      <point x="671" y="23" type="curve" smooth="yes"/>
      <point x="391" y="23"/>
      <point x="224" y="228"/>
      <point x="270" y="503" type="curve" smooth="yes"/>
      <point x="433" y="1489" type="line"/>
      <point x="386" y="1489" type="line"/>
      <point x="223" y="503" type="line" smooth="yes"/>
      <point x="174" y="202"/>
      <point x="368" y="-23"/>
      <point x="671" y="-23" type="curve" smooth="yes"/>
      <point x="979" y="-23"/>
      <point x="1244" y="201"/>
      <point x="1294" y="503" type="curve" smooth="yes"/>
      <point x="1457" y="1489" type="line"/>
    </contour>
  </outline>
</glyph>
<glyph name="V" format="2">
  <advance height="2479" width="1263"/>
  <unicode hex="0056"/>
  <anchor x="537" y="0" name="bottom"/>
  <anchor x="814" y="1676" name="top"/>
  <outline>
    <contour>
      <point x="270" y="1489" type="line"/>
      <point x="220" y="1489" type="line"/>
      <point x="505" y="0" type="line"/>
      <point x="569" y="0" type="line"/>
      <point x="1349" y="1489" type="line"/>
      <point x="1300" y="1489" type="line"/>
      <point x="549" y="58" type="line"/>
      <point x="543" y="58" type="line"/>
    </contour>
  </outline>
</glyph>
<glyph name="Z" format="2">
  <advance height="2479" width="1239"/>
  <unicode hex="005A"/>
  <anchor x="527" y="0" name="bottom"/>
  <anchor x="652" y="745" name="cross"/>
  <anchor x="806" y="1676" name="top"/>
  <outline>
    <contour>
      <point x="61" y="0" type="line"/>
      <point x="998" y="0" type="line"/>
      <point x="1007" y="47" type="line"/>
      <point x="128" y="47" type="line"/>
      <point x="1233" y="1443" type="line"/>
      <point x="1239" y="1489" type="line"/>
      <point x="314" y="1489" type="line"/>
      <point x="308" y="1443" type="line"/>
      <point x="1172" y="1443" type="line"/>
      <point x="70" y="47" type="line"/>
    </contour>
  </outline>
</glyph>
<glyph name="bracketleft" format="2">
  <advance height="2479" width="646"/>
  <unicode hex="005B"/>
  <outline>
    <contour>
      <point x="113" y="-303" type="line"/>
      <point x="369" y="-303" type="line"/>
      <point x="378" y="-256" type="line"/>
      <point x="169" y="-256" type="line"/>
      <point x="460" y="1513" type="line"/>
      <point x="669" y="1513" type="line"/>
      <point x="678" y="1559" type="line"/>
      <point x="422" y="1559" type="line"/>
    </contour>
  </outline>
</glyph>
<glyph name="backslash" format="2">
  <advance height="2479" width="660"/>
  <unicode hex="005C"/>
  <outline>
    <contour>
      <point x="417" y="-224" type="line"/>
      <point x="464" y="-224" type="line"/>
      <point x="279" y="1559" type="line"/>
      <point x="232" y="1559" type="line"/>
    </contour>
  </outline>
</glyph>
<glyph name="grave" format="2">
  <advance height="2479" width="1018"/>
  <unicode hex="0060"/>
  <anchor x="727" y="1303" name="_top"/>
  <anchor x="788" y="1676" name="top"/>
  <outline>
    <contour>
      <point x="704" y="1280" type="line"/>
      <point x="748" y="1280" type="line"/>
      <point x="596" y="1594" type="line"/>
      <point x="541" y="1594" type="line"/>
    </contour>
  </outline>
</glyph>
<glyph name="b" format="2">
  <advance height="2479" width="1225"/>
  <unicode hex="0062"/>
  <anchor x="570" y="0" name="bottom"/>
  <anchor x="375" y="1280" name="cross"/>
  <anchor x="785" y="1303" name="top"/>
  <outline>
    <contour>
      <point x="140" y="0" type="line"/>
      <point x="186" y="0" type="line"/>
      <point x="233" y="279" type="line"/>
      <point x="239" y="279" type="line"/>
      <point x="268" y="93"/>
      <point x="387" y="-23"/>
      <point x="567" y="-23" type="curve" smooth="yes"/>
      <point x="832" y="-23"/>
      <point x="1039" y="227"/>
      <point x="1094" y="556" type="curve" smooth="yes"/>
      <point x="1149" y="884"/>
      <point x="1021" y="1135"/>
      <point x="759" y="1135" type="curve" smooth="yes"/>
      <point x="582" y="1135"/>
      <point x="419" y="1018"/>
      <point x="332" y="832" type="curve"/>
      <point x="326" y="832" type="line"/>
      <point x="433" y="1489" type="line"/>
      <point x="387" y="1489" type="line"/>
    </contour>
    <contour>
      <point x="279" y="556" type="curve" smooth="yes"/>
      <point x="329" y="858"/>
      <point x="524" y="1088"/>
      <point x="759" y="1088" type="curve" smooth="yes"/>
      <point x="995" y="1088"/>
      <point x="1097" y="858"/>
      <point x="1047" y="556" type="curve" smooth="yes"/>
      <point x="998" y="253"/>
      <point x="803" y="23"/>
      <point x="567" y="23" type="curve" smooth="yes"/>
      <point x="329" y="23"/>
      <point x="230" y="253"/>
    </contour>
  </outline>
</glyph>
<glyph name="c" format="2">
  <advance height="2479" width="1132"/>
  <unicode hex="0063"/>
  <anchor x="495" y="0" name="cedilla"/>
  <anchor x="710" y="1303" name="top"/>
  <outline>
    <contour>
      <point x="504" y="-23" type="curve" smooth="yes"/>
      <point x="707" y="-23"/>
      <point x="895" y="112"/>
      <point x="963" y="326" type="curve"/>
      <point x="914" y="326" type="line"/>
      <point x="857" y="145"/>
      <point x="685" y="23"/>
      <point x="504" y="23" type="curve" smooth="yes"/>
      <point x="254" y="23"/>
      <point x="129" y="258"/>
      <point x="178" y="556" type="curve" smooth="yes"/>
      <point x="229" y="862"/>
      <point x="449" y="1088"/>
      <point x="696" y="1088" type="curve" smooth="yes"/>
      <point x="871" y="1088"/>
      <point x="987" y="973"/>
      <point x="987" y="791" type="curve"/>
      <point x="1036" y="791" type="line"/>
      <point x="1036" y="995"/>
      <point x="899" y="1135"/>
      <point x="696" y="1135" type="curve" smooth="yes"/>
      <point x="425" y="1135"/>
      <point x="185" y="885"/>
      <point x="131" y="556" type="curve" smooth="yes"/>
      <point x="78" y="228"/>
      <point x="228" y="-23"/>
    </contour>
  </outline>
</glyph>
<glyph name="d" format="2">
  <advance height="2479" width="1227"/>
  <unicode hex="0064"/>
  <anchor x="505" y="0" name="bottom"/>
  <anchor x="1090" y="1280" name="cross"/>
  <anchor x="1279" y="1489" name="raccent"/>
  <anchor x="728" y="1489" name="top"/>
  <outline>
    <contour>
      <point x="467" y="-23" type="curve" smooth="yes"/>
      <point x="646" y="-23"/>
      <point x="803" y="95"/>
      <point x="895" y="279" type="curve"/>
      <point x="901" y="279" type="line"/>
      <point x="854" y="0" type="line"/>
      <point x="901" y="0" type="line"/>
      <point x="1148" y="1489" type="line"/>
      <point x="1102" y="1489" type="line"/>
      <point x="993" y="832" type="line"/>
      <point x="987" y="832" type="line"/>
      <point x="959" y="1018"/>
      <point x="836" y="1135"/>
      <point x="658" y="1135" type="curve" smooth="yes"/>
      <point x="397" y="1135"/>
      <point x="187" y="884"/>
      <point x="131" y="556" type="curve" smooth="yes"/>
      <point x="78" y="225"/>
      <point x="202" y="-23"/>
    </contour>
    <contour>
      <point x="467" y="23" type="curve" smooth="yes"/>
      <point x="230" y="23"/>
      <point x="129" y="253"/>
      <point x="178" y="556" type="curve" smooth="yes"/>
      <point x="229" y="858"/>
      <point x="422" y="1088"/>
      <point x="658" y="1088" type="curve" smooth="yes"/>
      <point x="894" y="1088"/>
      <point x="997" y="858"/>
      <point x="946" y="556" type="curve" smooth="yes"/>
      <point x="897" y="253"/>
      <point x="705" y="23"/>
    </contour>
  </outline>
</glyph>
<glyph name="e" format="2">
  <advance height="2479" width="1182"/>
  <unicode hex="0065"/>
  <anchor x="498" y="0" name="bottom"/>
  <anchor x="501" y="0" name="cedilla"/>
  <anchor x="550" y="0" name="ogonek"/>
  <anchor x="713" y="1303" name="top"/>
  <outline>
    <contour>
      <point x="521" y="-23" type="curve" smooth="yes"/>
      <point x="739" y="-23"/>
      <point x="882" y="113"/>
      <point x="943" y="198" type="curve"/>
      <point x="911" y="224" type="line"/>
      <point x="859" y="157"/>
      <point x="728" y="23"/>
      <point x="524" y="23" type="curve" smooth="yes"/>
      <point x="242" y="23"/>
      <point x="129" y="271"/>
      <point x="178" y="564" type="curve"/>
      <point x="181" y="567" type="line"/>
      <point x="236" y="864"/>
      <point x="460" y="1088"/>
      <point x="690" y="1088" type="curve" smooth="yes"/>
      <point x="917" y="1088"/>
      <point x="1057" y="873"/>
      <point x="1013" y="605" type="curve"/>
      <point x="163" y="605" type="line"/>
      <point x="155" y="559" type="line"/>
      <point x="1051" y="559" type="line"/>
      <point x="1059" y="605" type="line" smooth="yes"/>
      <point x="1106" y="893"/>
      <point x="949" y="1135"/>
      <point x="690" y="1135" type="curve" smooth="yes"/>
      <point x="425" y="1135"/>
      <point x="187" y="884"/>
      <point x="131" y="556" type="curve" smooth="yes"/>
      <point x="76" y="227"/>
      <point x="227" y="-23"/>
    </contour>
  </outline>
</glyph>
<glyph name="g" format="2">
  <advance height="2479" width="1197"/>
  <unicode hex="0067"/>
  <anchor x="396" y="-436" name="bottom"/>
  <anchor x="969" y="559" name="cross"/>
  <anchor x="719" y="1303" name="top"/>
  <outline>
    <contour>
      <point x="414" y="-442" type="curve" smooth="yes"/>
      <point x="673" y="-442"/>
      <point x="850" y="-300"/>
      <point x="897" y="-23" type="curve" smooth="yes"/>
      <point x="1086" y="1117" type="line"/>
      <point x="1039" y="1117" type="line"/>
      <point x="993" y="832" type="line"/>
      <point x="987" y="832" type="line"/>
      <point x="955" y="1018"/>
      <point x="838" y="1135"/>
      <point x="658" y="1135" type="curve" smooth="yes"/>
      <point x="393" y="1135"/>
      <point x="187" y="887"/>
      <point x="131" y="556" type="curve" smooth="yes"/>
      <point x="76" y="227"/>
      <point x="207" y="0"/>
      <point x="469" y="0" type="curve" smooth="yes"/>
      <point x="635" y="0"/>
      <point x="806" y="93"/>
      <point x="894" y="279" type="curve"/>
      <point x="899" y="279" type="line"/>
      <point x="850" y="-23" type="line" smooth="yes"/>
      <point x="809" y="-273"/>
      <point x="646" y="-396"/>
      <point x="414" y="-396" type="curve" smooth="yes"/>
      <point x="245" y="-396"/>
      <point x="126" y="-335"/>
      <point x="97" y="-204" type="curve"/>
      <point x="53" y="-218" type="line"/>
      <point x="85" y="-367"/>
      <point x="227" y="-442"/>
    </contour>
    <contour>
      <point x="469" y="47" type="curve" smooth="yes"/>
      <point x="233" y="47"/>
      <point x="129" y="253"/>
      <point x="178" y="556" type="curve" smooth="yes"/>
      <point x="227" y="858"/>
      <point x="419" y="1088"/>
      <point x="655" y="1088" type="curve" smooth="yes"/>
      <point x="894" y="1088"/>
      <point x="995" y="858"/>
      <point x="946" y="556" type="curve" smooth="yes"/>
      <point x="894" y="241"/>
      <point x="702" y="47"/>
    </contour>
  </outline>
</glyph>
<glyph name="q" format="2">
  <advance height="2479" width="1191"/>
  <unicode hex="0071"/>
  <anchor x="808" y="-419" name="bottom"/>
  <anchor x="850" y="-163" name="cross"/>
  <anchor x="686" y="1303" name="top"/>
  <outline>
    <contour>
      <point x="785" y="-419" type="line"/>
      <point x="831" y="-419" type="line"/>
      <point x="1086" y="1117" type="line"/>
      <point x="1039" y="1117" type="line"/>
      <point x="991" y="832" type="line"/>
      <point x="985" y="832" type="line"/>
      <point x="955" y="1017"/>
      <point x="837" y="1135"/>
      <point x="658" y="1135" type="curve" smooth="yes"/>
      <point x="393" y="1135"/>
      <point x="185" y="886"/>
      <point x="131" y="556" type="curve" smooth="yes"/>
      <point x="77" y="227"/>
      <point x="204" y="-23"/>
      <point x="466" y="-23" type="curve" smooth="yes"/>
      <point x="643" y="-23"/>
      <point x="805" y="93"/>
      <point x="894" y="279" type="curve"/>
      <point x="899" y="279" type="line"/>
    </contour>
    <contour>
      <point x="473" y="23" type="curve" smooth="yes"/>
      <point x="238" y="23"/>
      <point x="127" y="253"/>
      <point x="178" y="556" type="curve" smooth="yes"/>
      <point x="227" y="858"/>
      <point x="413" y="1088"/>
      <point x="649" y="1088" type="curve" smooth="yes"/>
      <point x="887" y="1088"/>
      <point x="995" y="858"/>
      <point x="946" y="556" type="curve" smooth="yes"/>
      <point x="895" y="253"/>
      <point x="709" y="23"/>
    </contour>
  </outline>
</glyph>
<glyph name="t" format="2">
  <advance height="2479" width="713"/>
  <unicode hex="0074"/>
  <anchor x="623" y="1562" name="raccent"/>
  <anchor x="343" y="0" name="bottom"/>
  <anchor x="367" y="0" name="cedilla"/>
  <anchor x="445" y="1489" name="top"/>
  <outline>
    <contour>
      <point x="640" y="1117" type="line"/>
      <point x="198" y="1117" type="line"/>
      <point x="189" y="1071" type="line"/>
      <point x="631" y="1071" type="line"/>
    </contour>
    <component base="_part.t_base"/>
  </outline>
</glyph>
<glyph name="u" format="2">
  <advance height="2479" width="1209"/>
  <unicode hex="0075"/>
  <anchor x="488" y="0" name="bottom"/>
  <anchor x="872" y="0" name="ogonek"/>
  <anchor x="703" y="1303" name="top"/>
  <outline>
    <contour>
      <point x="887" y="367" type="line" smooth="yes"/>
      <point x="855" y="172"/>
      <point x="689" y="32"/>
      <point x="491" y="32" type="curve" smooth="yes"/>
      <point x="293" y="32"/>
      <point x="180" y="169"/>
      <point x="212" y="367" type="curve" smooth="yes"/>
      <point x="337" y="1117" type="line"/>
      <point x="290" y="1117" type="line"/>
      <point x="165" y="367" type="line" smooth="yes"/>
      <point x="127" y="143"/>
      <point x="258" y="-15"/>
      <point x="482" y="-15" type="curve" smooth="yes"/>
      <point x="636" y="-15"/>
      <point x="779" y="61"/>
      <point x="849" y="177" type="curve"/>
      <point x="855" y="177" type="line"/>
      <point x="825" y="0" type="line"/>
      <point x="872" y="0" type="line"/>
      <point x="1058" y="1117" type="line"/>
      <point x="1012" y="1117" type="line"/>
    </contour>
  </outline>
</glyph>
<glyph name="w" format="2">
  <advance height="2479" width="1617"/>
  <unicode hex="0077"/>
  <anchor x="716" y="0" name="bottom"/>
  <anchor x="931" y="1303" name="top"/>
  <outline>
    <contour>
      <point x="343" y="0" type="line"/>
      <point x="407" y="0" type="line"/>
      <point x="881" y="1027" type="line"/>
      <point x="887" y="1027" type="line"/>
      <point x="1024" y="0" type="line"/>
      <point x="1088" y="0" type="line"/>
      <point x="1606" y="1117" type="line"/>
      <point x="1553" y="1117" type="line"/>
      <point x="1068" y="64" type="line"/>
      <point x="1062" y="64" type="line"/>
      <point x="922" y="1117" type="line"/>
      <point x="876" y="1117" type="line"/>
      <point x="387" y="64" type="line"/>
      <point x="381" y="64" type="line"/>
      <point x="244" y="1117" type="line"/>
      <point x="198" y="1117" type="line"/>
    </contour>
  </outline>
</glyph>
<glyph name="y" format="2">
  <advance height="2479" width="1071"/>
  <unicode hex="0079"/>
  <anchor x="633" y="-86" name="bottom"/>
  <anchor x="415" y="-419" name="ogonek"/>
  <anchor x="659" y="1303" name="top"/>
  <outline>
    <contour>
      <point x="86" y="-419" type="curve" smooth="yes"/>
      <point x="191" y="-419"/>
      <point x="294" y="-345"/>
      <point x="368" y="-204" type="curve" smooth="yes"/>
      <point x="1059" y="1117" type="line"/>
      <point x="1007" y="1117" type="line"/>
      <point x="452" y="58" type="line"/>
      <point x="447" y="58" type="line"/>
      <point x="244" y="1117" type="line"/>
      <point x="198" y="1117" type="line"/>
      <point x="413" y="-17" type="line"/>
      <point x="326" y="-183" type="line" smooth="yes"/>
      <point x="239" y="-348"/>
      <point x="118" y="-412"/>
      <point x="-10" y="-349" type="curve"/>
      <point x="-33" y="-390" type="line"/>
      <point x="7" y="-409"/>
      <point x="48" y="-419"/>
    </contour>
  </outline>
</glyph>
<glyph name="bar" format="2">
  <advance height="2479" width="559"/>
  <unicode hex="007C"/>
  <outline>
    <contour>
      <point x="537" y="1969" type="line"/>
      <point x="490" y="1969" type="line"/>
      <point x="84" y="-480" type="line"/>
      <point x="131" y="-480" type="line"/>
    </contour>
  </outline>
</glyph>
<glyph name="asciitilde" format="2">
  <advance height="2479" width="1303"/>
  <unicode hex="007E"/>
  <outline>
    <contour>
      <point x="180" y="489" type="curve"/>
      <point x="227" y="483" type="line"/>
      <point x="256" y="576"/>
      <point x="352" y="643"/>
      <point x="468" y="643" type="curve" smooth="yes"/>
      <point x="556" y="643"/>
      <point x="605" y="608"/>
      <point x="657" y="567" type="curve" smooth="yes"/>
      <point x="707" y="529"/>
      <point x="762" y="483"/>
      <point x="849" y="483" type="curve" smooth="yes"/>
      <point x="980" y="483"/>
      <point x="1082" y="553"/>
      <point x="1132" y="675" type="curve"/>
      <point x="1088" y="687" type="line"/>
      <point x="1047" y="593"/>
      <point x="957" y="529"/>
      <point x="855" y="529" type="curve" smooth="yes"/>
      <point x="785" y="529"/>
      <point x="742" y="564"/>
      <point x="689" y="602" type="curve" smooth="yes"/>
      <point x="636" y="641"/>
      <point x="576" y="689"/>
      <point x="474" y="689" type="curve" smooth="yes"/>
      <point x="329" y="689"/>
      <point x="220" y="615"/>
    </contour>
  </outline>
</glyph>
<glyph name="sterling" format="2">
  <advance height="2479" width="1292"/>
  <unicode hex="00A3"/>
  <outline>
    <contour>
      <point x="977" y="0" type="line"/>
      <point x="986" y="47" type="line"/>
      <point x="79" y="47" type="line"/>
      <point x="70" y="0" type="line"/>
    </contour>
    <contour>
      <point x="800" y="620" type="line"/>
      <point x="809" y="666" type="line"/>
      <point x="180" y="666" type="line"/>
      <point x="172" y="620" type="line"/>
    </contour>
    <contour>
      <point x="497" y="1097" type="line" smooth="yes"/>
      <point x="527" y="1315"/>
      <point x="689" y="1463"/>
      <point x="893" y="1463" type="curve" smooth="yes"/>
      <point x="1091" y="1463"/>
      <point x="1210" y="1321"/>
      <point x="1149" y="1155" type="curve"/>
      <point x="1193" y="1143" type="line"/>
      <point x="1265" y="1341"/>
      <point x="1126" y="1510"/>
      <point x="902" y="1510" type="curve" smooth="yes"/>
      <point x="669" y="1510"/>
      <point x="483" y="1341"/>
      <point x="451" y="1097" type="curve" smooth="yes"/>
      <point x="337" y="291" type="line" smooth="yes"/>
      <point x="317" y="157"/>
      <point x="259" y="47"/>
      <point x="154" y="47" type="curve"/>
      <point x="163" y="3" type="line"/>
      <point x="291" y="17"/>
      <point x="361" y="131"/>
      <point x="384" y="291" type="curve" smooth="yes"/>
    </contour>
  </outline>
</glyph>
<glyph name="currency" format="2">
  <advance height="2479" width="1395"/>
  <unicode hex="00A4"/>
  <outline>
    <contour>
      <point x="601" y="-20" type="curve" smooth="yes"/>
      <point x="927" y="-20"/>
      <point x="1221" y="250"/>
      <point x="1280" y="608" type="curve" smooth="yes"/>
      <point x="1337" y="961"/>
      <point x="1130" y="1233"/>
      <point x="800" y="1233" type="curve" smooth="yes"/>
      <point x="473" y="1233"/>
      <point x="183" y="970"/>
      <point x="122" y="608" type="curve" smooth="yes"/>
      <point x="64" y="259"/>
      <point x="276" y="-20"/>
    </contour>
    <contour>
      <point x="601" y="26" type="curve" smooth="yes"/>
      <point x="303" y="26"/>
      <point x="114" y="276"/>
      <point x="169" y="608" type="curve" smooth="yes"/>
      <point x="223" y="938"/>
      <point x="499" y="1187"/>
      <point x="799" y="1187" type="curve" smooth="yes"/>
      <point x="1099" y="1187"/>
      <point x="1290" y="942"/>
      <point x="1233" y="608" type="curve" smooth="yes"/>
      <point x="1178" y="283"/>
      <point x="902" y="26"/>
    </contour>
    <contour>
      <point x="1183" y="1001" type="line"/>
      <point x="1388" y="1181" type="line"/>
      <point x="1360" y="1219" type="line"/>
      <point x="1155" y="1039" type="line"/>
    </contour>
    <contour>
      <point x="1159" y="0" type="line"/>
      <point x="1193" y="32" type="line"/>
      <point x="1047" y="212" type="line"/>
      <point x="1014" y="180" type="line"/>
    </contour>
    <contour>
      <point x="41" y="0" type="line"/>
      <point x="244" y="180" type="line"/>
      <point x="217" y="217" type="line"/>
      <point x="13" y="36" type="line"/>
    </contour>
    <contour>
      <point x="352" y="1004" type="line"/>
      <point x="385" y="1036" type="line"/>
      <point x="241" y="1216" type="line"/>
      <point x="208" y="1184" type="line"/>
    </contour>
  </outline>
</glyph>
<glyph name="brokenbar" format="2">
  <advance height="2479" width="382"/>
  <unicode hex="00A6"/>
  <outline>
    <contour>
      <point x="141" y="387" type="line"/>
      <point x="28" y="-279" type="line"/>
      <point x="74" y="-279" type="line"/>
      <point x="188" y="387" type="line"/>
    </contour>
    <contour>
      <point x="368" y="1489" type="line"/>
      <point x="321" y="1489" type="line"/>
      <point x="211" y="826" type="line"/>
      <point x="257" y="826" type="line"/>
    </contour>
  </outline>
</glyph>
<glyph name="dieresis" format="2">
  <advance height="2479" width="1350"/>
  <unicode hex="00A8"/>
  <anchor x="797" y="1303" name="_top"/>
  <anchor x="861" y="1676" name="top"/>
  <outline>
    <contour>
      <point x="666" y="1321" type="curve" smooth="yes"/>
      <point x="689" y="1321"/>
      <point x="713" y="1341"/>
      <point x="716" y="1361" type="curve" smooth="yes"/>
      <point x="720" y="1391"/>
      <point x="701" y="1414"/>
      <point x="672" y="1414" type="curve" smooth="yes"/>
      <point x="649" y="1414"/>
      <point x="627" y="1394"/>
      <point x="623" y="1373" type="curve" smooth="yes"/>
      <point x="617" y="1344"/>
      <point x="637" y="1321"/>
    </contour>
    <contour>
      <point x="945" y="1321" type="curve" smooth="yes"/>
      <point x="969" y="1321"/>
      <point x="989" y="1338"/>
      <point x="995" y="1361" type="curve" smooth="yes"/>
      <point x="1002" y="1390"/>
      <point x="980" y="1414"/>
      <point x="951" y="1414" type="curve" smooth="yes"/>
      <point x="928" y="1414"/>
      <point x="906" y="1393"/>
      <point x="902" y="1373" type="curve" smooth="yes"/>
      <point x="896" y="1347"/>
      <point x="916" y="1321"/>
    </contour>
  </outline>
</glyph>
<glyph name="copyright" format="2">
  <advance height="2479" width="1873"/>
  <unicode hex="00A9"/>
  <outline>
    <contour>
      <point x="556" y="745" type="curve" smooth="yes"/>
      <point x="516" y="506"/>
      <point x="678" y="313"/>
      <point x="916" y="313" type="curve" smooth="yes"/>
      <point x="1088" y="313"/>
      <point x="1238" y="413"/>
      <point x="1318" y="559" type="curve"/>
      <point x="1265" y="559" type="line"/>
      <point x="1194" y="439"/>
      <point x="1059" y="359"/>
      <point x="913" y="359" type="curve" smooth="yes"/>
      <point x="701" y="359"/>
      <point x="567" y="532"/>
      <point x="602" y="745" type="curve" smooth="yes"/>
      <point x="639" y="959"/>
      <point x="847" y="1130"/>
      <point x="1059" y="1130" type="curve" smooth="yes"/>
      <point x="1204" y="1130"/>
      <point x="1296" y="1050"/>
      <point x="1327" y="931" type="curve"/>
      <point x="1379" y="931" type="line"/>
      <point x="1348" y="1076"/>
      <point x="1231" y="1177"/>
      <point x="1059" y="1177" type="curve" smooth="yes"/>
      <point x="820" y="1177"/>
      <point x="595" y="983"/>
    </contour>
    <component base="whiteCircle"/>
  </outline>
</glyph>
<glyph name="logicalnot" format="2">
  <advance height="2479" width="1023"/>
  <unicode hex="00AC"/>
  <outline>
    <contour>
      <point x="963" y="806" type="line"/>
      <point x="151" y="806" type="line"/>
      <point x="143" y="759" type="line"/>
      <point x="954" y="759" type="line"/>
    </contour>
    <contour>
      <point x="959" y="785" type="line"/>
      <point x="912" y="785" type="line"/>
      <point x="844" y="375" type="line"/>
      <point x="890" y="375" type="line"/>
    </contour>
  </outline>
</glyph>
<glyph name="registered" format="2">
  <advance height="2479" width="1373"/>
  <unicode hex="00AE"/>
  <outline>
    <contour>
      <point x="516" y="666" type="line"/>
      <point x="563" y="666" type="line"/>
      <point x="644" y="1156" type="line"/>
      <point x="826" y="1156" type="line" smooth="yes"/>
      <point x="910" y="1156"/>
      <point x="945" y="1114"/>
      <point x="934" y="1043" type="curve" smooth="yes"/>
      <point x="923" y="972"/>
      <point x="872" y="927"/>
      <point x="788" y="927" type="curve" smooth="yes"/>
      <point x="585" y="927" type="line"/>
      <point x="577" y="880" type="line"/>
      <point x="783" y="880" type="line" smooth="yes"/>
      <point x="892" y="880"/>
      <point x="965" y="950"/>
      <point x="980" y="1043" type="curve" smooth="yes"/>
      <point x="996" y="1136"/>
      <point x="945" y="1203"/>
      <point x="835" y="1203" type="curve" smooth="yes"/>
      <point x="605" y="1203" type="line"/>
    </contour>
    <contour>
      <point x="848" y="908" type="line"/>
      <point x="797" y="908" type="line"/>
      <point x="886" y="666" type="line"/>
      <point x="940" y="666" type="line"/>
    </contour>
    <contour>
      <point x="748" y="346" type="curve" smooth="yes"/>
      <point x="1068" y="346"/>
      <point x="1329" y="607"/>
      <point x="1329" y="928" type="curve" smooth="yes"/>
      <point x="1330" y="1249"/>
      <point x="1068" y="1510"/>
      <point x="748" y="1510" type="curve" smooth="yes"/>
      <point x="425" y="1510"/>
      <point x="165" y="1249"/>
      <point x="166" y="928" type="curve" smooth="yes"/>
      <point x="167" y="607"/>
      <point x="425" y="346"/>
    </contour>
    <contour>
      <point x="748" y="393" type="curve" smooth="yes"/>
      <point x="451" y="393"/>
      <point x="212" y="632"/>
      <point x="212" y="928" type="curve" smooth="yes"/>
      <point x="213" y="1224"/>
      <point x="451" y="1463"/>
      <point x="748" y="1463" type="curve" smooth="yes"/>
      <point x="1043" y="1463"/>
      <point x="1282" y="1224"/>
      <point x="1283" y="928" type="curve" smooth="yes"/>
      <point x="1284" y="632"/>
      <point x="1043" y="393"/>
    </contour>
  </outline>
</glyph>
<glyph name="macron" format="2">
  <advance height="2479" width="599"/>
  <unicode hex="00AF"/>
  <anchor x="423" y="1303" name="_top"/>
  <outline>
    <contour>
      <point x="671" y="1391" type="line"/>
      <point x="205" y="1391" type="line"/>
      <point x="196" y="1344" type="line"/>
      <point x="662" y="1344" type="line"/>
    </contour>
  </outline>
</glyph>
<glyph name="paragraph" format="2">
  <advance height="2479" width="1138"/>
  <unicode hex="00B6"/>
  <outline>
    <contour>
      <point x="1047" y="1443" type="line"/>
      <point x="1056" y="1489" type="line"/>
      <point x="788" y="1489" type="line" smooth="yes"/>
      <point x="471" y="1489"/>
      <point x="265" y="1289"/>
      <point x="218" y="1021" type="curve" smooth="yes"/>
      <point x="171" y="751"/>
      <point x="317" y="553"/>
      <point x="634" y="553" type="curve" smooth="yes"/>
      <point x="719" y="553" type="line"/>
      <point x="864" y="1443" type="line"/>
    </contour>
    <contour>
      <point x="765" y="0" type="line"/>
      <point x="812" y="0" type="line"/>
      <point x="1059" y="1489" type="line"/>
      <point x="1012" y="1489" type="line"/>
    </contour>
  </outline>
</glyph>
<glyph name="AE" format="2">
  <advance height="2479" width="1964"/>
  <unicode hex="00C6"/>
  <anchor x="1443" y="1676" name="top"/>
  <outline>
    <contour>
      <point x="-26" y="0" type="line"/>
      <point x="29" y="0" type="line"/>
      <point x="1004" y="1443" type="line"/>
      <point x="1146" y="1443" type="line"/>
      <point x="908" y="0" type="line"/>
      <point x="1722" y="0" type="line"/>
      <point x="1731" y="47" type="line"/>
      <point x="963" y="47" type="line"/>
      <point x="1073" y="721" type="line"/>
      <point x="1777" y="721" type="line"/>
      <point x="1786" y="768" type="line"/>
      <point x="1082" y="768" type="line"/>
      <point x="1193" y="1443" type="line"/>
      <point x="1940" y="1443" type="line"/>
      <point x="1949" y="1489" type="line"/>
      <point x="980" y="1489" type="line"/>
    </contour>
    <contour>
      <point x="349" y="503" type="line"/>
      <point x="1018" y="503" type="line"/>
      <point x="1027" y="550" type="line"/>
      <point x="358" y="550" type="line"/>
    </contour>
  </outline>
</glyph>
<glyph name="multiply" format="2">
  <advance height="2479" width="1303"/>
  <unicode hex="00D7"/>
  <outline>
    <contour>
      <point x="980" y="157" type="line"/>
      <point x="1016" y="186" type="line"/>
      <point x="332" y="1007" type="line"/>
      <point x="296" y="977" type="line"/>
    </contour>
    <contour>
      <point x="193" y="154" type="line"/>
      <point x="1150" y="975" type="line"/>
      <point x="1119" y="1009" type="line"/>
      <point x="162" y="189" type="line"/>
    </contour>
  </outline>
</glyph>
<glyph name="ae" format="2">
  <advance height="2479" width="1889"/>
  <unicode hex="00E6"/>
  <anchor x="1068" y="1303" name="top"/>
  <outline>
    <contour>
      <point x="1228" y="-23" type="curve" smooth="yes"/>
      <point x="1446" y="-23"/>
      <point x="1588" y="113"/>
      <point x="1649" y="198" type="curve"/>
      <point x="1617" y="224" type="line"/>
      <point x="1565" y="157"/>
      <point x="1443" y="23"/>
      <point x="1236" y="23" type="curve" smooth="yes"/>
      <point x="954" y="23"/>
      <point x="835" y="268"/>
      <point x="884" y="561" type="curve" smooth="yes"/>
      <point x="884" y="567" type="line" smooth="yes"/>
      <point x="940" y="864"/>
      <point x="1158" y="1088"/>
      <point x="1388" y="1088" type="curve" smooth="yes"/>
      <point x="1615" y="1088"/>
      <point x="1763" y="873"/>
      <point x="1719" y="605" type="curve"/>
      <point x="879" y="605" type="line"/>
      <point x="870" y="559" type="line"/>
      <point x="1757" y="559" type="line"/>
      <point x="1766" y="605" type="line" smooth="yes"/>
      <point x="1812" y="893"/>
      <point x="1655" y="1135"/>
      <point x="1396" y="1135" type="curve" smooth="yes"/>
      <point x="1207" y="1135"/>
      <point x="1033" y="1009"/>
      <point x="928" y="817" type="curve"/>
      <point x="832" y="335" type="line"/>
      <point x="864" y="122"/>
      <point x="1004" y="-23"/>
    </contour>
    <contour>
      <point x="390" y="23" type="curve" smooth="yes"/>
      <point x="224" y="23"/>
      <point x="113" y="134"/>
      <point x="140" y="303" type="curve" smooth="yes"/>
      <point x="166" y="445"/>
      <point x="273" y="535"/>
      <point x="579" y="570" type="curve" smooth="yes"/>
      <point x="707" y="585"/>
      <point x="812" y="605"/>
      <point x="873" y="646" type="curve"/>
      <point x="844" y="477" type="line" smooth="yes"/>
      <point x="800" y="207"/>
      <point x="602" y="23"/>
    </contour>
    <contour>
      <point x="381" y="-23" type="curve" smooth="yes"/>
      <point x="550" y="-23"/>
      <point x="751" y="81"/>
      <point x="861" y="349" type="curve"/>
      <point x="870" y="349" type="line"/>
      <point x="945" y="803" type="line" smooth="yes"/>
      <point x="977" y="992"/>
      <point x="864" y="1135"/>
      <point x="637" y="1135" type="curve" smooth="yes"/>
      <point x="463" y="1135"/>
      <point x="303" y="1047"/>
      <point x="227" y="908" type="curve"/>
      <point x="268" y="890" type="line"/>
      <point x="335" y="1015"/>
      <point x="471" y="1088"/>
      <point x="628" y="1088" type="curve" smooth="yes"/>
      <point x="820" y="1088"/>
      <point x="928" y="975"/>
      <point x="899" y="803" type="curve" smooth="yes"/>
      <point x="887" y="736" type="line" smooth="yes"/>
      <point x="873" y="649"/>
      <point x="724" y="631"/>
      <point x="567" y="614" type="curve" smooth="yes"/>
      <point x="218" y="573"/>
      <point x="119" y="454"/>
      <point x="93" y="303" type="curve" smooth="yes"/>
      <point x="61" y="93"/>
      <point x="198" y="-23"/>
    </contour>
  </outline>
</glyph>
<glyph name="divide" format="2">
  <advance height="2479" width="1303"/>
  <unicode hex="00F7"/>
  <outline>
    <contour>
      <point x="1082" y="605" type="line"/>
      <point x="239" y="605" type="line"/>
      <point x="230" y="559" type="line"/>
      <point x="1073" y="559" type="line"/>
    </contour>
    <contour>
      <point x="599" y="198" type="curve" smooth="yes"/>
      <point x="628" y="198"/>
      <point x="652" y="221"/>
      <point x="652" y="250" type="curve" smooth="yes"/>
      <point x="652" y="279"/>
      <point x="628" y="303"/>
      <point x="599" y="303" type="curve" smooth="yes"/>
      <point x="570" y="303"/>
      <point x="547" y="279"/>
      <point x="547" y="250" type="curve" smooth="yes"/>
      <point x="547" y="221"/>
      <point x="570" y="198"/>
    </contour>
    <contour>
      <point x="710" y="861" type="curve" smooth="yes"/>
      <point x="739" y="861"/>
      <point x="762" y="884"/>
      <point x="762" y="913" type="curve" smooth="yes"/>
      <point x="762" y="943"/>
      <point x="739" y="966"/>
      <point x="710" y="966" type="curve" smooth="yes"/>
      <point x="681" y="966"/>
      <point x="657" y="943"/>
      <point x="657" y="913" type="curve" smooth="yes"/>
      <point x="657" y="884"/>
      <point x="681" y="861"/>
    </contour>
  </outline>
</glyph>
<glyph name="oslash" format="2">
  <advance height="2479" width="1188"/>
  <unicode hex="00F8"/>
  <anchor x="501" y="3" name="bottom"/>
  <anchor x="557" y="3" name="ogonek"/>
  <anchor x="717" y="1306" name="top"/>
  <outline>
    <contour>
      <point x="132" y="-29" type="line"/>
      <point x="1095" y="1120" type="line"/>
      <point x="1057" y="1146" type="line"/>
      <point x="94" y="-3" type="line"/>
    </contour>
    <component base="o" xOffset="1" yOffset="3"/>
  </outline>
</glyph>
<glyph name="idotless" format="2">
  <advance height="2479" width="454"/>
  <unicode hex="0131"/>
  <anchor x="134" y="0" name="bottom"/>
  <anchor x="230" y="582" name="cross"/>
  <anchor x="157" y="0" name="ogonek"/>
  <anchor x="349" y="1303" name="top"/>
  <outline>
    <contour>
      <point x="111" y="0" type="line"/>
      <point x="157" y="0" type="line"/>
      <point x="343" y="1117" type="line"/>
      <point x="297" y="1117" type="line"/>
    </contour>
  </outline>
</glyph>
<glyph name="kgreenlandic" format="2">
  <advance height="2479" width="998"/>
  <unicode hex="0138"/>
  <outline>
    <contour>
      <point x="215" y="451" type="line"/>
      <point x="404" y="611" type="line"/>
      <point x="410" y="617" type="line"/>
      <point x="1004" y="1117" type="line"/>
      <point x="931" y="1117" type="line"/>
      <point x="247" y="538" type="line"/>
      <point x="230" y="538" type="line"/>
    </contour>
    <contour>
      <point x="105" y="0" type="line"/>
      <point x="151" y="0" type="line"/>
      <point x="337" y="1117" type="line"/>
      <point x="291" y="1117" type="line"/>
    </contour>
    <contour>
      <point x="780" y="0" type="line"/>
      <point x="835" y="0" type="line"/>
      <point x="425" y="646" type="line"/>
      <point x="387" y="617" type="line"/>
    </contour>
  </outline>
</glyph>
<glyph name="Lslash" format="2">
  <advance height="2479" width="1105"/>
  <unicode hex="0141"/>
  <anchor x="471" y="0" name="bottom"/>
  <anchor x="227" y="768" name="cross"/>
  <anchor x="573" y="748" name="dot"/>
  <anchor x="716" y="1489" name="raccent"/>
  <anchor x="378" y="1676" name="top"/>
  <outline>
    <contour>
      <point x="512" y="884" type="line"/>
      <point x="23" y="698" type="line"/>
      <point x="35" y="653" type="line"/>
      <point x="521" y="839" type="line"/>
    </contour>
    <component base="L" xOffset="-64"/>
  </outline>
</glyph>
<glyph name="OE" format="2">
  <advance height="2479" width="1885"/>
  <unicode hex="0152"/>
  <anchor x="1195" y="0" name="bottom"/>
  <anchor x="1198" y="0" name="cedilla"/>
  <anchor x="1643" y="0" name="ogonek"/>
  <anchor x="1024" y="1489" name="tonos"/>
  <anchor x="1506" y="1676" name="top"/>
  <outline>
    <contour>
      <point x="669" y="0" type="curve" smooth="yes"/>
      <point x="852" y="0" type="line"/>
      <point x="861" y="47" type="line"/>
      <point x="678" y="47" type="line" smooth="yes"/>
      <point x="328" y="47"/>
      <point x="153" y="324"/>
      <point x="224" y="745" type="curve" smooth="yes"/>
      <point x="295" y="1161"/>
      <point x="572" y="1446"/>
      <point x="908" y="1443" type="curve" smooth="yes"/>
      <point x="1091" y="1443" type="line"/>
      <point x="1100" y="1489" type="line"/>
      <point x="916" y="1489" type="line" smooth="yes"/>
      <point x="544" y="1489"/>
      <point x="252" y="1194"/>
      <point x="177" y="745" type="curve" smooth="yes"/>
      <point x="105" y="303"/>
      <point x="303" y="0"/>
    </contour>
    <component base="E" xOffset="689"/>
  </outline>
</glyph>
<glyph name="tbar" format="2">
  <advance height="2479" width="730"/>
  <unicode hex="0167"/>
  <anchor x="360" y="0" name="bottom"/>
  <anchor x="384" y="0" name="cedilla"/>
  <anchor x="640" y="1562" name="raccent"/>
  <anchor x="462" y="1489" name="top"/>
  <outline>
    <contour>
      <point x="127" y="700" type="line"/>
      <point x="613" y="700" type="line"/>
      <point x="622" y="746" type="line"/>
      <point x="139" y="746" type="line"/>
    </contour>
    <component base="t" xOffset="17"/>
  </outline>
</glyph>
<glyph name="Tonesix" format="2">
  <advance height="2479" width="1290"/>
  <unicode hex="0184"/>
  <outline>
    <contour>
      <point x="540" y="1489" type="line"/>
      <point x="172" y="1489" type="line"/>
      <point x="163" y="1443" type="line"/>
      <point x="543" y="1443" type="line"/>
    </contour>
    <contour>
      <point x="416" y="777" type="line"/>
      <point x="407" y="730" type="line"/>
      <point x="940" y="730" type="line" smooth="yes"/>
      <point x="1164" y="730"/>
      <point x="1287" y="602"/>
      <point x="1254" y="399" type="curve" smooth="yes"/>
      <point x="1216" y="180"/>
      <point x="1059" y="47"/>
      <point x="828" y="47" type="curve" smooth="yes"/>
      <point x="316" y="47" type="line"/>
      <point x="553" y="1489" type="line"/>
      <point x="508" y="1489" type="line"/>
      <point x="260" y="0" type="line"/>
      <point x="819" y="0" type="line" smooth="yes"/>
      <point x="1084" y="0"/>
      <point x="1259" y="147"/>
      <point x="1300" y="396" type="curve" smooth="yes"/>
      <point x="1337" y="624"/>
      <point x="1191" y="777"/>
      <point x="948" y="777" type="curve" smooth="yes"/>
    </contour>
  </outline>
</glyph>
<glyph name="tonesix" format="2">
  <advance height="2479" width="1155"/>
  <unicode hex="0185"/>
  <outline>
    <contour>
      <point x="600" y="-23" type="curve" smooth="yes"/>
      <point x="803" y="-23"/>
      <point x="960" y="167"/>
      <point x="999" y="406" type="curve" smooth="yes"/>
      <point x="1042" y="657"/>
      <point x="945" y="847"/>
      <point x="743" y="847" type="curve" smooth="yes"/>
      <point x="609" y="847"/>
      <point x="492" y="753"/>
      <point x="433" y="631" type="curve"/>
      <point x="427" y="631" type="line"/>
      <point x="507" y="1117" type="line"/>
      <point x="462" y="1117" type="line"/>
      <point x="457" y="1087" type="line"/>
      <point x="455" y="1078" type="line"/>
      <point x="276" y="1" type="line"/>
      <point x="321" y="1" type="line"/>
      <point x="351" y="189" type="line"/>
      <point x="357" y="189" type="line"/>
      <point x="381" y="65"/>
      <point x="463" y="-23"/>
    </contour>
    <contour>
      <point x="600" y="23" type="curve" smooth="yes"/>
      <point x="424" y="25"/>
      <point x="355" y="190"/>
      <point x="391" y="415" type="curve" smooth="yes"/>
      <point x="424" y="622"/>
      <point x="563" y="801"/>
      <point x="740" y="800" type="curve" smooth="yes"/>
      <point x="913" y="801"/>
      <point x="989" y="628"/>
      <point x="952" y="412" type="curve" smooth="yes"/>
      <point x="914" y="180"/>
      <point x="767" y="25"/>
    </contour>
    <contour>
      <point x="95" y="746" type="line"/>
      <point x="489" y="1084" type="line"/>
      <point x="462" y="1117" type="line"/>
      <point x="66" y="778" type="line"/>
    </contour>
  </outline>
</glyph>
<glyph name="Dhook" format="2">
  <advance height="2479" width="1681"/>
  <unicode hex="018A"/>
  <anchor x="713" y="0" name="bottom"/>
  <anchor x="504" y="756" name="cross"/>
  <anchor x="1033" y="1676" name="top"/>
  <outline>
    <contour>
      <point x="236" y="1228" type="line"/>
      <point x="282" y="1228" type="line"/>
      <point x="287" y="1254" type="line" smooth="yes"/>
      <point x="306" y="1378"/>
      <point x="350" y="1443"/>
      <point x="466" y="1443" type="curve" smooth="yes"/>
      <point x="608" y="1443" type="line" name="hr00"/>
      <point x="620" y="1489" type="line"/>
      <point x="472" y="1489" type="line" smooth="yes"/>
      <point x="333" y="1489"/>
      <point x="265" y="1407"/>
      <point x="245" y="1280" type="curve" smooth="yes"/>
    </contour>
    <component base="D" xOffset="216"/>
  </outline>
</glyph>
<glyph name="Dtopbar" format="2">
  <advance height="2479" width="1364"/>
  <unicode hex="018B"/>
  <outline>
    <contour>
      <point x="483" y="0" type="curve" smooth="yes"/>
      <point x="1040" y="0" type="line"/>
      <point x="1286" y="1489" type="line"/>
      <point x="477" y="1489" type="line"/>
      <point x="470" y="1443" type="line"/>
      <point x="1232" y="1443" type="line"/>
      <point x="1121" y="777" type="line"/>
      <point x="608" y="777" type="line" smooth="yes"/>
      <point x="356" y="777"/>
      <point x="170" y="631"/>
      <point x="132" y="407" type="curve" smooth="yes"/>
      <point x="92" y="157"/>
      <point x="226" y="0"/>
    </contour>
    <contour>
      <point x="487" y="47" type="line" smooth="yes"/>
      <point x="255" y="47"/>
      <point x="142" y="179"/>
      <point x="179" y="404" type="curve" smooth="yes"/>
      <point x="212" y="601"/>
      <point x="380" y="730"/>
      <point x="604" y="730" type="curve" smooth="yes"/>
      <point x="1114" y="730" type="line"/>
      <point x="1001" y="47" type="line"/>
    </contour>
  </outline>
</glyph>
<glyph name="deltaturned" format="2">
  <advance height="2479" width="1129"/>
  <unicode hex="018D"/>
  <outline>
    <contour>
      <point x="383" y="-448" type="curve" smooth="yes"/>
      <point x="591" y="-448"/>
      <point x="732" y="-348"/>
      <point x="760" y="-180" type="curve" smooth="yes"/>
      <point x="781" y="-49"/>
      <point x="717" y="41"/>
      <point x="546" y="118" type="curve"/>
      <point x="547" y="121" type="line"/>
      <point x="805" y="177"/>
      <point x="966" y="367"/>
      <point x="1008" y="617" type="curve" smooth="yes"/>
      <point x="1054" y="898"/>
      <point x="938" y="1132"/>
      <point x="656" y="1132" type="curve" smooth="yes"/>
      <point x="376" y="1132"/>
      <point x="188" y="903"/>
      <point x="141" y="623" type="curve" smooth="yes"/>
      <point x="100" y="370"/>
      <point x="213" y="216"/>
      <point x="451" y="112" type="curve" smooth="yes"/>
      <point x="672" y="14"/>
      <point x="734" y="-54"/>
      <point x="714" y="-170" type="curve" smooth="yes"/>
      <point x="690" y="-318"/>
      <point x="571" y="-401"/>
      <point x="386" y="-401" type="curve" smooth="yes"/>
      <point x="289" y="-401"/>
      <point x="203" y="-382"/>
      <point x="127" y="-339" type="curve"/>
      <point x="121" y="-388" type="line"/>
      <point x="188" y="-425"/>
      <point x="283" y="-448"/>
    </contour>
    <contour>
      <point x="470" y="150" type="curve"/>
      <point x="254" y="251"/>
      <point x="149" y="383"/>
      <point x="188" y="617" type="curve" smooth="yes"/>
      <point x="229" y="871"/>
      <point x="398" y="1085"/>
      <point x="655" y="1085" type="curve" smooth="yes"/>
      <point x="912" y="1085"/>
      <point x="1003" y="871"/>
      <point x="962" y="623" type="curve" smooth="yes"/>
      <point x="917" y="353"/>
      <point x="738" y="188"/>
    </contour>
  </outline>
</glyph>
<glyph name="Eopen" format="2">
  <advance height="2479" width="1187"/>
  <unicode hex="0190"/>
  <outline>
    <contour>
      <point x="493" y="-23" type="curve" smooth="yes"/>
      <point x="775" y="-23"/>
      <point x="983" y="148"/>
      <point x="1050" y="372" type="curve"/>
      <point x="1004" y="372" type="line"/>
      <point x="941" y="172"/>
      <point x="757" y="23"/>
      <point x="502" y="23" type="curve" smooth="yes"/>
      <point x="239" y="23"/>
      <point x="108" y="181"/>
      <point x="140" y="380" type="curve" smooth="yes"/>
      <point x="174" y="593"/>
      <point x="385" y="745"/>
      <point x="669" y="745" type="curve" smooth="yes"/>
      <point x="765" y="745" type="line"/>
      <point x="769" y="775" type="line"/>
      <point x="512" y="775" type="line"/>
      <point x="275" y="719"/>
      <point x="125" y="569"/>
      <point x="93" y="380" type="curve" smooth="yes"/>
      <point x="55" y="151"/>
      <point x="208" y="-23"/>
    </contour>
    <contour>
      <point x="521" y="767" type="curve"/>
      <point x="768" y="767" type="line"/>
      <point x="772" y="791" type="line"/>
      <point x="676" y="791" type="line" smooth="yes"/>
      <point x="411" y="791"/>
      <point x="260" y="929"/>
      <point x="294" y="1133" type="curve" smooth="yes"/>
      <point x="325" y="1325"/>
      <point x="500" y="1463"/>
      <point x="739" y="1463" type="curve" smooth="yes"/>
      <point x="976" y="1463"/>
      <point x="1081" y="1321"/>
      <point x="1076" y="1117" type="curve"/>
      <point x="1123" y="1117" type="line"/>
      <point x="1132" y="1347"/>
      <point x="1009" y="1510"/>
      <point x="746" y="1510" type="curve" smooth="yes"/>
      <point x="483" y="1510"/>
      <point x="284" y="1351"/>
      <point x="247" y="1133" type="curve" smooth="yes"/>
      <point x="219" y="961"/>
      <point x="303" y="817"/>
    </contour>
  </outline>
</glyph>
<glyph name="florin" format="2">
  <advance height="2479" width="608"/>
  <unicode hex="0192"/>
  <outline>
    <contour>
      <point x="611" y="1071" type="line"/>
      <point x="412" y="1071" type="line"/>
      <point x="449" y="1300" type="line" smooth="yes"/>
      <point x="471" y="1431"/>
      <point x="583" y="1510"/>
      <point x="694" y="1510" type="curve" smooth="yes"/>
      <point x="723" y="1510"/>
      <point x="743" y="1504"/>
      <point x="767" y="1498" type="curve"/>
      <point x="787" y="1542" type="line"/>
      <point x="761" y="1551"/>
      <point x="737" y="1556"/>
      <point x="703" y="1556" type="curve" smooth="yes"/>
      <point x="563" y="1556"/>
      <point x="429" y="1457"/>
      <point x="403" y="1300" type="curve" smooth="yes"/>
      <point x="365" y="1071" type="line"/>
      <point x="169" y="1071" type="line"/>
      <point x="160" y="1024" type="line"/>
      <point x="358" y="1024" type="line"/>
      <point x="160" y="-163" type="line" smooth="yes"/>
      <point x="138" y="-294"/>
      <point x="26" y="-372"/>
      <point x="-84" y="-372" type="curve" smooth="yes"/>
      <point x="-113" y="-372"/>
      <point x="-134" y="-367"/>
      <point x="-157" y="-361" type="curve"/>
      <point x="-177" y="-404" type="line"/>
      <point x="-151" y="-413"/>
      <point x="-128" y="-419"/>
      <point x="-93" y="-419" type="curve" smooth="yes"/>
      <point x="47" y="-419"/>
      <point x="180" y="-320"/>
      <point x="207" y="-163" type="curve" smooth="yes"/>
      <point x="404" y="1024" type="line"/>
      <point x="602" y="1024" type="line"/>
    </contour>
  </outline>
</glyph>
<glyph name="Ghook" format="2">
  <advance height="2479" width="1457"/>
  <unicode hex="0193"/>
  <anchor x="660" y="0" name="bottom"/>
  <anchor x="940" y="1676" name="top"/>
  <outline>
    <contour>
      <point x="1408" y="1024" type="line" name="hr00"/>
      <point x="1439" y="1207" type="line" smooth="yes"/>
      <point x="1457" y="1321"/>
      <point x="1507" y="1361"/>
      <point x="1572" y="1361" type="curve" smooth="yes"/>
      <point x="1585" y="1361"/>
      <point x="1602" y="1360"/>
      <point x="1620" y="1357" type="curve"/>
      <point x="1628" y="1404" type="line"/>
      <point x="1611" y="1407"/>
      <point x="1594" y="1408"/>
      <point x="1578" y="1408" type="curve" smooth="yes"/>
      <point x="1478" y="1408"/>
      <point x="1414" y="1347"/>
      <point x="1392" y="1210" type="curve" smooth="yes"/>
      <point x="1361" y="1024" type="line"/>
    </contour>
    <component base="G"/>
  </outline>
</glyph>
<glyph name="khook" format="2">
  <advance height="2479" width="1000"/>
  <unicode hex="0199"/>
  <outline>
    <contour>
      <point x="780" y="0" type="line"/>
      <point x="835" y="0" type="line"/>
      <point x="432" y="634" type="line"/>
      <point x="1004" y="1117" type="line"/>
      <point x="931" y="1117" type="line"/>
      <point x="247" y="538" type="line"/>
      <point x="240" y="538" type="line"/>
      <point x="362" y="1271" type="line"/>
      <point x="314" y="1261" type="line"/>
      <point x="105" y="0" type="line"/>
      <point x="151" y="0" type="line"/>
      <point x="228" y="461" type="line"/>
      <point x="396" y="604" type="line"/>
    </contour>
    <contour>
      <point x="355" y="1228" type="line"/>
      <point x="367" y="1297" type="line" smooth="yes"/>
      <point x="386" y="1415"/>
      <point x="438" y="1466"/>
      <point x="535" y="1466" type="curve" smooth="yes"/>
      <point x="553" y="1466"/>
      <point x="582" y="1465"/>
      <point x="604" y="1462" type="curve"/>
      <point x="611" y="1508" type="line"/>
      <point x="590" y="1511"/>
      <point x="562" y="1513"/>
      <point x="541" y="1513" type="curve" smooth="yes"/>
      <point x="417" y="1513"/>
      <point x="347" y="1454"/>
      <point x="323" y="1312" type="curve" smooth="yes"/>
      <point x="310" y="1235" type="line"/>
    </contour>
  </outline>
</glyph>
<glyph name="Mturned" format="2">
  <advance height="2479" width="1827"/>
  <unicode hex="019C"/>
  <outline>
    <contour>
      <point x="476" y="-23" type="curve" smooth="yes"/>
      <point x="684" y="-23"/>
      <point x="865" y="132"/>
      <point x="888" y="356" type="curve"/>
      <point x="857" y="359" type="line"/>
      <point x="824" y="161"/>
      <point x="663" y="23"/>
      <point x="478" y="23" type="curve" smooth="yes"/>
      <point x="296" y="23"/>
      <point x="212" y="159"/>
      <point x="245" y="356" type="curve" smooth="yes"/>
      <point x="433" y="1489" type="line"/>
      <point x="386" y="1489" type="line"/>
      <point x="199" y="359" type="line" smooth="yes"/>
      <point x="162" y="135"/>
      <point x="265" y="-23"/>
    </contour>
    <contour>
      <point x="1134" y="-23" type="curve" smooth="yes"/>
      <point x="1342" y="-23"/>
      <point x="1523" y="132"/>
      <point x="1545" y="356" type="curve"/>
      <point x="1514" y="359" type="line"/>
      <point x="1481" y="161"/>
      <point x="1320" y="23"/>
      <point x="1135" y="23" type="curve" smooth="yes"/>
      <point x="953" y="23"/>
      <point x="870" y="159"/>
      <point x="903" y="356" type="curve" smooth="yes"/>
      <point x="1090" y="1489" type="line"/>
      <point x="1044" y="1489" type="line"/>
      <point x="857" y="359" type="line" smooth="yes"/>
      <point x="820" y="135"/>
      <point x="923" y="-23"/>
    </contour>
    <contour>
      <point x="1455" y="0" type="line"/>
      <point x="1501" y="0" type="line"/>
      <point x="1748" y="1489" type="line"/>
      <point x="1701" y="1489" type="line"/>
    </contour>
  </outline>
</glyph>
<glyph name="ohorn" format="2">
  <advance height="2479" width="1155"/>
  <unicode hex="01A1"/>
  <anchor x="500" y="0" name="bottom"/>
  <anchor x="556" y="0" name="ogonek"/>
  <anchor x="716" y="1303" name="top"/>
  <outline>
    <contour>
      <point x="1181" y="1222" type="line"/>
      <point x="1145" y="1060"/>
      <point x="1076" y="999"/>
      <point x="989" y="960" type="curve"/>
      <point x="986" y="913" type="line"/>
      <point x="1103" y="954"/>
      <point x="1187" y="1027"/>
      <point x="1228" y="1222" type="curve"/>
    </contour>
    <component base="o"/>
  </outline>
</glyph>
<glyph name="Oi" format="2">
  <advance height="2479" width="1581"/>
  <unicode hex="01A2"/>
  <outline>
    <contour>
      <point x="1164" y="785" type="line"/>
      <point x="1117" y="785" type="line"/>
      <point x="1018" y="185" type="line"/>
      <point x="940" y="90"/>
      <point x="793" y="26"/>
      <point x="652" y="26" type="curve" smooth="yes"/>
      <point x="345" y="26"/>
      <point x="151" y="287"/>
      <point x="214" y="672" type="curve" smooth="yes"/>
      <point x="221" y="714" type="line"/>
      <point x="175" y="714" type="line"/>
      <point x="167" y="672" type="line" smooth="yes"/>
      <point x="100" y="269"/>
      <point x="319" y="-20"/>
      <point x="640" y="-20" type="curve" smooth="yes"/>
      <point x="801" y="-20"/>
      <point x="961" y="51"/>
      <point x="1062" y="173" type="curve"/>
    </contour>
    <contour>
      <point x="1254" y="1331" type="line"/>
      <point x="1181" y="1444"/>
      <point x="1048" y="1510"/>
      <point x="893" y="1510" type="curve" smooth="yes"/>
      <point x="551" y="1510"/>
      <point x="256" y="1207"/>
      <point x="186" y="787" type="curve" smooth="yes"/>
      <point x="172" y="701" type="line"/>
      <point x="218" y="701" type="line"/>
      <point x="233" y="787" type="line" smooth="yes"/>
      <point x="297" y="1175"/>
      <point x="577" y="1463"/>
      <point x="886" y="1463" type="curve" smooth="yes"/>
      <point x="1024" y="1463"/>
      <point x="1148" y="1405"/>
      <point x="1203" y="1308" type="curve"/>
      <point x="1098" y="671" type="line"/>
      <point x="1145" y="671" type="line"/>
    </contour>
    <contour>
      <point x="1503" y="1489" type="line"/>
      <point x="1436" y="1489" type="line"/>
      <point x="1219" y="1338" type="line"/>
      <point x="1209" y="1279" type="line"/>
      <point x="1449" y="1446" type="line"/>
      <point x="1140" y="-419" type="line"/>
      <point x="1187" y="-419" type="line"/>
    </contour>
  </outline>
</glyph>
<glyph name="Phook" format="2">
  <advance height="2479" width="1362"/>
  <unicode hex="01A4"/>
  <anchor x="463" y="1489" name="tonos"/>
  <anchor x="943" y="1676" name="top"/>
  <outline>
    <contour>
      <point x="282" y="1228" type="line"/>
      <point x="287" y="1254" type="line" smooth="yes"/>
      <point x="307" y="1378"/>
      <point x="351" y="1443"/>
      <point x="466" y="1443" type="curve" smooth="yes"/>
      <point x="594" y="1443" type="line" name="hr00"/>
      <point x="605" y="1489" type="line"/>
      <point x="472" y="1489" type="line" smooth="yes"/>
      <point x="333" y="1489"/>
      <point x="266" y="1407"/>
      <point x="245" y="1280" type="curve" smooth="yes"/>
      <point x="236" y="1228" type="line"/>
    </contour>
    <component base="P" xOffset="120"/>
  </outline>
</glyph>
<glyph name="Yr" format="2">
  <advance height="2479" width="1231"/>
  <unicode hex="01A6"/>
  <outline>
    <contour>
      <point x="221" y="361" type="line"/>
      <point x="602" y="361" type="line" smooth="yes"/>
      <point x="897" y="361"/>
      <point x="1061" y="519"/>
      <point x="1098" y="748" type="curve" smooth="yes"/>
      <point x="1132" y="958"/>
      <point x="1008" y="1132"/>
      <point x="730" y="1132" type="curve" smooth="yes"/>
      <point x="349" y="1132" type="line"/>
      <point x="337" y="1085" type="line"/>
      <point x="719" y="1085" type="line" smooth="yes"/>
      <point x="952" y="1085"/>
      <point x="1089" y="964"/>
      <point x="1050" y="745" type="curve" smooth="yes"/>
      <point x="1012" y="521"/>
      <point x="847" y="407"/>
      <point x="614" y="407" type="curve" smooth="yes"/>
      <point x="233" y="407" type="line"/>
    </contour>
    <contour>
      <point x="909" y="-419" type="line"/>
      <point x="959" y="-419" type="line"/>
      <point x="657" y="384" type="line"/>
      <point x="608" y="384" type="line"/>
    </contour>
    <contour>
      <point x="140" y="0" type="line"/>
      <point x="183" y="0" type="line"/>
      <point x="431" y="1489" type="line"/>
      <point x="387" y="1489" type="line"/>
    </contour>
  </outline>
</glyph>
<glyph name="tonetwo" format="2">
  <advance height="2479" width="1009"/>
  <unicode hex="01A8"/>
  <outline>
    <contour>
      <point x="412" y="-23" type="curve" smooth="yes"/>
      <point x="609" y="-23"/>
      <point x="755" y="76"/>
      <point x="822" y="255" type="curve"/>
      <point x="777" y="269" type="line"/>
      <point x="718" y="111"/>
      <point x="592" y="23"/>
      <point x="414" y="23" type="curve" smooth="yes"/>
      <point x="221" y="23"/>
      <point x="107" y="125"/>
      <point x="133" y="279" type="curve" smooth="yes"/>
      <point x="152" y="396"/>
      <point x="240" y="479"/>
      <point x="389" y="515" type="curve" smooth="yes"/>
      <point x="571" y="559" type="line" smooth="yes"/>
      <point x="750" y="601"/>
      <point x="854" y="700"/>
      <point x="878" y="838" type="curve" smooth="yes"/>
      <point x="907" y="1015"/>
      <point x="782" y="1135"/>
      <point x="576" y="1135" type="curve" smooth="yes"/>
      <point x="406" y="1135"/>
      <point x="277" y="1050"/>
      <point x="195" y="883" type="curve"/>
      <point x="240" y="868" type="line"/>
      <point x="310" y="1014"/>
      <point x="421" y="1088"/>
      <point x="575" y="1088" type="curve" smooth="yes"/>
      <point x="752" y="1088"/>
      <point x="856" y="991"/>
      <point x="831" y="844" type="curve" smooth="yes"/>
      <point x="812" y="725"/>
      <point x="722" y="644"/>
      <point x="563" y="605" type="curve" smooth="yes"/>
      <point x="382" y="561" type="line" smooth="yes"/>
      <point x="211" y="521"/>
      <point x="110" y="421"/>
      <point x="88" y="285" type="curve" smooth="yes"/>
      <point x="57" y="101"/>
      <point x="192" y="-23"/>
    </contour>
  </outline>
</glyph>
<glyph name="Thook" format="2">
  <advance height="2479" width="1355"/>
  <unicode hex="01AC"/>
  <outline>
    <contour>
      <point x="605" y="1489" type="line"/>
      <point x="472" y="1489" type="line" smooth="yes"/>
      <point x="333" y="1489"/>
      <point x="266" y="1407"/>
      <point x="245" y="1280" type="curve" smooth="yes"/>
      <point x="236" y="1228" type="line"/>
      <point x="282" y="1228" type="line"/>
      <point x="287" y="1254" type="line" smooth="yes"/>
      <point x="307" y="1378"/>
      <point x="351" y="1443"/>
      <point x="466" y="1443" type="curve" smooth="yes"/>
      <point x="594" y="1443" type="line" name="hr00"/>
    </contour>
    <contour>
      <point x="1384" y="1489" type="line"/>
      <point x="522" y="1489" type="line"/>
      <point x="514" y="1443" type="line"/>
      <point x="848" y="1443" type="line"/>
      <point x="610" y="0" type="line"/>
      <point x="656" y="0" type="line"/>
      <point x="895" y="1443" type="line"/>
      <point x="1375" y="1443" type="line"/>
    </contour>
  </outline>
</glyph>
<glyph name="Tretroflexhook" format="2">
  <advance height="2479" width="1257"/>
  <unicode hex="01AE"/>
  <anchor x="535" y="0" name="bottom"/>
  <anchor x="534" y="-6" name="cedilla"/>
  <anchor x="663" y="768" name="cross"/>
  <anchor x="580" y="6" name="cyrtic"/>
  <anchor x="547" y="0" name="right"/>
  <anchor x="815" y="1676" name="top"/>
  <outline>
    <contour>
      <point x="559" y="0" type="line"/>
      <point x="512" y="0" type="line"/>
      <point x="483" y="-169" type="line" smooth="yes"/>
      <point x="455" y="-330"/>
      <point x="514" y="-416"/>
      <point x="640" y="-416" type="curve"/>
      <point x="698" y="-416" type="line"/>
      <point x="707" y="-369" type="line"/>
      <point x="653" y="-369" type="line"/>
      <point x="549" y="-369"/>
      <point x="506" y="-305"/>
      <point x="529" y="-169" type="curve" smooth="yes"/>
    </contour>
    <component base="T"/>
  </outline>
</glyph>
<glyph name="Upsilon-latin" format="2">
  <advance height="2479" width="1524"/>
  <unicode hex="01B1"/>
  <outline>
    <contour>
      <point x="179" y="727" type="curve" smooth="yes"/>
      <point x="106" y="305"/>
      <point x="324" y="-20"/>
      <point x="666" y="-20" type="curve" smooth="yes"/>
      <point x="1025" y="-20"/>
      <point x="1329" y="287"/>
      <point x="1401" y="727" type="curve" smooth="yes"/>
      <point x="1451" y="1038"/>
      <point x="1358" y="1286"/>
      <point x="1095" y="1431" type="curve"/>
      <point x="1098" y="1443" type="line"/>
      <point x="1520" y="1443" type="line"/>
      <point x="1527" y="1489" type="line"/>
      <point x="1059" y="1489" type="line"/>
      <point x="1047" y="1423" type="line"/>
      <point x="1265" y="1297"/>
      <point x="1416" y="1087"/>
      <point x="1356" y="730" type="curve" smooth="yes"/>
      <point x="1289" y="335"/>
      <point x="1013" y="28"/>
      <point x="673" y="26" type="curve" smooth="yes"/>
      <point x="339" y="25"/>
      <point x="160" y="335"/>
      <point x="227" y="730" type="curve" smooth="yes"/>
      <point x="288" y="1089"/>
      <point x="504" y="1296"/>
      <point x="762" y="1423" type="curve"/>
      <point x="774" y="1489" type="line"/>
      <point x="305" y="1489" type="line"/>
      <point x="298" y="1443" type="line"/>
      <point x="720" y="1443" type="line"/>
      <point x="717" y="1431" type="line"/>
      <point x="394" y="1279"/>
      <point x="235" y="1053"/>
    </contour>
  </outline>
</glyph>
<glyph name="Vhook" format="2">
  <advance height="2479" width="1576"/>
  <unicode hex="01B2"/>
  <outline>
    <contour>
      <point x="674" y="-23" type="curve" smooth="yes"/>
      <point x="1020" y="-23"/>
      <point x="1302" y="313"/>
      <point x="1391" y="849" type="curve" smooth="yes"/>
      <point x="1455" y="1234"/>
      <point x="1381" y="1504"/>
      <point x="1205" y="1504" type="curve" smooth="yes"/>
      <point x="1164" y="1504"/>
      <point x="1097" y="1490"/>
      <point x="1033" y="1468" type="curve"/>
      <point x="1038" y="1421" type="line"/>
      <point x="1105" y="1441"/>
      <point x="1169" y="1457"/>
      <point x="1205" y="1457" type="curve" smooth="yes"/>
      <point x="1348" y="1457"/>
      <point x="1402" y="1202"/>
      <point x="1343" y="852" type="curve" smooth="yes"/>
      <point x="1259" y="338"/>
      <point x="996" y="23"/>
      <point x="676" y="23" type="curve" smooth="yes"/>
      <point x="383" y="23"/>
      <point x="221" y="212"/>
      <point x="270" y="502" type="curve" smooth="yes"/>
      <point x="433" y="1489" type="line"/>
      <point x="386" y="1489" type="line"/>
      <point x="223" y="505" type="line" smooth="yes"/>
      <point x="171" y="188"/>
      <point x="350" y="-23"/>
    </contour>
  </outline>
</glyph>
<glyph name="ezhreversed" format="2">
  <advance height="2479" width="1194"/>
  <unicode hex="01B9"/>
  <anchor x="790" y="1303" name="top"/>
  <outline>
    <contour>
      <point x="475" y="-442" type="curve" smooth="yes"/>
      <point x="662" y="-442"/>
      <point x="825" y="-369"/>
      <point x="906" y="-220" type="curve"/>
      <point x="864" y="-199" type="line"/>
      <point x="793" y="-331"/>
      <point x="647" y="-396"/>
      <point x="477" y="-396" type="curve" smooth="yes"/>
      <point x="243" y="-396"/>
      <point x="101" y="-219"/>
      <point x="139" y="17" type="curve" smooth="yes"/>
      <point x="182" y="271"/>
      <point x="406" y="431"/>
      <point x="702" y="431" type="curve" smooth="yes"/>
      <point x="704" y="431" type="line"/>
      <point x="711" y="477" type="line"/>
      <point x="340" y="1065" type="line"/>
      <point x="342" y="1071" type="line"/>
      <point x="1067" y="1071" type="line"/>
      <point x="1076" y="1117" type="line"/>
      <point x="281" y="1117" type="line"/>
      <point x="275" y="1079" type="line"/>
      <point x="651" y="480" type="line"/>
      <point x="650" y="474" type="line"/>
      <point x="357" y="461"/>
      <point x="139" y="289"/>
      <point x="94" y="25" type="curve" smooth="yes"/>
      <point x="51" y="-242"/>
      <point x="211" y="-442"/>
    </contour>
  </outline>
</glyph>
<glyph name="ezhtail" format="2">
  <advance height="2479" width="1004"/>
  <unicode hex="01BA"/>
  <outline>
    <contour>
      <point x="193" y="1120" type="line" name="hr00"/>
      <point x="188" y="1072" type="line"/>
      <point x="957" y="1072" type="line"/>
      <point x="326" y="592" type="line"/>
      <point x="319" y="544" type="line"/>
      <point x="333" y="544" type="line"/>
      <point x="1020" y="1066" type="line"/>
      <point x="1028" y="1117" type="line"/>
    </contour>
    <contour>
      <point x="6" y="-156" type="curve" smooth="yes"/>
      <point x="26" y="-31"/>
      <point x="119" y="54"/>
      <point x="396" y="118" type="curve" smooth="yes"/>
      <point x="628" y="172"/>
      <point x="724" y="239"/>
      <point x="745" y="371" type="curve" smooth="yes"/>
      <point x="769" y="526"/>
      <point x="657" y="591"/>
      <point x="362" y="591" type="curve" smooth="yes"/>
      <point x="339" y="591" type="line"/>
      <point x="327" y="544" type="line"/>
      <point x="355" y="544" type="line" smooth="yes"/>
      <point x="622" y="544"/>
      <point x="719" y="495"/>
      <point x="698" y="368" type="curve" smooth="yes"/>
      <point x="680" y="263"/>
      <point x="600" y="213"/>
      <point x="387" y="161" type="curve" smooth="yes"/>
      <point x="79" y="88"/>
      <point x="-14" y="-1"/>
      <point x="-38" y="-145" type="curve" smooth="yes"/>
      <point x="-69" y="-347"/>
      <point x="64" y="-442"/>
      <point x="271" y="-442" type="curve" smooth="yes"/>
      <point x="505" y="-442"/>
      <point x="672" y="-305"/>
      <point x="726" y="-87" type="curve"/>
      <point x="679" y="-87" type="line"/>
      <point x="633" y="-278"/>
      <point x="482" y="-396"/>
      <point x="272" y="-396" type="curve" smooth="yes"/>
      <point x="92" y="-396"/>
      <point x="-20" y="-318"/>
    </contour>
  </outline>
</glyph>
<glyph name="tonefive" format="2">
  <advance height="2479" width="832"/>
  <unicode hex="01BD"/>
  <outline>
    <contour>
      <point x="191" y="524" type="line" name="hr00"/>
      <point x="252" y="613"/>
      <point x="370" y="675"/>
      <point x="484" y="673" type="curve" smooth="yes"/>
      <point x="656" y="671"/>
      <point x="744" y="548"/>
      <point x="711" y="352" type="curve" smooth="yes"/>
      <point x="678" y="159"/>
      <point x="529" y="29"/>
      <point x="337" y="29" type="curve" smooth="yes"/>
      <point x="171" y="29"/>
      <point x="76" y="137"/>
      <point x="93" y="300" type="curve"/>
      <point x="47" y="288" type="line"/>
      <point x="31" y="108"/>
      <point x="147" y="-17"/>
      <point x="343" y="-17" type="curve" smooth="yes"/>
      <point x="554" y="-17"/>
      <point x="723" y="132"/>
      <point x="759" y="361" type="curve" smooth="yes"/>
      <point x="792" y="573"/>
      <point x="678" y="720"/>
      <point x="484" y="720" type="curve" smooth="yes"/>
      <point x="382" y="720"/>
      <point x="284" y="679"/>
      <point x="215" y="612" type="curve"/>
      <point x="330" y="1036" type="line"/>
      <point x="836" y="1036" type="line"/>
      <point x="845" y="1082" type="line"/>
      <point x="295" y="1082" type="line"/>
      <point x="145" y="532" type="line"/>
    </contour>
    <contour>
      <point x="374" y="1082" type="line"/>
      <point x="127" y="1082" type="line"/>
      <point x="118" y="1036" type="line"/>
      <point x="365" y="1036" type="line"/>
    </contour>
  </outline>
</glyph>
<glyph name="wynn" format="2">
  <advance height="2479" width="1096"/>
  <unicode hex="01BF"/>
  <outline>
    <contour>
      <point x="93" y="-164" type="line"/>
      <point x="541" y="-44"/>
      <point x="924" y="314"/>
      <point x="987" y="692" type="curve" smooth="yes"/>
      <point x="1029" y="950"/>
      <point x="910" y="1135"/>
      <point x="683" y="1135" type="curve" smooth="yes"/>
      <point x="443" y="1135"/>
      <point x="270" y="929"/>
      <point x="211" y="570" type="curve"/>
      <point x="244" y="567" type="line"/>
      <point x="299" y="898"/>
      <point x="456" y="1088"/>
      <point x="674" y="1088" type="curve" smooth="yes"/>
      <point x="875" y="1088"/>
      <point x="979" y="924"/>
      <point x="941" y="696" type="curve" smooth="yes"/>
      <point x="883" y="348"/>
      <point x="522" y="7"/>
      <point x="97" y="-118" type="curve"/>
    </contour>
    <contour>
      <point x="35" y="-419" type="line"/>
      <point x="81" y="-419" type="line"/>
      <point x="283" y="807" type="line"/>
      <point x="296" y="850" type="line"/>
      <point x="291" y="850" type="line"/>
      <point x="336" y="1117" type="line"/>
      <point x="289" y="1117" type="line"/>
    </contour>
  </outline>
</glyph>
<glyph name="Hwair" format="2">
  <advance height="2479" width="2316"/>
  <unicode hex="01F6"/>
  <outline>
    <contour>
      <point x="1559" y="-22" type="curve" smooth="yes"/>
      <point x="1791" y="-22"/>
      <point x="1996" y="116"/>
      <point x="2051" y="442" type="curve" smooth="yes"/>
      <point x="2170" y="1146" type="line"/>
      <point x="2124" y="1146" type="line"/>
      <point x="2007" y="442" type="line" smooth="yes"/>
      <point x="1963" y="182"/>
      <point x="1795" y="24"/>
      <point x="1558" y="25" type="curve" smooth="yes"/>
      <point x="1325" y="25"/>
      <point x="1206" y="161"/>
      <point x="1254" y="442" type="curve" smooth="yes"/>
      <point x="1428" y="1489" type="line"/>
      <point x="1382" y="1489" type="line"/>
      <point x="1263" y="768" type="line"/>
      <point x="314" y="768" type="line"/>
      <point x="435" y="1489" type="line"/>
      <point x="387" y="1489" type="line"/>
      <point x="140" y="0" type="line"/>
      <point x="186" y="0" type="line"/>
      <point x="305" y="721" type="line"/>
      <point x="1254" y="721" type="line"/>
      <point x="1207" y="442" type="line" smooth="yes"/>
      <point x="1154" y="126"/>
      <point x="1313" y="-22"/>
    </contour>
  </outline>
</glyph>
<glyph name="Wynn" format="2">
  <advance height="2479" width="1247"/>
  <unicode hex="01F7"/>
  <outline>
    <contour>
      <point x="137" y="-113" type="line"/>
      <point x="668" y="1"/>
      <point x="1069" y="392"/>
      <point x="1151" y="884" type="curve" smooth="yes"/>
      <point x="1212" y="1257"/>
      <point x="1063" y="1510"/>
      <point x="783" y="1510" type="curve" smooth="yes"/>
      <point x="660" y="1510"/>
      <point x="504" y="1461"/>
      <point x="382" y="1388" type="curve"/>
      <point x="401" y="1343" type="line"/>
      <point x="516" y="1415"/>
      <point x="663" y="1463"/>
      <point x="779" y="1463" type="curve" smooth="yes"/>
      <point x="1029" y="1463"/>
      <point x="1160" y="1233"/>
      <point x="1105" y="893" type="curve" smooth="yes"/>
      <point x="1027" y="428"/>
      <point x="644" y="50"/>
      <point x="142" y="-67" type="curve"/>
    </contour>
    <contour>
      <point x="71" y="-419" type="line"/>
      <point x="117" y="-419" type="line"/>
      <point x="433" y="1489" type="line"/>
      <point x="386" y="1489" type="line"/>
    </contour>
  </outline>
</glyph>
<glyph name="Yogh" format="2">
  <advance height="2479" width="1442"/>
  <unicode hex="021C"/>
  <anchor x="893" y="1676" name="top"/>
  <outline>
    <contour>
      <point x="525" y="-442" type="curve" smooth="yes"/>
      <point x="885" y="-442"/>
      <point x="1158" y="-212"/>
      <point x="1213" y="123" type="curve" smooth="yes"/>
      <point x="1265" y="433"/>
      <point x="1095" y="629"/>
      <point x="791" y="630" type="curve"/>
      <point x="733" y="591" type="line"/>
      <point x="1043" y="596"/>
      <point x="1216" y="416"/>
      <point x="1167" y="124" type="curve" smooth="yes"/>
      <point x="1116" y="-184"/>
      <point x="859" y="-396"/>
      <point x="526" y="-396" type="curve" smooth="yes"/>
      <point x="216" y="-396"/>
      <point x="44" y="-209"/>
      <point x="90" y="73" type="curve"/>
      <point x="45" y="73" type="line"/>
      <point x="-7" y="-238"/>
      <point x="185" y="-442"/>
    </contour>
    <contour>
      <point x="378" y="465" type="line"/>
      <point x="885" y="596"/>
      <point x="1230" y="764"/>
      <point x="1283" y="1081" type="curve" smooth="yes"/>
      <point x="1325" y="1334"/>
      <point x="1154" y="1510"/>
      <point x="838" y="1510" type="curve" smooth="yes"/>
      <point x="542" y="1510"/>
      <point x="312" y="1353"/>
      <point x="272" y="1116" type="curve"/>
      <point x="318" y="1116" type="line"/>
      <point x="352" y="1325"/>
      <point x="563" y="1463"/>
      <point x="834" y="1463" type="curve" smooth="yes"/>
      <point x="1117" y="1463"/>
      <point x="1272" y="1310"/>
      <point x="1238" y="1089" type="curve" smooth="yes"/>
      <point x="1193" y="799"/>
      <point x="865" y="647"/>
      <point x="383" y="513" type="curve"/>
    </contour>
  </outline>
</glyph>
<glyph name="yogh" format="2">
  <advance height="2479" width="1145"/>
  <unicode hex="021D"/>
  <outline>
    <contour>
      <point x="247" y="265" type="line"/>
      <point x="662" y="312"/>
      <point x="964" y="528"/>
      <point x="1009" y="800" type="curve" smooth="yes"/>
      <point x="1045" y="1005"/>
      <point x="882" y="1135"/>
      <point x="652" y="1135" type="curve" smooth="yes"/>
      <point x="417" y="1135"/>
      <point x="203" y="999"/>
      <point x="169" y="791" type="curve"/>
      <point x="214" y="791" type="line"/>
      <point x="241" y="970"/>
      <point x="438" y="1088"/>
      <point x="646" y="1088" type="curve" smooth="yes"/>
      <point x="846" y="1088"/>
      <point x="991" y="980"/>
      <point x="964" y="806" type="curve" smooth="yes"/>
      <point x="928" y="556"/>
      <point x="643" y="356"/>
      <point x="252" y="311" type="curve"/>
    </contour>
    <contour>
      <point x="396" y="-442" type="curve" smooth="yes"/>
      <point x="657" y="-442"/>
      <point x="881" y="-246"/>
      <point x="925" y="19" type="curve" smooth="yes"/>
      <point x="958" y="218"/>
      <point x="876" y="364"/>
      <point x="714" y="433" type="curve"/>
      <point x="656" y="401" type="line"/>
      <point x="825" y="345"/>
      <point x="910" y="209"/>
      <point x="879" y="23" type="curve" smooth="yes"/>
      <point x="839" y="-217"/>
      <point x="636" y="-396"/>
      <point x="397" y="-396" type="curve" smooth="yes"/>
      <point x="231" y="-396"/>
      <point x="108" y="-334"/>
      <point x="80" y="-202" type="curve"/>
      <point x="35" y="-217" type="line"/>
      <point x="67" y="-366"/>
      <point x="207" y="-442"/>
    </contour>
  </outline>
</glyph>
<glyph name="dcurl" format="2">
  <advance height="2479" width="1473"/>
  <unicode hex="0221"/>
  <anchor x="502" y="0" name="bottom"/>
  <anchor x="1087" y="1280" name="cross"/>
  <anchor x="1276" y="1489" name="raccent"/>
  <anchor x="725" y="1489" name="top"/>
  <outline>
    <contour>
      <point x="868" y="115" type="line"/>
      <point x="825" y="-145" type="line" smooth="yes"/>
      <point x="801" y="-287"/>
      <point x="897" y="-396"/>
      <point x="1043" y="-396" type="curve" smooth="yes"/>
      <point x="1184" y="-396"/>
      <point x="1311" y="-296"/>
      <point x="1331" y="-169" type="curve" smooth="yes"/>
      <point x="1351" y="-44"/>
      <point x="1258" y="58"/>
      <point x="1113" y="58" type="curve" smooth="yes"/>
      <point x="982" y="58"/>
      <point x="861" y="-22"/>
      <point x="684" y="-252" type="curve" smooth="yes"/>
      <point x="591" y="-372" type="line"/>
      <point x="628" y="-396" type="line"/>
      <point x="721" y="-275" type="line" smooth="yes"/>
      <point x="887" y="-60"/>
      <point x="999" y="12"/>
      <point x="1113" y="12" type="curve" smooth="yes"/>
      <point x="1231" y="12"/>
      <point x="1303" y="-71"/>
      <point x="1284" y="-169" type="curve" smooth="yes"/>
      <point x="1265" y="-269"/>
      <point x="1159" y="-349"/>
      <point x="1043" y="-349" type="curve" smooth="yes"/>
      <point x="921" y="-349"/>
      <point x="852" y="-262"/>
      <point x="871" y="-145" type="curve" smooth="yes"/>
      <point x="915" y="113" type="line"/>
    </contour>
    <component base="d" xOffset="-3"/>
  </outline>
</glyph>
<glyph name="zhook" format="2">
  <advance height="2479" width="1041"/>
  <unicode hex="0225"/>
  <outline>
    <contour>
      <point x="803" y="-186" type="line"/>
      <point x="849" y="-186" type="line"/>
      <point x="854" y="-156" type="line" smooth="yes"/>
      <point x="876" y="-29"/>
      <point x="816" y="47"/>
      <point x="689" y="47" type="curve" smooth="yes"/>
      <point x="132" y="47" type="line"/>
      <point x="969" y="1071" type="line"/>
      <point x="977" y="1117" type="line"/>
      <point x="294" y="1117" type="line"/>
      <point x="285" y="1071" type="line"/>
      <point x="912" y="1071" type="line"/>
      <point x="73" y="47" type="line"/>
      <point x="64" y="0" type="line"/>
      <point x="679" y="0" type="line" smooth="yes"/>
      <point x="791" y="0"/>
      <point x="825" y="-52"/>
      <point x="803" y="-182" type="curve"/>
    </contour>
  </outline>
</glyph>
<glyph name="lcurl" format="2">
  <advance height="2479" width="539"/>
  <unicode hex="0234"/>
  <outline>
    <contour>
      <point x="128" y="115" type="line"/>
      <point x="84" y="-145" type="line" smooth="yes"/>
      <point x="60" y="-287"/>
      <point x="156" y="-396"/>
      <point x="303" y="-396" type="curve" smooth="yes"/>
      <point x="444" y="-396"/>
      <point x="571" y="-296"/>
      <point x="591" y="-169" type="curve" smooth="yes"/>
      <point x="610" y="-44"/>
      <point x="518" y="58"/>
      <point x="372" y="58" type="curve" smooth="yes"/>
      <point x="241" y="58"/>
      <point x="121" y="-22"/>
      <point x="-57" y="-252" type="curve" smooth="yes"/>
      <point x="-150" y="-372" type="line"/>
      <point x="-112" y="-396" type="line"/>
      <point x="-19" y="-275" type="line" smooth="yes"/>
      <point x="147" y="-60"/>
      <point x="259" y="12"/>
      <point x="372" y="12" type="curve" smooth="yes"/>
      <point x="490" y="12"/>
      <point x="562" y="-71"/>
      <point x="544" y="-169" type="curve" smooth="yes"/>
      <point x="525" y="-269"/>
      <point x="418" y="-349"/>
      <point x="303" y="-349" type="curve" smooth="yes"/>
      <point x="181" y="-349"/>
      <point x="111" y="-262"/>
      <point x="131" y="-145" type="curve" smooth="yes"/>
      <point x="175" y="113" type="line"/>
    </contour>
    <contour>
      <point x="403" y="1489" type="line"/>
      <point x="356" y="1489" type="line"/>
      <point x="109" y="0" type="line"/>
      <point x="156" y="0" type="line"/>
    </contour>
  </outline>
</glyph>
<glyph name="tcurl" format="2">
  <advance height="2479" width="894"/>
  <unicode hex="0236"/>
  <outline>
    <contour>
      <point x="423" y="1385" type="line"/>
      <point x="231" y="230" type="line" smooth="yes"/>
      <point x="208" y="88"/>
      <point x="303" y="-20"/>
      <point x="449" y="-20" type="curve" smooth="yes"/>
      <point x="591" y="-20"/>
      <point x="718" y="79"/>
      <point x="737" y="207" type="curve" smooth="yes"/>
      <point x="757" y="332"/>
      <point x="665" y="433"/>
      <point x="519" y="433" type="curve" smooth="yes"/>
      <point x="371" y="433"/>
      <point x="239" y="327"/>
      <point x="16" y="26" type="curve"/>
      <point x="54" y="3" type="line"/>
      <point x="265" y="290"/>
      <point x="390" y="387"/>
      <point x="519" y="387" type="curve" smooth="yes"/>
      <point x="637" y="387"/>
      <point x="709" y="305"/>
      <point x="691" y="207" type="curve" smooth="yes"/>
      <point x="673" y="106"/>
      <point x="565" y="26"/>
      <point x="449" y="26" type="curve" smooth="yes"/>
      <point x="328" y="26"/>
      <point x="258" y="113"/>
      <point x="278" y="230" type="curve" smooth="yes"/>
      <point x="470" y="1385" type="line"/>
    </contour>
    <contour>
      <point x="656" y="1117" type="line"/>
      <point x="214" y="1117" type="line"/>
      <point x="208" y="1071" type="line"/>
      <point x="650" y="1071" type="line"/>
    </contour>
  </outline>
</glyph>
<glyph name="jdotless" format="2">
  <advance height="2479" width="454"/>
  <unicode hex="0237"/>
  <anchor x="416" y="0" name="_right"/>
  <anchor x="32" y="-442" name="bottom"/>
  <anchor x="239" y="628" name="cross"/>
  <anchor x="349" y="1303" name="top"/>
  <outline>
    <contour>
      <point x="297" y="1117" type="line"/>
      <point x="84" y="-163" type="line" smooth="yes"/>
      <point x="63" y="-294"/>
      <point x="-49" y="-372"/>
      <point x="-160" y="-372" type="curve" smooth="yes"/>
      <point x="-166" y="-372"/>
      <point x="-172" y="-372"/>
      <point x="-177" y="-372" type="curve"/>
      <point x="-189" y="-416" type="line"/>
      <point x="-180" y="-419"/>
      <point x="-175" y="-419"/>
      <point x="-169" y="-419" type="curve" smooth="yes"/>
      <point x="-32" y="-419"/>
      <point x="105" y="-320"/>
      <point x="131" y="-163" type="curve" smooth="yes"/>
      <point x="343" y="1117" type="line"/>
    </contour>
  </outline>
</glyph>
<glyph name="dbdigraph" format="2">
  <advance height="2479" width="1940"/>
  <unicode hex="0238"/>
  <outline>
    <contour>
      <point x="467" y="-23" type="curve" smooth="yes"/>
      <point x="646" y="-23"/>
      <point x="803" y="95"/>
      <point x="895" y="279" type="curve"/>
      <point x="901" y="279" type="line"/>
      <point x="854" y="0" type="line"/>
      <point x="901" y="0" type="line"/>
      <point x="947" y="279" type="line"/>
      <point x="953" y="279" type="line"/>
      <point x="982" y="93"/>
      <point x="1102" y="-23"/>
      <point x="1282" y="-23" type="curve" smooth="yes"/>
      <point x="1547" y="-23"/>
      <point x="1753" y="227"/>
      <point x="1809" y="556" type="curve" smooth="yes"/>
      <point x="1864" y="884"/>
      <point x="1736" y="1135"/>
      <point x="1474" y="1135" type="curve" smooth="yes"/>
      <point x="1297" y="1135"/>
      <point x="1134" y="1018"/>
      <point x="1046" y="832" type="curve"/>
      <point x="1041" y="832" type="line"/>
      <point x="1148" y="1489" type="line"/>
      <point x="1102" y="1489" type="line"/>
      <point x="993" y="832" type="line"/>
      <point x="987" y="832" type="line"/>
      <point x="959" y="1018"/>
      <point x="836" y="1135"/>
      <point x="658" y="1135" type="curve" smooth="yes"/>
      <point x="397" y="1135"/>
      <point x="187" y="884"/>
      <point x="131" y="556" type="curve" smooth="yes"/>
      <point x="78" y="225"/>
      <point x="202" y="-23"/>
    </contour>
    <contour>
      <point x="467" y="23" type="curve" smooth="yes"/>
      <point x="230" y="23"/>
      <point x="129" y="253"/>
      <point x="178" y="556" type="curve" smooth="yes"/>
      <point x="229" y="858"/>
      <point x="422" y="1088"/>
      <point x="658" y="1088" type="curve" smooth="yes"/>
      <point x="894" y="1088"/>
      <point x="997" y="858"/>
      <point x="946" y="556" type="curve" smooth="yes"/>
      <point x="897" y="253"/>
      <point x="705" y="23"/>
    </contour>
    <contour>
      <point x="1282" y="23" type="curve" smooth="yes"/>
      <point x="1043" y="23"/>
      <point x="945" y="253"/>
      <point x="994" y="556" type="curve" smooth="yes"/>
      <point x="1043" y="858"/>
      <point x="1238" y="1088"/>
      <point x="1474" y="1088" type="curve" smooth="yes"/>
      <point x="1710" y="1088"/>
      <point x="1811" y="858"/>
      <point x="1762" y="556" type="curve" smooth="yes"/>
      <point x="1713" y="253"/>
      <point x="1518" y="23"/>
    </contour>
  </outline>
</glyph>
<glyph name="Tdiagonalstroke" format="2">
  <advance height="2479" width="1257"/>
  <unicode hex="023E"/>
  <unicode hex="2C66"/>
  <anchor x="535" y="0" name="bottom"/>
  <anchor x="534" y="-6" name="cedilla"/>
  <anchor x="663" y="768" name="cross"/>
  <anchor x="580" y="6" name="cyrtic"/>
  <anchor x="547" y="0" name="right"/>
  <anchor x="815" y="1676" name="top"/>
  <outline>
    <contour>
      <point x="131" y="-189" type="line"/>
      <point x="179" y="-189" type="line"/>
      <point x="1210" y="1679" type="line"/>
      <point x="1162" y="1679" type="line"/>
    </contour>
    <component base="T"/>
  </outline>
</glyph>
<glyph name="Glottalstop" format="2">
  <advance height="2479" width="1179"/>
  <unicode hex="0241"/>
  <outline>
    <contour>
      <point x="550" y="458" type="line"/>
      <point x="832" y="458"/>
      <point x="1052" y="668"/>
      <point x="1105" y="991" type="curve" smooth="yes"/>
      <point x="1158" y="1311"/>
      <point x="1012" y="1524"/>
      <point x="739" y="1524" type="curve" smooth="yes"/>
      <point x="524" y="1524"/>
      <point x="339" y="1389"/>
      <point x="269" y="1181" type="curve"/>
      <point x="319" y="1181" type="line"/>
      <point x="379" y="1360"/>
      <point x="545" y="1478"/>
      <point x="736" y="1478" type="curve" smooth="yes"/>
      <point x="979" y="1478"/>
      <point x="1107" y="1285"/>
      <point x="1059" y="996" type="curve" smooth="yes"/>
      <point x="1010" y="698"/>
      <point x="809" y="505"/>
      <point x="554" y="505" type="curve"/>
    </contour>
    <contour>
      <point x="449" y="0" type="line"/>
      <point x="496" y="0" type="line"/>
      <point x="579" y="505" type="line"/>
      <point x="532" y="505" type="line"/>
    </contour>
  </outline>
</glyph>
<glyph name="glottalstopsmall" format="2">
  <advance height="2479" width="955"/>
  <unicode hex="0242"/>
  <outline>
    <contour>
      <point x="449" y="345" type="line"/>
      <point x="467" y="345" type="line"/>
      <point x="661" y="343"/>
      <point x="814" y="492"/>
      <point x="852" y="727" type="curve" smooth="yes"/>
      <point x="892" y="970"/>
      <point x="783" y="1135"/>
      <point x="566" y="1135" type="curve" smooth="yes"/>
      <point x="369" y="1135"/>
      <point x="207" y="999"/>
      <point x="169" y="791" type="curve"/>
      <point x="215" y="791" type="line"/>
      <point x="247" y="970"/>
      <point x="388" y="1088"/>
      <point x="559" y="1088" type="curve" smooth="yes"/>
      <point x="748" y="1088"/>
      <point x="841" y="943"/>
      <point x="806" y="729" type="curve" smooth="yes"/>
      <point x="772" y="520"/>
      <point x="636" y="388"/>
      <point x="465" y="390" type="curve"/>
      <point x="457" y="390" type="line" name="hr00"/>
    </contour>
    <contour>
      <point x="383" y="0" type="line"/>
      <point x="429" y="0" type="line"/>
      <point x="495" y="390" type="line"/>
      <point x="448" y="390" type="line"/>
    </contour>
  </outline>
</glyph>
<glyph name="estroke" format="2">
  <advance height="2479" width="1219"/>
  <unicode hex="0247"/>
  <anchor x="535" y="0" name="bottom"/>
  <anchor x="538" y="0" name="cedilla"/>
  <anchor x="587" y="0" name="ogonek"/>
  <anchor x="750" y="1303" name="top"/>
  <outline>
    <contour>
      <point x="1212" y="1489" type="line"/>
      <point x="1161" y="1489" type="line"/>
      <point x="-31" y="-419" type="line"/>
      <point x="25" y="-419" type="line"/>
    </contour>
    <component base="e" xOffset="37"/>
  </outline>
</glyph>
<glyph name="Qhooktail" format="2">
  <advance height="2479" width="1530"/>
  <unicode hex="024A"/>
  <outline>
    <contour>
      <point x="1446" y="1489" type="line"/>
      <point x="1399" y="1489" type="line"/>
      <point x="1332" y="1079" type="line"/>
      <point x="1328" y="1079" type="line"/>
      <point x="1293" y="1356"/>
      <point x="1148" y="1510"/>
      <point x="908" y="1510" type="curve" smooth="yes"/>
      <point x="556" y="1510"/>
      <point x="255" y="1200"/>
      <point x="177" y="745" type="curve" smooth="yes"/>
      <point x="104" y="285"/>
      <point x="300" y="-20"/>
      <point x="655" y="-20" type="curve" smooth="yes"/>
      <point x="892" y="-20"/>
      <point x="1087" y="129"/>
      <point x="1212" y="396" type="curve"/>
      <point x="1217" y="396" type="line"/>
      <point x="1117" y="-205" type="line"/>
      <point x="1093" y="-345"/>
      <point x="1146" y="-416"/>
      <point x="1273" y="-416" type="curve" smooth="yes"/>
      <point x="1296" y="-416"/>
      <point x="1316" y="-414"/>
      <point x="1340" y="-409" type="curve"/>
      <point x="1347" y="-362" type="line"/>
      <point x="1327" y="-367"/>
      <point x="1307" y="-369"/>
      <point x="1281" y="-369" type="curve" smooth="yes"/>
      <point x="1172" y="-369"/>
      <point x="1144" y="-327"/>
      <point x="1165" y="-198" type="curve"/>
    </contour>
    <contour>
      <point x="652" y="26" type="curve" smooth="yes"/>
      <point x="327" y="26"/>
      <point x="152" y="311"/>
      <point x="224" y="745" type="curve" smooth="yes"/>
      <point x="298" y="1170"/>
      <point x="580" y="1463"/>
      <point x="899" y="1463" type="curve" smooth="yes"/>
      <point x="1209" y="1463"/>
      <point x="1350" y="1185"/>
      <point x="1277" y="745" type="curve" smooth="yes"/>
      <point x="1206" y="313"/>
      <point x="961" y="26"/>
    </contour>
  </outline>
</glyph>
<glyph name="ystroke" format="2">
  <advance height="2479" width="1071"/>
  <unicode hex="024F"/>
  <anchor x="633" y="-86" name="bottom"/>
  <anchor x="415" y="-419" name="ogonek"/>
  <anchor x="659" y="1303" name="top"/>
  <outline>
    <contour>
      <point x="1004" y="809" type="line" name="hr00"/>
      <point x="183" y="809" type="line"/>
      <point x="170" y="762" type="line"/>
      <point x="993" y="762" type="line"/>
    </contour>
    <component base="y"/>
  </outline>
</glyph>
<glyph name="oopen" format="2">
  <advance height="2479" width="1131"/>
  <unicode hex="0254"/>
  <outline>
    <contour>
      <point x="439" y="-23" type="curve" smooth="yes"/>
      <point x="709" y="-23"/>
      <point x="945" y="224"/>
      <point x="999" y="553" type="curve" smooth="yes"/>
      <point x="1053" y="881"/>
      <point x="898" y="1135"/>
      <point x="624" y="1135" type="curve" smooth="yes"/>
      <point x="426" y="1135"/>
      <point x="240" y="996"/>
      <point x="171" y="793" type="curve"/>
      <point x="221" y="790" type="line"/>
      <point x="280" y="965"/>
      <point x="445" y="1088"/>
      <point x="622" y="1088" type="curve" smooth="yes"/>
      <point x="862" y="1088"/>
      <point x="1004" y="863"/>
      <point x="954" y="559" type="curve" smooth="yes"/>
      <point x="904" y="260"/>
      <point x="690" y="23"/>
      <point x="440" y="23" type="curve" smooth="yes"/>
      <point x="264" y="23"/>
      <point x="138" y="142"/>
      <point x="141" y="324" type="curve"/>
      <point x="93" y="327" type="line"/>
      <point x="90" y="116"/>
      <point x="234" y="-23"/>
    </contour>
  </outline>
</glyph>
<glyph name="dhook" format="2">
  <advance height="2479" width="1176"/>
  <unicode hex="0257"/>
  <outline>
    <contour>
      <point x="465" y="-23" type="curve" smooth="yes"/>
      <point x="644" y="-23"/>
      <point x="801" y="95"/>
      <point x="893" y="279" type="curve"/>
      <point x="925" y="279" type="line"/>
      <point x="1023" y="832" type="line"/>
      <point x="985" y="832" type="line"/>
      <point x="957" y="1018"/>
      <point x="835" y="1135"/>
      <point x="656" y="1135" type="curve" smooth="yes"/>
      <point x="396" y="1135"/>
      <point x="185" y="884"/>
      <point x="129" y="556" type="curve" smooth="yes"/>
      <point x="76" y="225"/>
      <point x="201" y="-23"/>
    </contour>
    <contour>
      <point x="1071" y="1312" type="curve" smooth="yes"/>
      <point x="991" y="832" type="line"/>
      <point x="963" y="559" type="line"/>
      <point x="899" y="279" type="line"/>
      <point x="852" y="0" type="line"/>
      <point x="899" y="0" type="line"/>
      <point x="1114" y="1297" type="line" smooth="yes"/>
      <point x="1135" y="1415"/>
      <point x="1185" y="1466"/>
      <point x="1283" y="1466" type="curve" smooth="yes"/>
      <point x="1301" y="1466"/>
      <point x="1329" y="1465"/>
      <point x="1351" y="1462" type="curve"/>
      <point x="1359" y="1508" type="line"/>
      <point x="1337" y="1511"/>
      <point x="1310" y="1513"/>
      <point x="1289" y="1513" type="curve" smooth="yes"/>
      <point x="1164" y="1513"/>
      <point x="1098" y="1452"/>
    </contour>
    <contour>
      <point x="465" y="23" type="curve" smooth="yes"/>
      <point x="228" y="23"/>
      <point x="127" y="253"/>
      <point x="176" y="556" type="curve" smooth="yes"/>
      <point x="227" y="858"/>
      <point x="420" y="1088"/>
      <point x="656" y="1088" type="curve" smooth="yes"/>
      <point x="892" y="1088"/>
      <point x="995" y="858"/>
      <point x="944" y="556" type="curve" smooth="yes"/>
      <point x="895" y="253"/>
      <point x="703" y="23"/>
    </contour>
  </outline>
</glyph>
<glyph name="ereversed" format="2">
  <advance height="2479" width="1182"/>
  <unicode hex="0258"/>
  <anchor x="498" y="0" name="bottom"/>
  <anchor x="496" y="0" name="cedilla"/>
  <anchor x="449" y="0" name="ogonek"/>
  <anchor x="715" y="1303" name="top"/>
  <outline>
    <contour>
      <point x="472" y="-23" type="curve" smooth="yes"/>
      <point x="764" y="-23"/>
      <point x="996" y="225"/>
      <point x="1050" y="553" type="curve" smooth="yes"/>
      <point x="1105" y="883"/>
      <point x="946" y="1135"/>
      <point x="680" y="1135" type="curve" smooth="yes"/>
      <point x="423" y="1135"/>
      <point x="188" y="895"/>
      <point x="139" y="607" type="curve" smooth="yes"/>
      <point x="132" y="559" type="line"/>
      <point x="1028" y="559" type="line"/>
      <point x="1035" y="605" type="line"/>
      <point x="186" y="604" type="line"/>
      <point x="230" y="872"/>
      <point x="452" y="1088"/>
      <point x="679" y="1088" type="curve" smooth="yes"/>
      <point x="908" y="1088"/>
      <point x="1050" y="865"/>
      <point x="1006" y="569" type="curve" smooth="yes"/>
      <point x="1006" y="563" type="line" smooth="yes"/>
      <point x="957" y="270"/>
      <point x="757" y="23"/>
      <point x="474" y="23" type="curve" smooth="yes"/>
      <point x="269" y="23"/>
      <point x="189" y="156"/>
      <point x="160" y="223" type="curve"/>
      <point x="119" y="199" type="line"/>
      <point x="155" y="115"/>
      <point x="253" y="-23"/>
    </contour>
  </outline>
</glyph>
<glyph name="eopenreversedhook" format="2">
  <advance height="2479" width="1249"/>
  <unicode hex="025D"/>
  <anchor x="666" y="1303" name="top"/>
  <outline>
    <contour>
      <point x="902" y="822" type="line"/>
      <point x="998" y="836" type="line"/>
      <point x="988" y="695"/>
      <point x="1039" y="610"/>
      <point x="1136" y="608" type="curve" smooth="yes"/>
      <point x="1161" y="607"/>
      <point x="1189" y="612"/>
      <point x="1222" y="624" type="curve"/>
      <point x="1216" y="663" type="line"/>
      <point x="1194" y="656"/>
      <point x="1171" y="652"/>
      <point x="1148" y="653" type="curve" smooth="yes"/>
      <point x="1057" y="656"/>
      <point x="1029" y="725"/>
      <point x="1050" y="892" type="curve"/>
      <point x="911" y="868" type="line"/>
    </contour>
    <component base="eopenreversed" xOffset="-3"/>
  </outline>
</glyph>
<glyph name="Gsmall" format="2">
  <advance height="2479" width="1169"/>
  <unicode hex="0262"/>
  <outline>
    <contour>
      <point x="1016" y="765" type="curve"/>
      <point x="1062" y="765" type="line"/>
      <point x="1062" y="987"/>
      <point x="915" y="1133"/>
      <point x="691" y="1133" type="curve" smooth="yes"/>
      <point x="410" y="1133"/>
      <point x="189" y="905"/>
      <point x="131" y="557" type="curve" smooth="yes"/>
      <point x="73" y="207"/>
      <point x="223" y="-25"/>
      <point x="509" y="-25" type="curve" smooth="yes"/>
      <point x="769" y="-25"/>
      <point x="973" y="169"/>
      <point x="1021" y="457" type="curve" smooth="yes"/>
      <point x="1030" y="505" type="line"/>
      <point x="605" y="505" type="line"/>
      <point x="598" y="458" type="line"/>
      <point x="997" y="458" type="line"/>
      <point x="979" y="486" type="line"/>
      <point x="938" y="211"/>
      <point x="751" y="25"/>
      <point x="511" y="26" type="curve" smooth="yes"/>
      <point x="256" y="25"/>
      <point x="125" y="233"/>
      <point x="178" y="553" type="curve" smooth="yes"/>
      <point x="231" y="873"/>
      <point x="434" y="1085"/>
      <point x="688" y="1085" type="curve" smooth="yes"/>
      <point x="885" y="1085"/>
      <point x="1014" y="958"/>
    </contour>
  </outline>
</glyph>
<glyph name="gamma-latin" format="2">
  <advance height="2479" width="1083"/>
  <unicode hex="0263"/>
  <outline>
    <contour>
      <point x="369" y="-442" type="curve" smooth="yes"/>
      <point x="465" y="-442"/>
      <point x="545" y="-384"/>
      <point x="559" y="-298" type="curve" smooth="yes"/>
      <point x="569" y="-235"/>
      <point x="544" y="-135"/>
      <point x="486" y="71" type="curve" smooth="yes"/>
      <point x="191" y="1117" type="line"/>
      <point x="143" y="1117" type="line"/>
      <point x="426" y="109" type="line" smooth="yes"/>
      <point x="489" y="-114"/>
      <point x="521" y="-242"/>
      <point x="512" y="-298" type="curve" smooth="yes"/>
      <point x="503" y="-355"/>
      <point x="442" y="-396"/>
      <point x="371" y="-396" type="curve" smooth="yes"/>
      <point x="299" y="-396"/>
      <point x="255" y="-356"/>
      <point x="266" y="-298" type="curve" smooth="yes"/>
      <point x="278" y="-237"/>
      <point x="355" y="-105"/>
      <point x="480" y="92" type="curve" smooth="yes"/>
      <point x="1132" y="1117" type="line"/>
      <point x="1076" y="1117" type="line"/>
      <point x="397" y="48" type="line" smooth="yes"/>
      <point x="297" y="-109"/>
      <point x="232" y="-223"/>
      <point x="220" y="-288" type="curve" smooth="yes"/>
      <point x="203" y="-375"/>
      <point x="267" y="-442"/>
    </contour>
  </outline>
</glyph>
<glyph name="Ismall" format="2">
  <advance height="2479" width="506"/>
  <unicode hex="026A"/>
  <outline>
    <contour>
      <point x="535" y="1117" type="line" name="hr00"/>
      <point x="157" y="1117" type="line"/>
      <point x="148" y="1071" type="line"/>
      <point x="527" y="1071" type="line"/>
    </contour>
    <contour>
      <point x="365" y="1117" type="line"/>
      <point x="319" y="1117" type="line"/>
      <point x="132" y="0" type="line"/>
      <point x="179" y="0" type="line"/>
    </contour>
    <contour>
      <point x="358" y="47" type="line"/>
      <point x="-20" y="47" type="line"/>
      <point x="-29" y="0" type="line"/>
      <point x="349" y="0" type="line"/>
    </contour>
  </outline>
</glyph>
<glyph name="lbelt" format="2">
  <advance height="2479" width="685"/>
  <unicode hex="026C"/>
  <outline>
    <contour>
      <point x="620" y="676" type="line"/>
      <point x="625" y="723" type="line"/>
      <point x="295" y="723" type="line"/>
      <point x="176" y="723"/>
      <point x="98" y="804"/>
      <point x="116" y="903" type="curve" smooth="yes"/>
      <point x="135" y="1004"/>
      <point x="231" y="1084"/>
      <point x="329" y="1084" type="curve" smooth="yes"/>
      <point x="450" y="1084"/>
      <point x="495" y="996"/>
      <point x="476" y="880" type="curve" smooth="yes"/>
      <point x="432" y="621" type="line"/>
      <point x="479" y="620" type="line"/>
      <point x="522" y="880" type="line" smooth="yes"/>
      <point x="546" y="1022"/>
      <point x="475" y="1130"/>
      <point x="329" y="1130" type="curve" smooth="yes"/>
      <point x="205" y="1130"/>
      <point x="89" y="1031"/>
      <point x="70" y="903" type="curve" smooth="yes"/>
      <point x="50" y="778"/>
      <point x="150" y="676"/>
      <point x="295" y="676" type="curve"/>
    </contour>
    <contour>
      <point x="621" y="1489" type="line"/>
      <point x="575" y="1489" type="line"/>
      <point x="327" y="0" type="line"/>
      <point x="374" y="0" type="line"/>
    </contour>
  </outline>
</glyph>
<glyph name="lhookretroflex" format="2">
  <advance height="2479" width="475"/>
  <unicode hex="026D"/>
  <anchor x="129" y="0" name="bottom"/>
  <anchor x="257" y="768" name="cross"/>
  <anchor x="539" y="1489" name="raccent"/>
  <anchor x="408" y="1676" name="top"/>
  <outline>
    <contour>
      <point x="152" y="0" type="line"/>
      <point x="105" y="0" type="line"/>
      <point x="71" y="-205" type="line" smooth="yes"/>
      <point x="47" y="-341"/>
      <point x="97" y="-416"/>
      <point x="226" y="-416" type="curve"/>
      <point x="252" y="-416"/>
      <point x="273" y="-413"/>
      <point x="293" y="-409" type="curve"/>
      <point x="300" y="-362" type="line"/>
      <point x="283" y="-367"/>
      <point x="264" y="-369"/>
      <point x="235" y="-369" type="curve"/>
      <point x="121" y="-369"/>
      <point x="97" y="-321"/>
      <point x="119" y="-198" type="curve" smooth="yes"/>
    </contour>
    <component base="l" xOffset="1"/>
  </outline>
</glyph>
<glyph name="omegaclosed-latin" format="2">
  <advance height="2479" width="1414"/>
  <unicode hex="0277"/>
  <outline>
    <contour>
      <point x="804" y="1135" type="line"/>
      <point x="386" y="1134"/>
      <point x="106" y="918"/>
      <point x="41" y="524" type="curve" smooth="yes"/>
      <point x="-12" y="200"/>
      <point x="96" y="-17"/>
      <point x="313" y="-20" type="curve" smooth="yes"/>
      <point x="513" y="-23"/>
      <point x="664" y="159"/>
      <point x="714" y="463" type="curve" smooth="yes"/>
      <point x="745" y="643" type="line"/>
      <point x="698" y="643" type="line"/>
      <point x="666" y="448" type="line" smooth="yes"/>
      <point x="623" y="192"/>
      <point x="484" y="26"/>
      <point x="323" y="26" type="curve" smooth="yes"/>
      <point x="137" y="26"/>
      <point x="39" y="241"/>
      <point x="87" y="524" type="curve" smooth="yes"/>
      <point x="150" y="893"/>
      <point x="405" y="1087"/>
      <point x="796" y="1088" type="curve"/>
    </contour>
    <contour>
      <point x="793" y="1088" type="line"/>
      <point x="1185" y="1087"/>
      <point x="1374" y="893"/>
      <point x="1315" y="524" type="curve" smooth="yes"/>
      <point x="1270" y="241"/>
      <point x="1100" y="26"/>
      <point x="916" y="26" type="curve" smooth="yes"/>
      <point x="753" y="26"/>
      <point x="670" y="192"/>
      <point x="713" y="448" type="curve" smooth="yes"/>
      <point x="745" y="643" type="line"/>
      <point x="698" y="643" type="line"/>
      <point x="668" y="463" type="line" smooth="yes"/>
      <point x="617" y="159"/>
      <point x="709" y="-23"/>
      <point x="909" y="-20" type="curve" smooth="yes"/>
      <point x="1127" y="-17"/>
      <point x="1308" y="200"/>
      <point x="1361" y="524" type="curve" smooth="yes"/>
      <point x="1427" y="918"/>
      <point x="1218" y="1134"/>
      <point x="801" y="1135" type="curve"/>
    </contour>
  </outline>
</glyph>
<glyph name="rhookturned" format="2">
  <advance height="2479" width="643"/>
  <unicode hex="027B"/>
  <anchor x="259" y="0" name="bottom"/>
  <anchor x="448.0" y="582.0" name="cross"/>
  <anchor x="564" y="1303" name="top"/>
  <outline>
    <contour>
      <point x="471" y="-393" type="curve" smooth="yes"/>
      <point x="483" y="-393"/>
      <point x="497" y="-393"/>
      <point x="509" y="-393" type="curve"/>
      <point x="516" y="-346" type="line"/>
      <point x="505" y="-346"/>
      <point x="490" y="-346"/>
      <point x="479" y="-346" type="curve" smooth="yes"/>
      <point x="385" y="-346"/>
      <point x="330" y="-281"/>
      <point x="345" y="-186" type="curve" smooth="yes"/>
      <point x="375" y="0" type="line"/>
      <point x="329" y="0" type="line"/>
      <point x="298" y="-186" type="line" smooth="yes"/>
      <point x="278" y="-307"/>
      <point x="351" y="-393"/>
    </contour>
    <component base="rturned"/>
  </outline>
</glyph>
<glyph name="rtail" format="2">
  <advance height="2479" width="666"/>
  <unicode hex="027D"/>
  <anchor x="128" y="0" name="bottom"/>
  <anchor x="218" y="535" name="cross"/>
  <anchor x="550" y="1303" name="top"/>
  <outline>
    <contour>
      <point x="247" y="-393" type="curve" smooth="yes"/>
      <point x="259" y="-393"/>
      <point x="273" y="-393"/>
      <point x="285" y="-393" type="curve"/>
      <point x="292" y="-346" type="line"/>
      <point x="281" y="-346"/>
      <point x="266" y="-346"/>
      <point x="255" y="-346" type="curve" smooth="yes"/>
      <point x="161" y="-346"/>
      <point x="106" y="-281"/>
      <point x="121" y="-186" type="curve" smooth="yes"/>
      <point x="151" y="0" type="line"/>
      <point x="105" y="0" type="line"/>
      <point x="74" y="-186" type="line" smooth="yes"/>
      <point x="54" y="-307"/>
      <point x="127" y="-393"/>
    </contour>
    <component base="r"/>
  </outline>
</glyph>
<glyph name="rfishhookreversed" format="2">
  <advance height="2479" width="457"/>
  <unicode hex="027F"/>
  <outline>
    <contour>
      <point x="102" y="-416" type="line"/>
      <point x="329" y="945" type="line"/>
      <point x="352" y="1081"/>
      <point x="303" y="1156"/>
      <point x="173" y="1156" type="curve" smooth="yes"/>
      <point x="147" y="1156"/>
      <point x="127" y="1153"/>
      <point x="106" y="1149" type="curve"/>
      <point x="99" y="1103" type="line"/>
      <point x="116" y="1107"/>
      <point x="135" y="1110"/>
      <point x="164" y="1110" type="curve" smooth="yes"/>
      <point x="279" y="1110"/>
      <point x="303" y="1062"/>
      <point x="281" y="938" type="curve"/>
      <point x="55" y="-416" type="line"/>
    </contour>
  </outline>
</glyph>
<glyph name="Rsmall" format="2">
  <advance height="2479" width="1119"/>
  <unicode hex="0280"/>
  <outline>
    <contour>
      <point x="111" y="0" type="line"/>
      <point x="158" y="0" type="line"/>
      <point x="335" y="1072" type="line"/>
      <point x="665" y="1071" type="line" smooth="yes"/>
      <point x="879" y="1070"/>
      <point x="956" y="1005"/>
      <point x="927" y="829" type="curve" smooth="yes"/>
      <point x="897" y="650"/>
      <point x="793" y="582"/>
      <point x="583" y="582" type="curve" smooth="yes"/>
      <point x="232" y="582" type="line"/>
      <point x="223" y="535" type="line"/>
      <point x="577" y="535" type="line" smooth="yes"/>
      <point x="819" y="535"/>
      <point x="940" y="625"/>
      <point x="972" y="823" type="curve" smooth="yes"/>
      <point x="1007" y="1027"/>
      <point x="913" y="1117"/>
      <point x="671" y="1117" type="curve" smooth="yes"/>
      <point x="297" y="1117" type="line"/>
    </contour>
    <contour>
      <point x="873" y="0" type="line"/>
      <point x="926" y="0" type="line"/>
      <point x="687" y="556" type="line"/>
      <point x="635" y="556" type="line"/>
    </contour>
  </outline>
</glyph>
<glyph name="Rsmallinverted" format="2">
  <advance height="2479" width="1121"/>
  <unicode hex="0281"/>
  <outline>
    <contour>
      <point x="111" y="0" type="line"/>
      <point x="488" y="0" type="line" smooth="yes"/>
      <point x="731" y="0"/>
      <point x="851" y="87"/>
      <point x="884" y="288" type="curve" smooth="yes"/>
      <point x="917" y="489"/>
      <point x="823" y="582"/>
      <point x="583" y="582" type="curve" smooth="yes"/>
      <point x="232" y="582" type="line"/>
      <point x="223" y="535" type="line"/>
      <point x="577" y="535" type="line" smooth="yes"/>
      <point x="788" y="535"/>
      <point x="868" y="470"/>
      <point x="839" y="294" type="curve" smooth="yes"/>
      <point x="809" y="115"/>
      <point x="708" y="47"/>
      <point x="494" y="47" type="curve" smooth="yes"/>
      <point x="167" y="45" type="line"/>
      <point x="344" y="1117" type="line"/>
      <point x="297" y="1117" type="line"/>
    </contour>
    <contour>
      <point x="635" y="561" type="line"/>
      <point x="690" y="561" type="line"/>
      <point x="1112" y="1117" type="line"/>
      <point x="1057" y="1117" type="line"/>
    </contour>
  </outline>
</glyph>
<glyph name="shook" format="2">
  <advance height="2479" width="1009"/>
  <unicode hex="0282"/>
  <anchor x="422" y="0" name="bottom"/>
  <anchor x="419" y="0" name="cedilla"/>
  <anchor x="640" y="1303" name="top"/>
  <outline>
    <contour>
      <point x="87" y="259" type="line"/>
      <point x="38" y="-44" type="line" smooth="yes"/>
      <point x="15" y="-180"/>
      <point x="63" y="-255"/>
      <point x="193" y="-255" type="curve"/>
      <point x="219" y="-255"/>
      <point x="239" y="-252"/>
      <point x="260" y="-247" type="curve"/>
      <point x="268" y="-201" type="line"/>
      <point x="249" y="-205"/>
      <point x="231" y="-208"/>
      <point x="202" y="-208" type="curve"/>
      <point x="87" y="-208"/>
      <point x="65" y="-160"/>
      <point x="86" y="-36" type="curve" smooth="yes"/>
      <point x="134" y="259" type="line"/>
    </contour>
    <component base="s"/>
  </outline>
</glyph>
<glyph name="eshsquatreversed" format="2">
  <advance height="2479" width="788"/>
  <unicode hex="0285"/>
  <outline>
    <contour>
      <point x="343" y="115" type="line"/>
      <point x="470" y="879" type="line" smooth="yes"/>
      <point x="493" y="1021"/>
      <point x="399" y="1135"/>
      <point x="256" y="1135" type="curve" smooth="yes"/>
      <point x="220" y="1135"/>
      <point x="178" y="1129"/>
      <point x="151" y="1119" type="curve"/>
      <point x="144" y="1075" type="line"/>
      <point x="179" y="1084"/>
      <point x="219" y="1088"/>
      <point x="249" y="1088" type="curve" smooth="yes"/>
      <point x="371" y="1088"/>
      <point x="444" y="1004"/>
      <point x="423" y="879" type="curve" smooth="yes"/>
      <point x="297" y="112" type="line"/>
    </contour>
    <contour>
      <point x="371" y="559" type="line"/>
      <point x="247" y="-186" type="line" smooth="yes"/>
      <point x="223" y="-330"/>
      <point x="316" y="-442"/>
      <point x="464" y="-442" type="curve" smooth="yes"/>
      <point x="490" y="-442"/>
      <point x="536" y="-439"/>
      <point x="573" y="-431" type="curve"/>
      <point x="580" y="-384" type="line"/>
      <point x="544" y="-391"/>
      <point x="498" y="-396"/>
      <point x="473" y="-396" type="curve" smooth="yes"/>
      <point x="343" y="-396"/>
      <point x="273" y="-311"/>
      <point x="294" y="-186" type="curve" smooth="yes"/>
      <point x="417" y="561" type="line"/>
    </contour>
  </outline>
</glyph>
<glyph name="tretroflexhook" format="2">
  <advance height="2479" width="713"/>
  <unicode hex="0288"/>
  <outline>
    <contour>
      <point x="640" y="1117" type="line"/>
      <point x="198" y="1117" type="line"/>
      <point x="189" y="1071" type="line"/>
      <point x="631" y="1071" type="line"/>
    </contour>
    <contour>
      <point x="404" y="1385" type="line"/>
      <point x="145" y="-186" type="line" smooth="yes"/>
      <point x="119" y="-343"/>
      <point x="221" y="-442"/>
      <point x="358" y="-442" type="curve" smooth="yes"/>
      <point x="393" y="-442"/>
      <point x="419" y="-436"/>
      <point x="451" y="-425" type="curve"/>
      <point x="445" y="-381" type="line"/>
      <point x="416" y="-390"/>
      <point x="393" y="-396"/>
      <point x="367" y="-396" type="curve" smooth="yes"/>
      <point x="253" y="-396"/>
      <point x="170" y="-317"/>
      <point x="192" y="-186" type="curve" smooth="yes"/>
      <point x="451" y="1385" type="line"/>
    </contour>
  </outline>
</glyph>
<glyph name="ubar" format="2">
  <advance height="2479" width="1145"/>
  <unicode hex="0289"/>
  <anchor x="494" y="0" name="bottom"/>
  <anchor x="878" y="0" name="ogonek"/>
  <anchor x="709" y="1303" name="top"/>
  <outline>
    <contour>
      <point x="1136" y="673" type="line"/>
      <point x="25" y="673" type="line"/>
      <point x="17" y="627" type="line"/>
      <point x="1126" y="627" type="line"/>
    </contour>
    <component base="u" xOffset="6"/>
  </outline>
</glyph>
<glyph name="upsilon-latin" format="2">
  <advance height="2479" width="1188"/>
  <unicode hex="028A"/>
  <outline>
    <contour>
      <point x="501" y="-23" type="curve" smooth="yes"/>
      <point x="778" y="-23"/>
      <point x="994" y="185"/>
      <point x="1044" y="490" type="curve" smooth="yes"/>
      <point x="1086" y="743"/>
      <point x="999" y="963"/>
      <point x="830" y="1059" type="curve"/>
      <point x="833" y="1071" type="line"/>
      <point x="1141" y="1071" type="line"/>
      <point x="1150" y="1117" type="line"/>
      <point x="795" y="1117" type="line"/>
      <point x="784" y="1044" type="line"/>
      <point x="952" y="947"/>
      <point x="1038" y="734"/>
      <point x="1000" y="497" type="curve" smooth="yes"/>
      <point x="954" y="217"/>
      <point x="757" y="25"/>
      <point x="504" y="25" type="curve" smooth="yes"/>
      <point x="256" y="25"/>
      <point x="123" y="214"/>
      <point x="167" y="490" type="curve" smooth="yes"/>
      <point x="206" y="731"/>
      <point x="365" y="945"/>
      <point x="568" y="1044" type="curve"/>
      <point x="580" y="1117" type="line"/>
      <point x="225" y="1117" type="line"/>
      <point x="216" y="1071" type="line"/>
      <point x="525" y="1071" type="line"/>
      <point x="522" y="1059" type="line"/>
      <point x="322" y="965"/>
      <point x="165" y="746"/>
      <point x="123" y="497" type="curve" smooth="yes"/>
      <point x="72" y="188"/>
      <point x="221" y="-23"/>
    </contour>
  </outline>
</glyph>
<glyph name="Ysmall" format="2">
  <advance height="2479" width="943"/>
  <unicode hex="028F"/>
  <outline>
    <contour>
      <point x="355" y="0" type="line"/>
      <point x="401" y="0" type="line"/>
      <point x="490" y="531" type="line"/>
      <point x="982" y="1117" type="line"/>
      <point x="928" y="1117" type="line"/>
      <point x="477" y="585" type="line"/>
      <point x="473" y="585" type="line"/>
      <point x="198" y="1117" type="line"/>
      <point x="144" y="1117" type="line"/>
      <point x="444" y="531" type="line"/>
    </contour>
  </outline>
</glyph>
<glyph name="ezhcurl" format="2">
  <advance height="2479" width="1211"/>
  <unicode hex="0293"/>
  <outline>
    <contour>
      <point x="298" y="1117" type="line"/>
      <point x="289" y="1071" type="line"/>
      <point x="1005" y="1071" type="line"/>
      <point x="1005" y="1065" type="line"/>
      <point x="440" y="492" type="line"/>
      <point x="432" y="445" type="line"/>
      <point x="434" y="445" type="line" smooth="yes"/>
      <point x="765" y="445"/>
      <point x="941" y="321"/>
      <point x="904" y="86" type="curve" smooth="yes"/>
      <point x="866" y="-155"/>
      <point x="595" y="-372"/>
      <point x="331" y="-372" type="curve" smooth="yes"/>
      <point x="163" y="-372"/>
      <point x="68" y="-284"/>
      <point x="90" y="-150" type="curve" smooth="yes"/>
      <point x="111" y="-22"/>
      <point x="221" y="74"/>
      <point x="350" y="74" type="curve" smooth="yes"/>
      <point x="456" y="74"/>
      <point x="547" y="19"/>
      <point x="658" y="-112" type="curve" smooth="yes"/>
      <point x="842" y="-329" type="line"/>
      <point x="877" y="-297" type="line"/>
      <point x="699" y="-89" type="line" smooth="yes"/>
      <point x="576" y="57"/>
      <point x="470" y="121"/>
      <point x="354" y="121" type="curve" smooth="yes"/>
      <point x="197" y="121"/>
      <point x="69" y="10"/>
      <point x="43" y="-145" type="curve" smooth="yes"/>
      <point x="17" y="-304"/>
      <point x="136" y="-419"/>
      <point x="324" y="-419" type="curve" smooth="yes"/>
      <point x="621" y="-419"/>
      <point x="908" y="-188"/>
      <point x="951" y="86" type="curve" smooth="yes"/>
      <point x="989" y="328"/>
      <point x="812" y="475"/>
      <point x="498" y="489" type="curve"/>
      <point x="501" y="495" type="line"/>
      <point x="1077" y="1079" type="line"/>
      <point x="1083" y="1117" type="line"/>
    </contour>
  </outline>
</glyph>
<glyph name="glottalstopreversed" format="2">
  <advance height="2479" width="1128"/>
  <unicode hex="0295"/>
  <anchor x="543" y="227" name="cross"/>
  <outline>
    <contour>
      <point x="584" y="458" type="curve"/>
      <point x="588" y="505" type="line"/>
      <point x="334" y="505"/>
      <point x="199" y="695"/>
      <point x="248" y="991" type="curve" smooth="yes"/>
      <point x="297" y="1282"/>
      <point x="492" y="1478"/>
      <point x="738" y="1478" type="curve" smooth="yes"/>
      <point x="926" y="1478"/>
      <point x="1050" y="1360"/>
      <point x="1051" y="1181" type="curve"/>
      <point x="1100" y="1181" type="line"/>
      <point x="1099" y="1388"/>
      <point x="956" y="1524"/>
      <point x="738" y="1524" type="curve" smooth="yes"/>
      <point x="468" y="1524"/>
      <point x="255" y="1313"/>
      <point x="203" y="996" type="curve" smooth="yes"/>
      <point x="149" y="671"/>
      <point x="301" y="458"/>
    </contour>
    <contour>
      <point x="482" y="0" type="line"/>
      <point x="529" y="0" type="line"/>
      <point x="613" y="505" type="line"/>
      <point x="567" y="505" type="line"/>
    </contour>
  </outline>
</glyph>
<glyph name="cstretched" format="2">
  <advance height="2479" width="1132"/>
  <unicode hex="0297"/>
  <outline>
    <contour>
      <point x="443" y="-439" type="curve" smooth="yes"/>
      <point x="642" y="-439"/>
      <point x="839" y="-289"/>
      <point x="894" y="-90" type="curve"/>
      <point x="845" y="-90" type="line"/>
      <point x="797" y="-262"/>
      <point x="624" y="-392"/>
      <point x="449" y="-393" type="curve" smooth="yes"/>
      <point x="187" y="-392"/>
      <point x="69" y="-100"/>
      <point x="144" y="345" type="curve" smooth="yes"/>
      <point x="217" y="792"/>
      <point x="434" y="1087"/>
      <point x="696" y="1088" type="curve" smooth="yes"/>
      <point x="867" y="1087"/>
      <point x="995" y="960"/>
      <point x="989" y="791" type="curve"/>
      <point x="1037" y="791" type="line"/>
      <point x="1045" y="987"/>
      <point x="897" y="1135"/>
      <point x="699" y="1135" type="curve" smooth="yes"/>
      <point x="412" y="1135"/>
      <point x="176" y="823"/>
      <point x="97" y="351" type="curve" smooth="yes"/>
      <point x="18" y="-125"/>
      <point x="154" y="-439"/>
    </contour>
  </outline>
</glyph>
<glyph name="Gsmallhook" format="2">
  <advance height="2479" width="1216"/>
  <unicode hex="029B"/>
  <outline>
    <contour>
      <point x="1062" y="765" type="line" name="hr00"/>
      <point x="1084" y="884" type="line" smooth="yes"/>
      <point x="1103" y="1000"/>
      <point x="1151" y="1053"/>
      <point x="1252" y="1053" type="curve" smooth="yes"/>
      <point x="1267" y="1053"/>
      <point x="1294" y="1052"/>
      <point x="1321" y="1049" type="curve"/>
      <point x="1328" y="1095" type="line"/>
      <point x="1303" y="1098"/>
      <point x="1276" y="1100"/>
      <point x="1258" y="1100" type="curve" smooth="yes"/>
      <point x="1128" y="1100"/>
      <point x="1062" y="1035"/>
      <point x="1037" y="884" type="curve" smooth="yes"/>
      <point x="1015" y="765" type="line"/>
    </contour>
    <component base="Gsmall"/>
  </outline>
</glyph>
<glyph name="qhook" format="2">
  <advance height="2479" width="1248"/>
  <unicode hex="02A0"/>
  <anchor x="799" y="-419" name="bottom"/>
  <anchor x="-146" y="-506" name="bottom0315"/>
  <anchor x="843" y="-163" name="cross"/>
  <anchor x="694" y="1303" name="top"/>
  <outline>
    <contour>
      <point x="1090" y="1117" type="line"/>
      <point x="1113" y="1269"/>
      <point x="1162" y="1306"/>
      <point x="1257" y="1306" type="curve" smooth="yes"/>
      <point x="1278" y="1306"/>
      <point x="1305" y="1305"/>
      <point x="1330" y="1302" type="curve"/>
      <point x="1337" y="1348" type="line"/>
      <point x="1313" y="1351"/>
      <point x="1286" y="1353"/>
      <point x="1263" y="1353" type="curve" smooth="yes"/>
      <point x="1139" y="1353"/>
      <point x="1072" y="1304"/>
      <point x="1043" y="1117" type="curve"/>
    </contour>
    <contour>
      <point x="822" y="-419" type="line"/>
      <point x="1090" y="1117" type="line"/>
      <point x="1043" y="1117" type="line"/>
      <point x="993" y="832" type="line"/>
      <point x="987" y="832" type="line"/>
      <point x="961" y="1018"/>
      <point x="843" y="1135"/>
      <point x="662" y="1135" type="curve" smooth="yes"/>
      <point x="398" y="1135"/>
      <point x="188" y="887"/>
      <point x="131" y="556" type="curve" smooth="yes"/>
      <point x="74" y="227"/>
      <point x="198" y="-23"/>
      <point x="460" y="-23" type="curve" smooth="yes"/>
      <point x="638" y="-23"/>
      <point x="800" y="93"/>
      <point x="892" y="279" type="curve"/>
      <point x="898" y="279" type="line"/>
      <point x="776" y="-419" type="line"/>
    </contour>
    <contour>
      <point x="946" y="556" type="curve" smooth="yes"/>
      <point x="891" y="253"/>
      <point x="712" y="23"/>
      <point x="476" y="23" type="curve" smooth="yes"/>
      <point x="241" y="23"/>
      <point x="123" y="253"/>
      <point x="178" y="556" type="curve" smooth="yes"/>
      <point x="231" y="858"/>
      <point x="408" y="1088"/>
      <point x="646" y="1088" type="curve" smooth="yes"/>
      <point x="882" y="1088"/>
      <point x="999" y="858"/>
    </contour>
  </outline>
</glyph>
<glyph name="dzaltone" format="2">
  <advance height="2479" width="2010"/>
  <unicode hex="02A3"/>
  <anchor x="505" y="0" name="bottom"/>
  <anchor x="1090" y="1280" name="cross"/>
  <anchor x="1279" y="1489" name="raccent"/>
  <anchor x="728" y="1489" name="top"/>
  <outline>
    <contour>
      <point x="1033" y="0" type="line"/>
      <point x="1789" y="0" type="line"/>
      <point x="1798" y="47" type="line"/>
      <point x="1105" y="47" type="line"/>
      <point x="1105" y="52" type="line"/>
      <point x="1937" y="1071" type="line"/>
      <point x="1946" y="1117" type="line"/>
      <point x="1066" y="1117" type="line"/>
      <point x="1057" y="1071" type="line"/>
      <point x="1876" y="1071" type="line"/>
      <point x="1876" y="1065" type="line"/>
      <point x="1041" y="47" type="line"/>
    </contour>
    <component base="d"/>
  </outline>
</glyph>
<glyph name="dezh" format="2">
  <advance height="2479" width="2061"/>
  <unicode hex="02A4"/>
  <anchor x="505" y="0" name="bottom"/>
  <anchor x="1090" y="1280" name="cross"/>
  <anchor x="1279" y="1489" name="raccent"/>
  <anchor x="728" y="1489" name="top"/>
  <outline>
    <contour>
      <point x="1262" y="-442" type="curve" smooth="yes"/>
      <point x="1525" y="-442"/>
      <point x="1747" y="-244"/>
      <point x="1790" y="22" type="curve" smooth="yes"/>
      <point x="1834" y="287"/>
      <point x="1671" y="461"/>
      <point x="1383" y="474" type="curve"/>
      <point x="1385" y="480" type="line"/>
      <point x="1962" y="1079" type="line"/>
      <point x="1968" y="1117" type="line"/>
      <point x="1079" y="1117" type="line"/>
      <point x="1070" y="1071" type="line"/>
      <point x="1889" y="1071" type="line"/>
      <point x="1888" y="1065" type="line"/>
      <point x="1322" y="477" type="line"/>
      <point x="1315" y="431" type="line"/>
      <point x="1319" y="431" type="line" smooth="yes"/>
      <point x="1616" y="431"/>
      <point x="1786" y="274"/>
      <point x="1744" y="22" type="curve" smooth="yes"/>
      <point x="1705" y="-217"/>
      <point x="1501" y="-396"/>
      <point x="1264" y="-396" type="curve" smooth="yes"/>
      <point x="1098" y="-396"/>
      <point x="975" y="-334"/>
      <point x="947" y="-202" type="curve"/>
      <point x="902" y="-217" type="line"/>
      <point x="934" y="-366"/>
      <point x="1073" y="-442"/>
    </contour>
    <component base="d"/>
  </outline>
</glyph>
<glyph name="dzcurl" format="2">
  <advance height="2479" width="2130"/>
  <unicode hex="02A5"/>
  <anchor x="505" y="0" name="bottom"/>
  <anchor x="1090" y="1280" name="cross"/>
  <anchor x="1279" y="1489" name="raccent"/>
  <anchor x="728" y="1489" name="top"/>
  <outline>
    <contour>
      <point x="1578" y="0" type="line"/>
      <point x="1743" y="0" type="line"/>
      <point x="1884" y="0"/>
      <point x="2012" y="100"/>
      <point x="2031" y="227" type="curve" smooth="yes"/>
      <point x="2051" y="352"/>
      <point x="1958" y="454"/>
      <point x="1812" y="454" type="curve" smooth="yes"/>
      <point x="1681" y="454"/>
      <point x="1564" y="372"/>
      <point x="1383" y="144" type="curve" smooth="yes"/>
      <point x="1175" y="-119" type="line"/>
      <point x="1213" y="-143" type="line"/>
      <point x="1421" y="121" type="line" smooth="yes"/>
      <point x="1590" y="335"/>
      <point x="1699" y="407"/>
      <point x="1812" y="407" type="curve" smooth="yes"/>
      <point x="1930" y="407"/>
      <point x="2003" y="326"/>
      <point x="1984" y="227" type="curve" smooth="yes"/>
      <point x="1965" y="127"/>
      <point x="1859" y="47"/>
      <point x="1743" y="47" type="curve"/>
      <point x="1583" y="47" type="line"/>
    </contour>
    <contour>
      <point x="1696" y="47" type="line"/>
      <point x="1100" y="47" type="line"/>
      <point x="1937" y="1071" type="line"/>
      <point x="1946" y="1117" type="line"/>
      <point x="1059" y="1117" type="line"/>
      <point x="1050" y="1071" type="line"/>
      <point x="1882" y="1071" type="line"/>
      <point x="1041" y="47" type="line"/>
      <point x="1033" y="0" type="line"/>
      <point x="1687" y="0" type="line"/>
    </contour>
    <component base="d"/>
  </outline>
</glyph>
<glyph name="ts" format="2">
  <advance height="2479" width="1569"/>
  <unicode hex="02A6"/>
  <outline>
    <contour>
      <point x="420" y="-20" type="curve" smooth="yes"/>
      <point x="551" y="-20"/>
      <point x="644" y="71"/>
      <point x="695" y="256" type="curve"/>
      <point x="649" y="256" type="line"/>
      <point x="602" y="103"/>
      <point x="523" y="26"/>
      <point x="419" y="26" type="curve" smooth="yes"/>
      <point x="320" y="26"/>
      <point x="239" y="101"/>
      <point x="260" y="234" type="curve" smooth="yes"/>
      <point x="451" y="1385" type="line"/>
      <point x="404" y="1385" type="line"/>
      <point x="214" y="237" type="line" smooth="yes"/>
      <point x="187" y="74"/>
      <point x="285" y="-20"/>
    </contour>
    <contour>
      <point x="189" y="1071" type="line"/>
      <point x="631" y="1071" type="line"/>
      <point x="640" y="1117" type="line"/>
      <point x="198" y="1117" type="line"/>
    </contour>
    <contour>
      <point x="973" y="-23" type="curve" smooth="yes"/>
      <point x="1191" y="-23"/>
      <point x="1359" y="93"/>
      <point x="1389" y="273" type="curve" smooth="yes"/>
      <point x="1412" y="413"/>
      <point x="1341" y="521"/>
      <point x="1184" y="561" type="curve" smooth="yes"/>
      <point x="1015" y="605" type="line" smooth="yes"/>
      <point x="870" y="643"/>
      <point x="812" y="718"/>
      <point x="831" y="832" type="curve" smooth="yes"/>
      <point x="855" y="983"/>
      <point x="996" y="1088"/>
      <point x="1180" y="1088" type="curve" smooth="yes"/>
      <point x="1327" y="1088"/>
      <point x="1409" y="1020"/>
      <point x="1433" y="874" type="curve"/>
      <point x="1479" y="880" type="line"/>
      <point x="1453" y="1046"/>
      <point x="1348" y="1135"/>
      <point x="1171" y="1135" type="curve" smooth="yes"/>
      <point x="969" y="1135"/>
      <point x="813" y="1021"/>
      <point x="784" y="849" type="curve" smooth="yes"/>
      <point x="761" y="707"/>
      <point x="838" y="602"/>
      <point x="1004" y="559" type="curve" smooth="yes"/>
      <point x="1169" y="515" type="line" smooth="yes"/>
      <point x="1306" y="479"/>
      <point x="1364" y="404"/>
      <point x="1345" y="291" type="curve" smooth="yes"/>
      <point x="1320" y="133"/>
      <point x="1167" y="23"/>
      <point x="967" y="23" type="curve" smooth="yes"/>
      <point x="791" y="23"/>
      <point x="701" y="100"/>
      <point x="695" y="256" type="curve"/>
      <point x="649" y="256" type="line"/>
      <point x="657" y="76"/>
      <point x="772" y="-23"/>
    </contour>
  </outline>
</glyph>
<glyph name="lsdigraph" format="2">
  <advance height="2479" width="1304"/>
  <unicode hex="02AA"/>
  <anchor x="122" y="0" name="bottom"/>
  <anchor x="162" y="768" name="cross"/>
  <anchor x="444" y="1489" name="raccent"/>
  <anchor x="314" y="1676" name="top"/>
  <outline>
    <contour>
      <point x="158" y="-4" type="line"/>
      <point x="318" y="-4"/>
      <point x="377" y="65"/>
      <point x="430" y="256" type="curve"/>
      <point x="384" y="256" type="line"/>
      <point x="338" y="105"/>
      <point x="310" y="41"/>
      <point x="168" y="41" type="curve"/>
    </contour>
    <contour>
      <point x="708" y="-23" type="curve" smooth="yes"/>
      <point x="926" y="-23"/>
      <point x="1094" y="93"/>
      <point x="1124" y="273" type="curve" smooth="yes"/>
      <point x="1147" y="413"/>
      <point x="1076" y="520"/>
      <point x="919" y="561" type="curve" smooth="yes"/>
      <point x="750" y="605" type="line" smooth="yes"/>
      <point x="605" y="643"/>
      <point x="547" y="718"/>
      <point x="566" y="832" type="curve" smooth="yes"/>
      <point x="590" y="983"/>
      <point x="731" y="1088"/>
      <point x="915" y="1088" type="curve" smooth="yes"/>
      <point x="1062" y="1088"/>
      <point x="1144" y="1020"/>
      <point x="1168" y="874" type="curve"/>
      <point x="1214" y="880" type="line"/>
      <point x="1188" y="1046"/>
      <point x="1083" y="1135"/>
      <point x="906" y="1135" type="curve" smooth="yes"/>
      <point x="704" y="1135"/>
      <point x="548" y="1021"/>
      <point x="519" y="849" type="curve" smooth="yes"/>
      <point x="496" y="707"/>
      <point x="573" y="603"/>
      <point x="739" y="559" type="curve" smooth="yes"/>
      <point x="904" y="515" type="line" smooth="yes"/>
      <point x="1041" y="479"/>
      <point x="1099" y="404"/>
      <point x="1080" y="291" type="curve" smooth="yes"/>
      <point x="1055" y="133"/>
      <point x="902" y="23"/>
      <point x="702" y="23" type="curve" smooth="yes"/>
      <point x="526" y="23"/>
      <point x="436" y="100"/>
      <point x="430" y="256" type="curve"/>
      <point x="384" y="256" type="line"/>
      <point x="392" y="76"/>
      <point x="507" y="-23"/>
    </contour>
    <component base="l.ss02" xOffset="-93"/>
  </outline>
</glyph>
<glyph name="lzdigraph" format="2">
  <advance height="2479" width="1254"/>
  <unicode hex="02AB"/>
  <outline>
    <contour>
      <point x="1089" y="47" type="line"/>
      <point x="348" y="47" type="line"/>
      <point x="339" y="0" type="line"/>
      <point x="1081" y="0" type="line"/>
    </contour>
    <contour>
      <point x="1229" y="1071" type="line"/>
      <point x="1236" y="1117" type="line"/>
      <point x="1207" y="1117" type="line"/>
      <point x="333" y="47" type="line"/>
      <point x="324" y="0" type="line"/>
      <point x="355" y="0" type="line"/>
    </contour>
    <contour>
      <point x="1226" y="1117" type="line"/>
      <point x="305" y="1117" type="line"/>
      <point x="298" y="1071" type="line"/>
      <point x="1219" y="1071" type="line"/>
    </contour>
    <contour>
      <point x="393" y="1489" type="line"/>
      <point x="346" y="1489" type="line"/>
      <point x="99" y="0" type="line"/>
      <point x="145" y="0" type="line"/>
    </contour>
  </outline>
</glyph>
<glyph name="hturnedfishhook" format="2">
  <advance height="2479" width="1304"/>
  <unicode hex="02AE"/>
  <outline>
    <contour>
      <point x="211" y="1087" type="line"/>
      <point x="230" y="1091"/>
      <point x="249" y="1094"/>
      <point x="277" y="1094" type="curve" smooth="yes"/>
      <point x="392" y="1094"/>
      <point x="415" y="1046"/>
      <point x="393" y="922" type="curve" smooth="yes"/>
      <point x="300" y="367" type="line" smooth="yes"/>
      <point x="262" y="143"/>
      <point x="393" y="-15"/>
      <point x="617" y="-15" type="curve" smooth="yes"/>
      <point x="771" y="-15"/>
      <point x="914" y="61"/>
      <point x="984" y="177" type="curve"/>
      <point x="990" y="177" type="line"/>
      <point x="889" y="-419" type="line"/>
      <point x="936" y="-419" type="line"/>
      <point x="1193" y="1117" type="line"/>
      <point x="1147" y="1117" type="line"/>
      <point x="1022" y="367" type="line" smooth="yes"/>
      <point x="990" y="172"/>
      <point x="824" y="32"/>
      <point x="626" y="32" type="curve" smooth="yes"/>
      <point x="428" y="32"/>
      <point x="313" y="169"/>
      <point x="347" y="367" type="curve" smooth="yes"/>
      <point x="441" y="929" type="line" smooth="yes"/>
      <point x="464" y="1066"/>
      <point x="416" y="1140"/>
      <point x="286" y="1140" type="curve" smooth="yes"/>
      <point x="261" y="1140"/>
      <point x="240" y="1137"/>
      <point x="219" y="1133" type="curve"/>
    </contour>
  </outline>
</glyph>
<glyph name="hturnedfishhookandtail" format="2">
  <advance height="2479" width="1318"/>
  <unicode hex="02AF"/>
  <outline>
    <contour>
      <point x="211" y="1087" type="line"/>
      <point x="230" y="1091"/>
      <point x="249" y="1094"/>
      <point x="277" y="1094" type="curve" smooth="yes"/>
      <point x="392" y="1094"/>
      <point x="415" y="1046"/>
      <point x="393" y="922" type="curve" smooth="yes"/>
      <point x="300" y="367" type="line" smooth="yes"/>
      <point x="262" y="143"/>
      <point x="393" y="-15"/>
      <point x="617" y="-15" type="curve" smooth="yes"/>
      <point x="771" y="-15"/>
      <point x="914" y="61"/>
      <point x="984" y="177" type="curve"/>
      <point x="990" y="177" type="line"/>
      <point x="924" y="-205" type="line" smooth="yes"/>
      <point x="901" y="-342"/>
      <point x="950" y="-416"/>
      <point x="1080" y="-416" type="curve" smooth="yes"/>
      <point x="1106" y="-416"/>
      <point x="1126" y="-413"/>
      <point x="1147" y="-409" type="curve"/>
      <point x="1154" y="-362" type="line"/>
      <point x="1136" y="-367"/>
      <point x="1118" y="-369"/>
      <point x="1088" y="-369" type="curve" smooth="yes"/>
      <point x="975" y="-369"/>
      <point x="952" y="-321"/>
      <point x="972" y="-198" type="curve" smooth="yes"/>
      <point x="1193" y="1117" type="line"/>
      <point x="1147" y="1117" type="line"/>
      <point x="1022" y="367" type="line" smooth="yes"/>
      <point x="990" y="172"/>
      <point x="824" y="32"/>
      <point x="626" y="32" type="curve" smooth="yes"/>
      <point x="428" y="32"/>
      <point x="313" y="169"/>
      <point x="347" y="367" type="curve" smooth="yes"/>
      <point x="441" y="929" type="line" smooth="yes"/>
      <point x="464" y="1066"/>
      <point x="416" y="1140"/>
      <point x="286" y="1140" type="curve" smooth="yes"/>
      <point x="261" y="1140"/>
      <point x="240" y="1137"/>
      <point x="219" y="1133" type="curve"/>
    </contour>
  </outline>
</glyph>
<glyph name="jmod" format="2">
  <advance height="2479" width="305"/>
  <unicode hex="02B2"/>
  <outline>
    <contour>
      <point x="285" y="1489" type="line"/>
      <point x="145" y="646" type="line" smooth="yes"/>
      <point x="131" y="561"/>
      <point x="64" y="509"/>
      <point x="-12" y="509" type="curve" smooth="yes"/>
      <point x="-17" y="509"/>
      <point x="-20" y="509"/>
      <point x="-26" y="509" type="curve"/>
      <point x="-35" y="468" type="line"/>
      <point x="-29" y="465"/>
      <point x="-23" y="465"/>
      <point x="-17" y="465" type="curve" smooth="yes"/>
      <point x="81" y="465"/>
      <point x="175" y="535"/>
      <point x="192" y="646" type="curve" smooth="yes"/>
      <point x="332" y="1489" type="line"/>
    </contour>
    <contour>
      <point x="335" y="1626" type="curve" smooth="yes"/>
      <point x="349" y="1626"/>
      <point x="372" y="1635"/>
      <point x="375" y="1661" type="curve" smooth="yes"/>
      <point x="378" y="1684"/>
      <point x="364" y="1702"/>
      <point x="337" y="1702" type="curve" smooth="yes"/>
      <point x="320" y="1702"/>
      <point x="300" y="1687"/>
      <point x="297" y="1667" type="curve" smooth="yes"/>
      <point x="294" y="1644"/>
      <point x="311" y="1626"/>
    </contour>
  </outline>
</glyph>
<glyph name="rmod" format="2">
  <advance height="2479" width="500"/>
  <unicode hex="02B3"/>
  <outline>
    <contour>
      <point x="157" y="745" type="line"/>
      <point x="201" y="745" type="line"/>
      <point x="285" y="1239" type="line" smooth="yes"/>
      <point x="305" y="1364"/>
      <point x="416" y="1455"/>
      <point x="541" y="1455" type="curve" smooth="yes"/>
      <point x="573" y="1455"/>
      <point x="596" y="1449"/>
      <point x="611" y="1443" type="curve"/>
      <point x="631" y="1484" type="line"/>
      <point x="611" y="1492"/>
      <point x="582" y="1498"/>
      <point x="547" y="1498" type="curve" smooth="yes"/>
      <point x="454" y="1498"/>
      <point x="355" y="1449"/>
      <point x="311" y="1370" type="curve"/>
      <point x="305" y="1370" type="line"/>
      <point x="326" y="1489" type="line"/>
      <point x="282" y="1489" type="line"/>
    </contour>
  </outline>
</glyph>
<glyph name="rturnedmod" format="2">
  <advance height="2479" width="445"/>
  <unicode hex="02B4"/>
  <outline>
    <contour>
      <point x="83" y="643" type="line"/>
      <point x="100" y="639"/>
      <point x="119" y="637"/>
      <point x="143" y="637" type="curve" smooth="yes"/>
      <point x="300" y="637"/>
      <point x="402" y="765"/>
      <point x="445" y="1018" type="curve"/>
      <point x="415" y="1018" type="line"/>
      <point x="378" y="799"/>
      <point x="286" y="684"/>
      <point x="147" y="684" type="curve" smooth="yes"/>
      <point x="129" y="684"/>
      <point x="111" y="686"/>
      <point x="90" y="689" type="curve"/>
    </contour>
    <contour>
      <point x="393" y="887" type="line"/>
      <point x="362" y="652" type="line"/>
      <point x="401" y="652" type="line"/>
      <point x="532" y="1446" type="line"/>
      <point x="486" y="1446" type="line"/>
    </contour>
  </outline>
</glyph>
<glyph name="Rsmallinvertedmod" format="2">
  <advance height="2479" width="851"/>
  <unicode hex="02B6"/>
  <outline>
    <contour>
      <point x="585" y="1108" type="line"/>
      <point x="915" y="1446" type="line"/>
      <point x="849" y="1446" type="line"/>
      <point x="545" y="1135" type="line"/>
    </contour>
    <contour>
      <point x="406" y="652" type="line"/>
      <point x="595" y="650"/>
      <point x="725" y="745"/>
      <point x="753" y="905" type="curve" smooth="yes"/>
      <point x="778" y="1045"/>
      <point x="692" y="1146"/>
      <point x="554" y="1146" type="curve" smooth="yes"/>
      <point x="225" y="1146" type="line"/>
      <point x="218" y="1100" type="line"/>
      <point x="535" y="1100" type="line" smooth="yes"/>
      <point x="670" y="1100"/>
      <point x="727" y="1034"/>
      <point x="705" y="902" type="curve" smooth="yes"/>
      <point x="685" y="777"/>
      <point x="570" y="698"/>
      <point x="407" y="698" type="curve" smooth="yes"/>
      <point x="154" y="698" type="line"/>
      <point x="278" y="1446" type="line"/>
      <point x="231" y="1446" type="line"/>
      <point x="100" y="652" type="line"/>
    </contour>
  </outline>
</glyph>
<glyph name="primemod" format="2">
  <advance height="2479" width="407"/>
  <unicode hex="02B9"/>
  <outline>
    <contour>
      <point x="259" y="1001" type="line"/>
      <point x="294" y="1001" type="line"/>
      <point x="387" y="1489" type="line"/>
      <point x="329" y="1489" type="line"/>
    </contour>
  </outline>
</glyph>
<glyph name="commareversedmod" format="2">
  <advance height="2479" width="527"/>
  <unicode hex="02BD"/>
  <outline>
    <contour>
      <point x="374" y="992" type="curve"/>
      <point x="412" y="992" type="line"/>
      <point x="410" y="1103"/>
      <point x="407" y="1281"/>
      <point x="403" y="1478" type="curve" smooth="yes"/>
      <point x="401" y="1559" type="line"/>
      <point x="352" y="1559" type="line"/>
      <point x="353" y="1484" type="line" smooth="yes"/>
      <point x="356" y="1343"/>
      <point x="358" y="1101"/>
    </contour>
  </outline>
</glyph>
<glyph name="ringhalfright" format="2">
  <advance height="2479" width="308"/>
  <unicode hex="02BE"/>
  <anchor x="230" y="1187" name="_rhalfring"/>
  <outline>
    <contour>
      <point x="115" y="1111" type="line"/>
      <point x="239" y="1111"/>
      <point x="335" y="1191"/>
      <point x="355" y="1311" type="curve" smooth="yes"/>
      <point x="374" y="1423"/>
      <point x="297" y="1510"/>
      <point x="180" y="1510" type="curve"/>
      <point x="173" y="1463" type="line"/>
      <point x="271" y="1463"/>
      <point x="324" y="1404"/>
      <point x="308" y="1311" type="curve" smooth="yes"/>
      <point x="294" y="1223"/>
      <point x="214" y="1158"/>
      <point x="122" y="1158" type="curve"/>
    </contour>
  </outline>
</glyph>
<glyph name="ringhalfleft" format="2">
  <advance height="2479" width="308"/>
  <unicode hex="02BF"/>
  <outline>
    <contour>
      <point x="377" y="1111" type="curve"/>
      <point x="384" y="1158" type="line"/>
      <point x="292" y="1158"/>
      <point x="236" y="1223"/>
      <point x="250" y="1311" type="curve" smooth="yes"/>
      <point x="265" y="1399"/>
      <point x="342" y="1463"/>
      <point x="435" y="1463" type="curve"/>
      <point x="442" y="1510" type="line"/>
      <point x="324" y="1510"/>
      <point x="223" y="1425"/>
      <point x="204" y="1311" type="curve" smooth="yes"/>
      <point x="185" y="1199"/>
      <point x="259" y="1111"/>
    </contour>
  </outline>
</glyph>
<glyph name="glottalstopmod" format="2">
  <advance height="2479" width="743"/>
  <unicode hex="02C0"/>
  <outline>
    <contour>
      <point x="265" y="1539" type="curve"/>
      <point x="311" y="1539" type="line"/>
      <point x="353" y="1675"/>
      <point x="460" y="1760"/>
      <point x="586" y="1760" type="curve" smooth="yes"/>
      <point x="717" y="1760"/>
      <point x="778" y="1672"/>
      <point x="752" y="1519" type="curve" smooth="yes"/>
      <point x="713" y="1274" type="line" smooth="yes"/>
      <point x="681" y="1105"/>
      <point x="607" y="1031"/>
      <point x="471" y="1033" type="curve"/>
      <point x="465" y="1033" type="line"/>
      <point x="458" y="986" type="line"/>
      <point x="463" y="986" type="line"/>
      <point x="628" y="987"/>
      <point x="727" y="1086"/>
      <point x="759" y="1280" type="curve" smooth="yes"/>
      <point x="799" y="1511" type="line" smooth="yes"/>
      <point x="828" y="1689"/>
      <point x="748" y="1805"/>
      <point x="591" y="1807" type="curve" smooth="yes"/>
      <point x="441" y="1808"/>
      <point x="305" y="1705"/>
    </contour>
    <contour>
      <point x="451" y="1033" type="line"/>
      <point x="388" y="652" type="line"/>
      <point x="435" y="652" type="line"/>
      <point x="497" y="1033" type="line"/>
    </contour>
  </outline>
</glyph>
<glyph name="arrowheadleftmod" format="2">
  <advance height="2479" width="919"/>
  <unicode hex="02C2"/>
  <outline>
    <contour>
      <point x="193" y="940" type="line"/>
      <point x="278" y="973" type="line"/>
      <point x="954" y="1263" type="line"/>
      <point x="963" y="1313" type="line"/>
      <point x="202" y="988" type="line"/>
    </contour>
    <contour>
      <point x="847" y="611" type="line"/>
      <point x="855" y="662" type="line"/>
      <point x="275" y="951" type="line"/>
      <point x="202" y="985" type="line"/>
      <point x="193" y="937" type="line"/>
    </contour>
  </outline>
</glyph>
<glyph name="arrowheadrightmod" format="2">
  <advance height="2479" width="919"/>
  <unicode hex="02C3"/>
  <outline>
    <contour>
      <point x="900" y="940" type="line"/>
      <point x="909" y="988" type="line"/>
      <point x="256" y="1313" type="line"/>
      <point x="247" y="1263" type="line"/>
      <point x="828" y="973" type="line"/>
    </contour>
    <contour>
      <point x="140" y="611" type="line"/>
      <point x="900" y="937" type="line"/>
      <point x="909" y="985" type="line"/>
      <point x="825" y="951" type="line"/>
      <point x="148" y="662" type="line"/>
    </contour>
  </outline>
</glyph>
<glyph name="arrowheadupmod" format="2">
  <advance height="2479" width="851"/>
  <unicode hex="02C4"/>
  <outline>
    <contour>
      <point x="732" y="596" type="line"/>
      <point x="783" y="596" type="line"/>
      <point x="575" y="1303" type="line"/>
      <point x="527" y="1303" type="line"/>
      <point x="547" y="1225" type="line"/>
    </contour>
    <contour>
      <point x="80" y="596" type="line"/>
      <point x="131" y="596" type="line"/>
      <point x="525" y="1225" type="line"/>
      <point x="572" y="1303" type="line"/>
      <point x="524" y="1303" type="line"/>
    </contour>
  </outline>
</glyph>
<glyph name="arrowheaddownmod" format="2">
  <advance height="2479" width="851"/>
  <unicode hex="02C5"/>
  <outline>
    <contour>
      <point x="409" y="596" type="line"/>
      <point x="457" y="596" type="line"/>
      <point x="900" y="1303" type="line"/>
      <point x="849" y="1303" type="line"/>
      <point x="455" y="675" type="line"/>
    </contour>
    <contour>
      <point x="406" y="596" type="line"/>
      <point x="454" y="596" type="line"/>
      <point x="433" y="675" type="line"/>
      <point x="249" y="1303" type="line"/>
      <point x="198" y="1303" type="line"/>
    </contour>
  </outline>
</glyph>
<glyph name="caron" format="2">
  <advance height="2479" width="861"/>
  <unicode hex="02C7"/>
  <anchor x="551" y="1287" name="_top"/>
  <outline>
    <contour>
      <point x="372" y="1536" type="line"/>
      <point x="320" y="1536" type="line"/>
      <point x="317" y="1530" type="line"/>
      <point x="541" y="1257" type="line"/>
      <point x="553" y="1257" type="line"/>
      <point x="864" y="1530" type="line"/>
      <point x="867" y="1536" type="line"/>
      <point x="800" y="1536" type="line"/>
      <point x="551" y="1316" type="line"/>
    </contour>
  </outline>
</glyph>
<glyph name="uptackmod" format="2">
  <advance height="2479" width="665"/>
  <unicode hex="02D4"/>
  <outline>
    <contour>
      <point x="252" y="192" type="line"/>
      <point x="298" y="192" type="line"/>
      <point x="349" y="497" type="line"/>
      <point x="303" y="497" type="line"/>
    </contour>
    <contour>
      <point x="116" y="192" type="line"/>
      <point x="433" y="192" type="line"/>
      <point x="441" y="239" type="line"/>
      <point x="124" y="239" type="line"/>
    </contour>
  </outline>
</glyph>
<glyph name="downtackmod" format="2">
  <advance height="2479" width="666"/>
  <unicode hex="02D5"/>
  <outline>
    <contour>
      <point x="157" y="451" type="line"/>
      <point x="474" y="451" type="line"/>
      <point x="481" y="497" type="line"/>
      <point x="164" y="497" type="line"/>
    </contour>
    <contour>
      <point x="249" y="192" type="line"/>
      <point x="295" y="192" type="line"/>
      <point x="346" y="497" type="line"/>
      <point x="300" y="497" type="line"/>
    </contour>
  </outline>
</glyph>
<glyph name="plusmod" format="2">
  <advance height="2479" width="665"/>
  <unicode hex="02D6"/>
  <outline>
    <contour>
      <point x="343" y="495" type="line"/>
      <point x="297" y="495" type="line"/>
      <point x="250" y="186" type="line"/>
      <point x="297" y="186" type="line"/>
    </contour>
    <contour>
      <point x="141" y="364" type="line"/>
      <point x="135" y="317" type="line"/>
      <point x="452" y="317" type="line"/>
      <point x="458" y="364" type="line"/>
    </contour>
  </outline>
</glyph>
<glyph name="breve" format="2">
  <advance height="2479" width="849"/>
  <unicode hex="02D8"/>
  <anchor x="550" y="1303" name="_top"/>
  <anchor x="599" y="1609" name="mkmktop_acc"/>
  <outline>
    <contour>
      <point x="697" y="1489" type="line"/>
      <point x="684" y="1412"/>
      <point x="636" y="1370"/>
      <point x="560" y="1370" type="curve" smooth="yes"/>
      <point x="484" y="1370"/>
      <point x="451" y="1412"/>
      <point x="464" y="1489" type="curve"/>
      <point x="417" y="1489" type="line"/>
      <point x="400" y="1388"/>
      <point x="451" y="1324"/>
      <point x="553" y="1324" type="curve" smooth="yes"/>
      <point x="655" y="1324"/>
      <point x="726" y="1388"/>
      <point x="743" y="1489" type="curve"/>
    </contour>
  </outline>
</glyph>
<glyph name="dotaccent" format="2">
  <advance height="2479" width="372"/>
  <unicode hex="02D9"/>
  <anchor x="310" y="1303" name="_top"/>
  <outline>
    <contour>
      <point x="317" y="1321" type="curve" smooth="yes"/>
      <point x="340" y="1321"/>
      <point x="363" y="1340"/>
      <point x="367" y="1361" type="curve" smooth="yes"/>
      <point x="372" y="1391"/>
      <point x="352" y="1414"/>
      <point x="323" y="1414" type="curve" smooth="yes"/>
      <point x="300" y="1414"/>
      <point x="277" y="1393"/>
      <point x="273" y="1373" type="curve" smooth="yes"/>
      <point x="268" y="1344"/>
      <point x="288" y="1321"/>
    </contour>
  </outline>
</glyph>
<glyph name="tilde" format="2">
  <advance height="2479" width="1018"/>
  <unicode hex="02DC"/>
  <anchor x="631" y="1303" name="_top"/>
  <anchor x="692" y="1676" name="top"/>
  <outline>
    <contour>
      <point x="346" y="1312" type="line"/>
      <point x="367" y="1379"/>
      <point x="433" y="1425"/>
      <point x="509" y="1425" type="curve" smooth="yes"/>
      <point x="634" y="1425"/>
      <point x="652" y="1306"/>
      <point x="777" y="1306" type="curve" smooth="yes"/>
      <point x="864" y="1306"/>
      <point x="957" y="1367"/>
      <point x="992" y="1455" type="curve"/>
      <point x="948" y="1466" type="line"/>
      <point x="922" y="1399"/>
      <point x="849" y="1353"/>
      <point x="783" y="1353" type="curve" smooth="yes"/>
      <point x="675" y="1353"/>
      <point x="652" y="1472"/>
      <point x="518" y="1472" type="curve" smooth="yes"/>
      <point x="419" y="1472"/>
      <point x="329" y="1408"/>
      <point x="300" y="1318" type="curve"/>
    </contour>
  </outline>
</glyph>
<glyph name="rhotichookmod" format="2">
  <advance height="2479" width="551"/>
  <unicode hex="02DE"/>
  <anchor x="35" y="634" name="_rhotichook"/>
  <outline>
    <contour>
      <point x="26" y="604" type="line"/>
      <point x="287" y="644" type="line"/>
      <point x="276" y="515"/>
      <point x="328" y="431"/>
      <point x="425" y="428" type="curve" smooth="yes"/>
      <point x="450" y="427"/>
      <point x="478" y="432"/>
      <point x="511" y="444" type="curve"/>
      <point x="505" y="483" type="line"/>
      <point x="483" y="476"/>
      <point x="460" y="472"/>
      <point x="436" y="473" type="curve" smooth="yes"/>
      <point x="345" y="476"/>
      <point x="318" y="545"/>
      <point x="339" y="700" type="curve"/>
      <point x="35" y="650" type="line"/>
    </contour>
  </outline>
</glyph>
<glyph name="crossaccentmod" format="2">
  <advance height="2479" width="673"/>
  <unicode hex="02DF"/>
  <outline>
    <contour>
      <point x="288" y="1191" type="line"/>
      <point x="687" y="1539" type="line"/>
      <point x="657" y="1574" type="line"/>
      <point x="257" y="1226" type="line"/>
    </contour>
    <contour>
      <point x="599" y="1191" type="line"/>
      <point x="634" y="1222" type="line"/>
      <point x="355" y="1577" type="line"/>
      <point x="321" y="1545" type="line"/>
    </contour>
  </outline>
</glyph>
<glyph name="gammamod-latin" format="2">
  <advance height="2479" width="768"/>
  <unicode hex="02E0"/>
  <outline>
    <contour>
      <point x="461" y="769" type="line"/>
      <point x="428" y="689" type="line"/>
      <point x="471" y="689" type="line"/>
      <point x="867" y="1446" type="line"/>
      <point x="815" y="1446" type="line"/>
    </contour>
    <contour>
      <point x="326" y="1446" type="line"/>
      <point x="279" y="1446" type="line"/>
      <point x="425" y="689" type="line"/>
      <point x="465" y="689" type="line"/>
      <point x="455" y="769" type="line"/>
    </contour>
    <contour>
      <point x="374" y="208" type="curve" smooth="yes"/>
      <point x="464" y="208"/>
      <point x="530" y="263"/>
      <point x="543" y="348" type="curve" smooth="yes"/>
      <point x="549" y="393"/>
      <point x="541" y="457"/>
      <point x="502" y="655" type="curve" smooth="yes"/>
      <point x="487" y="727" type="line"/>
      <point x="439" y="727" type="line"/>
      <point x="447" y="679" type="line"/>
      <point x="487" y="508"/>
      <point x="505" y="394"/>
      <point x="497" y="346" type="curve" smooth="yes"/>
      <point x="488" y="292"/>
      <point x="439" y="255"/>
      <point x="375" y="255" type="curve" smooth="yes"/>
      <point x="316" y="255"/>
      <point x="285" y="287"/>
      <point x="295" y="340" type="curve" smooth="yes"/>
      <point x="303" y="384"/>
      <point x="347" y="474"/>
      <point x="458" y="679" type="curve" smooth="yes"/>
      <point x="484" y="727" type="line"/>
      <point x="435" y="727" type="line"/>
      <point x="396" y="655" type="line" smooth="yes"/>
      <point x="268" y="417"/>
      <point x="255" y="384"/>
      <point x="249" y="352" type="curve" smooth="yes"/>
      <point x="234" y="268"/>
      <point x="287" y="208"/>
    </contour>
  </outline>
</glyph>
<glyph name="lmod" format="2">
  <advance height="2479" width="300"/>
  <unicode hex="02E1"/>
  <outline>
    <contour>
      <point x="367" y="1737" type="line"/>
      <point x="323" y="1737" type="line"/>
      <point x="157" y="745" type="line"/>
      <point x="201" y="745" type="line"/>
    </contour>
  </outline>
</glyph>
<glyph name="smod" format="2">
  <advance height="2479" width="678"/>
  <unicode hex="02E2"/>
  <outline>
    <contour>
      <point x="716" y="1329" type="line"/>
      <point x="698" y="1440"/>
      <point x="625" y="1501"/>
      <point x="503" y="1501" type="curve" smooth="yes"/>
      <point x="372" y="1501"/>
      <point x="259" y="1425"/>
      <point x="239" y="1306" type="curve" smooth="yes"/>
      <point x="221" y="1210"/>
      <point x="273" y="1140"/>
      <point x="387" y="1111" type="curve" smooth="yes"/>
      <point x="500" y="1082" type="line" smooth="yes"/>
      <point x="570" y="1065"/>
      <point x="625" y="1027"/>
      <point x="611" y="937" type="curve" smooth="yes"/>
      <point x="596" y="841"/>
      <point x="500" y="771"/>
      <point x="369" y="771" type="curve" smooth="yes"/>
      <point x="259" y="771"/>
      <point x="198" y="826"/>
      <point x="192" y="925" type="curve"/>
      <point x="148" y="919" type="line"/>
      <point x="154" y="797"/>
      <point x="236" y="730"/>
      <point x="369" y="730" type="curve" smooth="yes"/>
      <point x="521" y="730"/>
      <point x="637" y="812"/>
      <point x="657" y="934" type="curve" smooth="yes"/>
      <point x="672" y="1024"/>
      <point x="625" y="1097"/>
      <point x="515" y="1126" type="curve" smooth="yes"/>
      <point x="404" y="1155" type="line" smooth="yes"/>
      <point x="329" y="1175"/>
      <point x="271" y="1207"/>
      <point x="285" y="1303" type="curve" smooth="yes"/>
      <point x="300" y="1393"/>
      <point x="390" y="1457"/>
      <point x="506" y="1457" type="curve" smooth="yes"/>
      <point x="608" y="1457"/>
      <point x="657" y="1405"/>
      <point x="672" y="1321" type="curve"/>
    </contour>
  </outline>
</glyph>
<glyph name="xmod" format="2">
  <advance height="2479" width="687"/>
  <unicode hex="02E3"/>
  <outline>
    <contour>
      <point x="297" y="1489" type="line"/>
      <point x="244" y="1489" type="line"/>
      <point x="413" y="1129" type="line"/>
      <point x="105" y="745" type="line"/>
      <point x="160" y="745" type="line"/>
      <point x="436" y="1091" type="line"/>
      <point x="596" y="745" type="line"/>
      <point x="646" y="745" type="line"/>
      <point x="465" y="1129" type="line"/>
      <point x="756" y="1489" type="line"/>
      <point x="701" y="1489" type="line"/>
      <point x="445" y="1167" type="line"/>
    </contour>
  </outline>
</glyph>
<glyph name="tonebarhighmod" format="2">
  <advance height="2479" width="676"/>
  <unicode hex="02E6"/>
  <outline>
    <contour>
      <point x="636" y="1457" type="line"/>
      <point x="589" y="1457" type="line"/>
      <point x="348" y="0" type="line"/>
      <point x="394" y="0" type="line"/>
    </contour>
    <contour>
      <point x="563" y="1123" type="line"/>
      <point x="255" y="1123" type="line"/>
      <point x="247" y="1076" type="line"/>
      <point x="556" y="1076" type="line"/>
    </contour>
  </outline>
</glyph>
<glyph name="tonebarmidmod" format="2">
  <advance height="2479" width="676"/>
  <unicode hex="02E7"/>
  <outline>
    <contour>
      <point x="636" y="1457" type="line"/>
      <point x="589" y="1457" type="line"/>
      <point x="348" y="0" type="line"/>
      <point x="394" y="0" type="line"/>
    </contour>
    <contour>
      <point x="502" y="755" type="line"/>
      <point x="193" y="755" type="line"/>
      <point x="186" y="708" type="line"/>
      <point x="495" y="708" type="line"/>
    </contour>
  </outline>
</glyph>
<glyph name="tonebarextralowmod" format="2">
  <advance height="2479" width="676"/>
  <unicode hex="02E9"/>
  <outline>
    <contour>
      <point x="637" y="1457" type="line"/>
      <point x="591" y="1457" type="line"/>
      <point x="349" y="0" type="line"/>
      <point x="396" y="0" type="line"/>
    </contour>
    <contour>
      <point x="385" y="47" type="line"/>
      <point x="77" y="47" type="line"/>
      <point x="70" y="0" type="line"/>
      <point x="378" y="0" type="line"/>
    </contour>
  </outline>
</glyph>
<glyph name="yindepartingtonemod" format="2">
  <advance height="2479" width="513"/>
  <unicode hex="02EA"/>
  <outline>
    <contour>
      <point x="391" y="47" type="line"/>
      <point x="4" y="47" type="line"/>
      <point x="-4" y="0" type="line"/>
      <point x="383" y="0" type="line"/>
    </contour>
    <contour>
      <point x="150" y="908" type="line"/>
      <point x="103" y="908" type="line"/>
      <point x="-48" y="0" type="line"/>
      <point x="-1" y="0" type="line"/>
    </contour>
  </outline>
</glyph>
<glyph name="yangdepartingtone" format="2">
  <advance height="2479" width="515"/>
  <unicode hex="02EB"/>
  <outline>
    <contour>
      <point x="410" y="486" type="line"/>
      <point x="131" y="486" type="line"/>
      <point x="122" y="439" type="line"/>
      <point x="401" y="439" type="line"/>
    </contour>
    <contour>
      <point x="204" y="908" type="line"/>
      <point x="157" y="908" type="line"/>
      <point x="6" y="0" type="line"/>
      <point x="52" y="0" type="line"/>
    </contour>
  </outline>
</glyph>
<glyph name="lowleftarrowheadmod" format="2">
  <advance height="2479" width="668"/>
  <unicode hex="02F1"/>
  <outline>
    <contour>
      <point x="-45" y="-327" type="line"/>
      <point x="115" y="-281" type="line"/>
      <point x="444" y="-159" type="line"/>
      <point x="452" y="-106" type="line"/>
      <point x="-39" y="-288" type="line"/>
    </contour>
    <contour>
      <point x="394" y="-505" type="line"/>
      <point x="403" y="-458" type="line"/>
      <point x="108" y="-345" type="line"/>
      <point x="-41" y="-294" type="line"/>
      <point x="-47" y="-335" type="line"/>
    </contour>
  </outline>
</glyph>
<glyph name="lowringmod" format="2">
  <advance height="2479" width="333"/>
  <unicode hex="02F3"/>
  <anchor x="74" y="0" name="_bottom"/>
  <outline>
    <contour>
      <point x="13" y="-428" type="curve" smooth="yes"/>
      <point x="106" y="-428"/>
      <point x="188" y="-355"/>
      <point x="196" y="-262" type="curve" smooth="yes"/>
      <point x="204" y="-169"/>
      <point x="144" y="-96"/>
      <point x="51" y="-96" type="curve" smooth="yes"/>
      <point x="-42" y="-96"/>
      <point x="-124" y="-169"/>
      <point x="-137" y="-262" type="curve" smooth="yes"/>
      <point x="-148" y="-355"/>
      <point x="-80" y="-428"/>
    </contour>
    <contour>
      <point x="19" y="-381" type="curve" smooth="yes"/>
      <point x="-48" y="-381"/>
      <point x="-95" y="-329"/>
      <point x="-90" y="-262" type="curve" smooth="yes"/>
      <point x="-84" y="-195"/>
      <point x="-22" y="-143"/>
      <point x="45" y="-143" type="curve" smooth="yes"/>
      <point x="112" y="-143"/>
      <point x="159" y="-195"/>
      <point x="150" y="-262" type="curve" smooth="yes"/>
      <point x="140" y="-329"/>
      <point x="86" y="-381"/>
    </contour>
  </outline>
</glyph>
<glyph name="lowtildemod" format="2">
  <advance height="2479" width="851"/>
  <unicode hex="02F7"/>
  <outline>
    <contour>
      <point x="572" y="-225" type="line"/>
      <point x="561" y="-322"/>
      <point x="498" y="-390"/>
      <point x="419" y="-390" type="curve" smooth="yes"/>
      <point x="292" y="-390"/>
      <point x="289" y="-224"/>
      <point x="138" y="-225" type="curve" smooth="yes"/>
      <point x="43" y="-226"/>
      <point x="-44" y="-294"/>
      <point x="-61" y="-433" type="curve"/>
      <point x="-16" y="-436" type="line"/>
      <point x="-6" y="-345"/>
      <point x="54" y="-272"/>
      <point x="137" y="-272" type="curve" smooth="yes"/>
      <point x="260" y="-272"/>
      <point x="266" y="-436"/>
      <point x="417" y="-436" type="curve" smooth="yes"/>
      <point x="512" y="-436"/>
      <point x="599" y="-368"/>
      <point x="617" y="-228" type="curve"/>
    </contour>
  </outline>
</glyph>
<glyph name="beginhightonemod" format="2">
  <advance height="2479" width="325"/>
  <unicode hex="02F9"/>
  <outline>
    <contour>
      <point x="124" y="1210" type="line"/>
      <point x="170" y="1210" type="line"/>
      <point x="220" y="1536" type="line"/>
      <point x="173" y="1536" type="line"/>
    </contour>
    <contour>
      <point x="166" y="1489" type="line"/>
      <point x="468" y="1489" type="line"/>
      <point x="476" y="1536" type="line"/>
      <point x="173" y="1536" type="line"/>
    </contour>
  </outline>
</glyph>
<glyph name="beginlowtonemod" format="2">
  <advance height="2479" width="442"/>
  <unicode hex="02FB"/>
  <outline>
    <contour>
      <point x="-87" y="-390" type="line"/>
      <point x="-41" y="-390" type="line"/>
      <point x="13" y="-64" type="line"/>
      <point x="-33" y="-64" type="line"/>
    </contour>
    <contour>
      <point x="-87" y="-390" type="line"/>
      <point x="215" y="-390" type="line"/>
      <point x="223" y="-343" type="line"/>
      <point x="-80" y="-343" type="line"/>
    </contour>
  </outline>
</glyph>
<glyph name="openshelfmod" format="2">
  <advance height="2479" width="842"/>
  <unicode hex="02FE"/>
  <outline>
    <contour>
      <point x="607" y="-448" type="line"/>
      <point x="-77" y="-448" type="line"/>
      <point x="-84" y="-495" type="line"/>
      <point x="599" y="-495" type="line"/>
    </contour>
    <contour>
      <point x="3" y="-125" type="line"/>
      <point x="-44" y="-125" type="line"/>
      <point x="-99" y="-495" type="line"/>
      <point x="-52" y="-495" type="line"/>
    </contour>
  </outline>
</glyph>
<glyph name="gravecomb" format="2">
  <advance height="2479"/>
  <unicode hex="0300"/>
  <outline>
    <contour>
      <point x="-471" y="1536" type="line"/>
      <point x="-543" y="1536" type="line"/>
      <point x="-388" y="1254" type="line"/>
      <point x="-335" y="1254" type="line"/>
    </contour>
  </outline>
</glyph>
<glyph name="hookabovecomb" format="2">
  <advance height="2479"/>
  <unicode hex="0309"/>
  <anchor x="-380" y="1260" name="_top"/>
  <outline>
    <contour>
      <point x="-364" y="1216" type="line"/>
      <point x="-348" y="1316" type="line"/>
      <point x="-249" y="1324"/>
      <point x="-184" y="1377"/>
      <point x="-170" y="1468" type="curve" smooth="yes"/>
      <point x="-153" y="1569"/>
      <point x="-217" y="1642"/>
      <point x="-359" y="1644" type="curve"/>
      <point x="-374" y="1597" type="line"/>
      <point x="-252" y="1596"/>
      <point x="-205" y="1559"/>
      <point x="-220" y="1472" type="curve" smooth="yes"/>
      <point x="-232" y="1396"/>
      <point x="-279" y="1364"/>
      <point x="-387" y="1357" type="curve"/>
      <point x="-410" y="1216" type="line"/>
    </contour>
  </outline>
</glyph>
<glyph name="caroncomb" format="2">
  <advance height="2479"/>
  <unicode hex="030C"/>
  <anchor x="-470" y="1199" name="_top"/>
  <outline>
    <contour>
      <point x="-467" y="1257" type="line"/>
      <point x="-455" y="1257" type="line"/>
      <point x="-144" y="1487" type="line"/>
      <point x="-141" y="1492" type="line"/>
      <point x="-209" y="1492" type="line"/>
      <point x="-457" y="1309" type="line"/>
      <point x="-636" y="1492" type="line"/>
      <point x="-688" y="1492" type="line"/>
      <point x="-691" y="1487" type="line"/>
    </contour>
  </outline>
</glyph>
<glyph name="commaturnedabovecomb" format="2">
  <advance height="2479"/>
  <unicode hex="0312"/>
  <anchor x="-457" y="1062" name="_marktop"/>
  <anchor x="-355" y="1684" name="mkmktop"/>
  <anchor x="-364" y="1245" name="parent_top"/>
  <outline>
    <contour>
      <point x="-487" y="993" type="line"/>
      <point x="-441" y="993" type="line"/>
      <point x="-415" y="1149" type="line" smooth="yes"/>
      <point x="-388" y="1310"/>
      <point x="-305" y="1423"/>
      <point x="-191" y="1524" type="curve"/>
      <point x="-211" y="1558" type="line"/>
      <point x="-346" y="1444"/>
      <point x="-434" y="1315"/>
      <point x="-463" y="1143" type="curve" smooth="yes"/>
    </contour>
  </outline>
</glyph>
<glyph name="lefttackbelowcomb" format="2">
  <advance height="2479"/>
  <unicode hex="0318"/>
  <outline>
    <contour>
      <point x="-596" y="-353" type="line"/>
      <point x="-550" y="-353" type="line"/>
      <point x="-502" y="-65" type="line"/>
      <point x="-548" y="-65" type="line"/>
    </contour>
    <contour>
      <point x="-817" y="-233" type="line"/>
      <point x="-529" y="-233" type="line"/>
      <point x="-522" y="-186" type="line"/>
      <point x="-810" y="-186" type="line"/>
    </contour>
  </outline>
</glyph>
<glyph name="palatalhookcomb" format="2">
  <advance height="2479"/>
  <unicode hex="0321"/>
  <outline>
    <contour>
      <point x="-479" y="61" type="line"/>
      <point x="-531" y="-265" type="line" smooth="yes"/>
      <point x="-547" y="-364"/>
      <point x="-586" y="-410"/>
      <point x="-655" y="-410" type="curve" smooth="yes"/>
      <point x="-668" y="-410"/>
      <point x="-679" y="-409"/>
      <point x="-689" y="-406" type="curve"/>
      <point x="-695" y="-447" type="line"/>
      <point x="-687" y="-451"/>
      <point x="-668" y="-454"/>
      <point x="-649" y="-454" type="curve" smooth="yes"/>
      <point x="-564" y="-454"/>
      <point x="-506" y="-388"/>
      <point x="-486" y="-265" type="curve" smooth="yes"/>
      <point x="-432" y="61" type="line"/>
    </contour>
  </outline>
</glyph>
<glyph name="commaaccentcomb" format="2">
  <advance height="2479"/>
  <unicode hex="0326"/>
  <anchor x="-685" y="0" name="_bottom"/>
  <outline>
    <contour>
      <point x="-685" y="-145" type="line"/>
      <point x="-732" y="-145" type="line"/>
      <point x="-746" y="-228" type="line" smooth="yes"/>
      <point x="-763" y="-323"/>
      <point x="-815" y="-401"/>
      <point x="-877" y="-477" type="curve"/>
      <point x="-842" y="-503" type="line"/>
      <point x="-756" y="-399"/>
      <point x="-715" y="-317"/>
      <point x="-700" y="-228" type="curve" smooth="yes"/>
    </contour>
  </outline>
</glyph>
<glyph name="cedillacomb" format="2">
  <advance height="2479"/>
  <unicode hex="0327"/>
  <outline>
    <contour>
      <point x="-656" y="6" type="line"/>
      <point x="-694" y="-96" type="line"/>
      <point x="-586" y="-95"/>
      <point x="-540" y="-138"/>
      <point x="-553" y="-221" type="curve" smooth="yes"/>
      <point x="-564" y="-292"/>
      <point x="-612" y="-326"/>
      <point x="-721" y="-329" type="curve"/>
      <point x="-727" y="-375" type="line"/>
      <point x="-599" y="-371"/>
      <point x="-524" y="-323"/>
      <point x="-506" y="-221" type="curve" smooth="yes"/>
      <point x="-491" y="-131"/>
      <point x="-532" y="-68"/>
      <point x="-630" y="-52" type="curve"/>
      <point x="-609" y="6" type="line"/>
    </contour>
  </outline>
</glyph>
<glyph name="bridgebelowcomb" format="2">
  <advance height="2479"/>
  <unicode hex="032A"/>
  <anchor x="-695" y="0" name="_bottom"/>
  <outline>
    <contour>
      <point x="-1008" y="-465" type="line"/>
      <point x="-961" y="-465" type="line"/>
      <point x="-902" y="-111" type="line"/>
      <point x="-948" y="-111" type="line"/>
    </contour>
    <contour>
      <point x="-929" y="-157" type="line"/>
      <point x="-516" y="-157" type="line"/>
      <point x="-509" y="-111" type="line"/>
      <point x="-922" y="-111" type="line"/>
    </contour>
    <contour>
      <point x="-583" y="-465" type="line"/>
      <point x="-537" y="-465" type="line"/>
      <point x="-477" y="-111" type="line"/>
      <point x="-524" y="-111" type="line"/>
    </contour>
  </outline>
</glyph>
<glyph name="dblarchinvertedbelowcomb" format="2">
  <advance height="2479"/>
  <unicode hex="032B"/>
  <outline>
    <contour>
      <point x="-909" y="-116" type="line"/>
      <point x="-925" y="-220"/>
      <point x="-876" y="-282"/>
      <point x="-793" y="-282" type="curve" smooth="yes"/>
      <point x="-701" y="-282"/>
      <point x="-627" y="-205"/>
      <point x="-612" y="-116" type="curve"/>
      <point x="-659" y="-116" type="line"/>
      <point x="-672" y="-193"/>
      <point x="-719" y="-236"/>
      <point x="-780" y="-236" type="curve" smooth="yes"/>
      <point x="-841" y="-236"/>
      <point x="-876" y="-193"/>
      <point x="-863" y="-116" type="curve"/>
    </contour>
    <contour>
      <point x="-659" y="-116" type="line"/>
      <point x="-673" y="-205"/>
      <point x="-625" y="-282"/>
      <point x="-534" y="-282" type="curve" smooth="yes"/>
      <point x="-451" y="-282"/>
      <point x="-378" y="-220"/>
      <point x="-362" y="-116" type="curve"/>
      <point x="-409" y="-116" type="line"/>
      <point x="-422" y="-193"/>
      <point x="-468" y="-236"/>
      <point x="-529" y="-236" type="curve" smooth="yes"/>
      <point x="-591" y="-236"/>
      <point x="-625" y="-193"/>
      <point x="-612" y="-116" type="curve"/>
    </contour>
  </outline>
</glyph>
<glyph name="caronbelowcomb" format="2">
  <advance height="2479"/>
  <unicode hex="032C"/>
  <outline>
    <contour>
      <point x="-682" y="-436" type="line"/>
      <point x="-671" y="-436" type="line"/>
      <point x="-359" y="-207" type="line"/>
      <point x="-356" y="-201" type="line"/>
      <point x="-425" y="-201" type="line"/>
      <point x="-672" y="-384" type="line"/>
      <point x="-851" y="-201" type="line"/>
      <point x="-903" y="-201" type="line"/>
      <point x="-906" y="-207" type="line"/>
    </contour>
  </outline>
</glyph>
